<?xml version="1.0" standalone="no"?>
<!DOCTYPE svg PUBLIC "-//W3C//DTD SVG 1.1//EN" "http://www.w3.org/Graphics/SVG/1.1/DTD/svg11.dtd" >
<svg xmlns="http://www.w3.org/2000/svg">
<metadata>
This is a custom SVG webfont generated by Font Squirrel.
Copyright   : Copyright  C  1992
</metadata>
<defs>
<font id="HelveticaRegular" horiz-adv-x="622" >
<font-face units-per-em="2048" ascent="1638" descent="-410" />
<missing-glyph horiz-adv-x="702" />
<glyph unicode=" "  horiz-adv-x="702" />
<glyph unicode="&#x09;" horiz-adv-x="702" />
<glyph unicode="&#xa0;" horiz-adv-x="702" />
<glyph unicode="!" d="M211 0v223h199v-223h-199zM211 883v551h199v-551l-50 -471h-98z" />
<glyph unicode="&#x22;" horiz-adv-x="997" d="M180 1434h264l-79 -394h-107zM551 1434h264l-80 -394h-106z" />
<glyph unicode="#" horiz-adv-x="1691" d="M242 229l26 174h269l57 367h-270l26 174h268l54 342h135l-51 -342h286l54 342h135l-51 -342h268l-27 -174h-268l-55 -367h268l-27 -174h-268l-53 -344h-135l51 344h-289l-49 -344h-137l51 344h-268zM674 403h287l55 367h-287z" />
<glyph unicode="$" horiz-adv-x="1224" d="M104 426h181q0 -203 170 -285l59 -18l55 -6v545q-205 45 -301 122q-127 100 -127 287q0 117 52 207q55 98 157 139q76 31 139 35l80 6v133h107v-133q96 0 166 -22q63 -20 116 -72q86 -82 109 -195l4 -43l2 -41h-172q0 98 -65.5 168t-161.5 70v-506q176 -29 271 -95.5 t132 -135.5q33 -61 35 -105l6 -88q12 -168 -90 -270q-88 -88 -201 -123l-77 -14l-74 -9v-167h-107v165q-231 0 -344 125q-103 115 -121 326zM315 1077q0 -184 254 -241v487l-51 -6q-29 -4 -63 -17q-140 -51 -140 -223zM674 117q119 0 192.5 78.5t73.5 197.5q0 154 -156 223 l-59 19l-51 8v-526z" />
<glyph unicode="%" horiz-adv-x="1826" d="M104 1040q-12 166 72 273q72 90 160 121l51 12l49 4l47 -4l52 -12q82 -20 159 -119q84 -109 72 -275l-6 -79q-4 -41 -21 -99q-27 -86 -97.5 -158.5t-205.5 -72.5q-223 0 -303 231l-22 96zM233 1040l5 -61q2 -33 16 -78q39 -162 182 -162q139 0 180 154q14 53 17 86l4 61 q10 139 -55 220q-53 66 -125 79l-11 2h-10l-20 -2l-21 -4q-59 -12 -110 -82q-60 -82 -52 -213zM393 0l912 1434h141l-911 -1434h-142zM1063 393l4 72q2 27 16 80q74 258 310 258q166 0 252 -127q76 -111 75 -283q0 -270 -182 -373q-25 -12 -80 -26l-65 -8h-33q-33 6 -100 28 q-72 35 -136 123q-69 98 -61 256zM1192 393q-4 -109 41 -198q57 -109 160 -103l30 2q16 2 31 10q139 51 139 289v21l-2 24q-2 29 -12 88q-51 168 -186 168q-82 0 -127 -55q-35 -45 -60 -123l-12 -65z" />
<glyph unicode="&#x26;" horiz-adv-x="1370" d="M143 383q-10 162 99 274q98 102 247 172q-139 158 -139 310q0 139 99 221q90 74 229 74q143 0 213 -70q76 -76 88 -162l4 -28l2 -29q6 -98 -51 -176q-63 -86 -119 -123l-49 -33l-45 -25l307 -372q18 35 31 69q14 29 22 103l2 18l4 21h158q-14 -100 -33 -150 q-12 -59 -49 -127l-16 -31l-19 -28l242 -291h-211l-139 168q-63 -102 -191 -158q-113 -51 -243 -51q-197 0 -293 92q-111 104 -131 201l-15 65zM326 385q0 -121 80.5 -197.5t201.5 -76.5h29q18 0 31 4q176 23 260 170l-346 428q-168 -70 -230 -195l-20 -69zM514 1143 q0 -76 45 -142l35 -51l41 -53q84 29 136 96.5t52 155.5q0 61 -44 107.5t-103 41.5l-27 -2l-28 -6q-107 -32 -107 -147z" />
<glyph unicode="'" horiz-adv-x="624" d="M180 1434h264l-79 -394h-107z" />
<glyph unicode="(" horiz-adv-x="731" d="M141 487v80l2 41q8 168 62.5 347.5t226.5 478.5h133q-246 -485 -246 -906q0 -299 130 -639q23 -59 67 -165l49 -101l-133 -2q-170 301 -227 481q-53 166 -62 344z" />
<glyph unicode=")" horiz-adv-x="731" d="M166 -379q244 487 244 907v2q0 420 -244 904h133q291 -479 291 -906q0 -436 -291 -905z" />
<glyph unicode="*" horiz-adv-x="931" d="M131 1190l33 96l252 -82v271h100v-271l252 82l33 -96l-250 -82l156 -221l-82 -62l-158 222l-162 -222l-80 62l158 221z" />
<glyph unicode="+" horiz-adv-x="1404" d="M104 664v106h545v555h105v-555h544v-106h-544v-555h-105v555h-545z" />
<glyph unicode="," d="M211 0v223h199l-2 -319l-7 -33q-25 -127 -190 -172v111q41 6 68 43q27 27 32 73v74h-100z" />
<glyph unicode="-" horiz-adv-x="845" d="M158 461v174h530v-174h-530z" />
<glyph unicode="." d="M211 0v223h199v-223h-199z" />
<glyph unicode="/" horiz-adv-x="819" d="M0 -379l715 1813h104l-715 -1813h-104z" />
<glyph unicode="0" horiz-adv-x="1167" d="M92 659v113q0 29 4 57q10 150 33 228q33 115 86 217q104 203 369 203q258 0 366 -203q57 -109 90 -217q27 -86 31 -228l4 -112l-4 -113q-4 -135 -31 -225q-31 -106 -90 -219q-106 -201 -366 -201h-4q-258 0 -365 201q-119 221 -119 444q0 30 -4 55zM279 672 q0 -561 305 -561q223 0 284 329q18 94 19 154l2 123l-2 121q0 57 -19 155q-25 139 -82 230q-63 100 -202 100q-180 0 -242.5 -178t-62.5 -383v-90z" />
<glyph unicode="1" horiz-adv-x="1159" d="M258 1077v101h43q127 0 217 65q100 70 117 191h133v-1434h-188v1077h-322z" />
<glyph unicode="2" horiz-adv-x="1171" d="M117 0q0 182 67 295q74 125 199 213l98 70l125 84q141 90 195 151q80 94 80 227q0 131 -76 203t-207 72q-133 0 -213 -77t-80 -208v-53h-184v43l8 90q12 127 115 236q139 145 358 131l88 -7q66 -4 146 -36q238 -96 237 -392q0 -166 -82 -274q-90 -119 -295 -246 q-246 -152 -325 -262l-29 -49l-16 -49h743v-162h-952z" />
<glyph unicode="3" horiz-adv-x="1165" d="M82 410v26h180q0 -147 78 -229q70 -74 135 -86l43 -8l43 -2q152 -8 223 63q63 63 86 143l9 50l2 47q4 106 -66 186q-63 74 -192 74h-84l-37 -2h-21l-2 155h56q227 0 292 154l11 49l4 45l-2 39q-2 31 -9 43q-49 166 -266 166q-145 0 -200 -82q-63 -92 -70 -190l-2 -29v-25 h-176v39q0 27 4 47q4 43 18 97q82 297 432 297q197 0 291 -78t131 -178q12 -35 17 -72l6 -66q0 -113 -60.5 -197.5t-169.5 -119.5v-10q131 -16 205 -123q66 -96 66 -234q0 -207 -139 -327q-133 -113 -345 -113q-266 0 -366 131q-94 123 -121 293z" />
<glyph unicode="4" horiz-adv-x="1175" d="M51 330v166l660 938h192v-940h219v-164h-219v-330h-190v330h-662zM231 494h482v688z" />
<glyph unicode="5" horiz-adv-x="1165" d="M94 367h185q0 -25 10 -52q18 -88 108 -159q23 -18 73 -32.5t97 -12.5l66 4q121 8 207 123q55 74 55 227q0 174 -90 256q-98 88 -219 82l-35 -2l-35 -4q-53 -6 -119 -43q-55 -31 -88 -76h-176l98 756h760v-162h-620l-58 -424q125 109 318 108q213 0 326.5 -142t113.5 -347 q0 -209 -110 -356q-125 -170 -394 -152l-94 6q-168 10 -289 150q-74 86 -90 252z" />
<glyph unicode="6" horiz-adv-x="1165" d="M90 698q0 596 316 738q66 29 112 32l100 9l82 -7q137 -10 248 -122q74 -74 107 -230h-168q-59 205 -271 205q-37 0 -55 -4q-27 -2 -57 -12q-150 -49 -207 -289q-25 -102 -25 -225h9l24 28l39 37q45 33 109.5 59.5t169.5 26.5q211 0 331.5 -134t120.5 -347 q0 -240 -129 -371q-139 -139 -352 -133l-64 2h-36l-16 5q-9 3 -11 3q-377 65 -377 729zM289 459l4 -68l18 -78q27 -74 92.5 -138t198.5 -64q143 0 223 108q70 96 70 246q0 143 -78 234.5t-219 91.5q-115 0 -195.5 -60.5t-101.5 -171.5l-10 -53z" />
<glyph unicode="7" horiz-adv-x="1165" d="M70 1272v162h1026v-131l-68 -80q-98 -117 -180 -260q-96 -170 -143 -304l-60 -170l-43 -159l-29 -160l-22 -170h-201l31 197q10 61 49 190l39 127l49 129l90 191q72 154 195 309l51 65l55 64h-839z" />
<glyph unicode="8" horiz-adv-x="1167" d="M111 385v21q0 127 68.5 232t187.5 138q-158 53 -197 252l-6 31v65q0 16 4 33q25 160 141 244q109 76 277 76q207 0 301 -101q104 -113 112 -225l5 -59q8 -106 -56 -197q-57 -82 -145 -119q119 -31 188 -141q63 -100 64 -229q0 -213 -127 -330t-342 -117h-8 q-242 0 -349 127q-117 139 -116 281zM293 416q0 -238 201 -291l47 -12l45 -2l57 6q66 12 109 43q123 88 122 256q0 133 -77.5 206.5t-210.5 73.5q-160 0 -226.5 -87t-66.5 -193zM336 1069l2 -14q0 -35 16 -72q18 -43 45 -74q53 -66 187 -65q115 0 179 63.5t64 177.5 q0 164 -124 215q-45 18 -74 19l-45 4q-113 0 -166 -49q-61 -57 -74 -113l-8 -39l-2 -37v-16z" />
<glyph unicode="9" horiz-adv-x="1165" d="M90 967q0 340 244 456q82 39 145 45l90 9q33 0 70 -4q25 -2 74 -9q362 -88 362 -731q0 -600 -325 -737q-57 -25 -111 -29l-96 -8l-88 6q-41 2 -101 27q-188 76 -245 319h172q16 -88 84.5 -144t179.5 -56h20l23 2q111 10 203 127q102 131 102 399h-8q-35 -43 -66 -68 l-69 -43q-33 -14 -60 -20q-18 -6 -65 -14l-86 -7q-184 -12 -322 131q-127 134 -127 349zM270 965q0 -139 80 -231.5t217 -92.5q154 0 232 100q84 111 75 232l-2 28l-2 33q-8 131 -92 210t-215 79q-145 0 -223 -111q-70 -95 -70 -247z" />
<glyph unicode=":" d="M211 0v223h199v-223h-199zM211 817v223h199v-223h-199z" />
<glyph unicode=";" d="M211 0v223h199l-2 -319l-7 -33q-25 -127 -190 -172v111q41 6 68 43q27 27 32 73v74h-100zM211 817v223h199v-223h-199z" />
<glyph unicode="&#x3c;" horiz-adv-x="1323" d="M119 637v129l966 567l70 -127l-854 -506l854 -503l-70 -127z" />
<glyph unicode="=" horiz-adv-x="1404" d="M104 459v106h1194v-106h-1194zM104 868v107h1194v-107h-1194z" />
<glyph unicode="&#x3e;" horiz-adv-x="1323" d="M168 197l854 503l-854 506l72 127l964 -567v-129l-964 -567z" />
<glyph unicode="?" horiz-adv-x="1099" d="M104 1001v48q0 29 5 49q33 371 448 370q197 0 309 -86q127 -96 127 -284q0 -98 -39 -172t-100 -133l-33 -31l-55 -49l-21 -17q-131 -104 -131 -237v-43h-145l-2 28v29q0 106 35 166q43 74 80 111l14 14l16 14l60 51q145 127 145 261l-6 43q-12 86 -94 147q-63 49 -162 41 l-55 -4q-104 -8 -174 -109q-45 -66 -45 -207h-177zM440 0v223h199v-223h-199z" />
<glyph unicode="@" horiz-adv-x="1990" d="M119 596q0 383 247.5 637t628.5 254q422 0 621 -227q215 -246 242 -508l8 -78l4 -78q10 -188 -119 -344q-121 -145 -309 -146h-29l-27 5q-102 0 -143 110h-12q-35 -76 -146 -112l-79 -15l-62 -2l-74 6q-49 4 -128.5 48t-142 138.5t-62.5 280.5v29q0 154 104 305 q96 139 287 139q193 0 276 -133h13l-13 43v58h189v-607q0 -125 71 -139h19q121 0 186 113q51 92 51 223q0 334 -194 543q-201 213 -531 213q-317 0 -522 -218.5t-205 -537.5q0 -272 129 -459q133 -193 389 -268l107 -21l102 -8q98 -8 215 35q84 31 154 76l68 -129l-33 -17 l-33 -18q-68 -39 -174 -61q-94 -20 -197 -21q-399 0 -637.5 247t-238.5 644zM733 563l2 -59l13 -64q37 -193 221 -192q166 0 215 188l10 68l4 59l-4 66q-6 109 -59 176q-61 76 -164 76q-184 0 -221 -185l-15 -71z" />
<glyph unicode="A" horiz-adv-x="1249" d="M-6 0l528 1434h203l532 -1434h-202l-135 371h-594l-131 -371h-201zM379 532h491l-247 707z" />
<glyph unicode="B" horiz-adv-x="1382" d="M170 0v1434h616q418 0 418 -365v-8q0 -109 -63.5 -192t-169.5 -107q16 -8 26 -10q14 -8 35 -11q104 -31 180 -133q53 -74 54 -209q0 -399 -502 -399h-594zM358 162h433q49 0 96 14q55 16 98 41q88 49 88 199q0 248 -323 248h-392v-502zM358 825h379q244 0 273 197l2 14 v13q0 23 -4 43q0 29 -15 55q-49 125 -250 125h-385v-447z" />
<glyph unicode="C" horiz-adv-x="1427" d="M89 653q0 20 1 39l8 150q6 104 54 233q147 401 600 402q528 0 581 -486h-188q0 23 -8 51l-17 56q-86 217 -368 217q-408 0 -455 -490l-6 -63v-62q0 -238 117 -399q129 -182 358 -182q266 0 369 227q29 63 28 129h189q0 -31 -19 -97.5t-39 -111.5q-143 -307 -536 -307 q-340 0 -504 209q-82 104 -123 235q-42 132 -42 250z" />
<glyph unicode="D" horiz-adv-x="1441" d="M170 0v1434h516q369 0 512 -203q74 -104 115 -215q29 -80 39 -230l2 -32v-33q0 -547 -402 -680q-41 -14 -78 -23q-51 -12 -106 -14l-154 -4h-444zM358 162h263q532 0 532 555q0 213 -78 350q-92 166 -287 195l-57 8l-55 2h-318v-1110z" />
<glyph unicode="E" horiz-adv-x="1226" d="M170 0v1434h1001v-162h-813v-451h738v-162h-738v-497h836v-162h-1024z" />
<glyph unicode="F" horiz-adv-x="1138" d="M170 0v1434h942v-162h-754v-467h660v-162h-660v-643h-188z" />
<glyph unicode="G" horiz-adv-x="1484" d="M90 731q0 342 170 537q180 209 516 209q340 0 492 -238q47 -72 61 -143l19 -86h-189q0 150 -125 233q-106 72 -262 72q-332 0 -436 -307q-35 -104 -39 -168l-6 -115v-68l18 -122q4 -27 23 -78q115 -338 438 -338q295 0 391 270q10 35 27 105l8 92h-401v162h573v-748h-147 v231q-133 -272 -471 -272h-25l-45 4h-41q-10 2 -29 8q-272 47 -405 273q-115 192 -115 487z" />
<glyph unicode="H" horiz-adv-x="1423" d="M170 0v1434h188v-598h707v598h188v-1434h-188v674h-707v-674h-188z" />
<glyph unicode="I" horiz-adv-x="528" d="M170 0v1434h188v-1434h-188z" />
<glyph unicode="J" horiz-adv-x="1042" d="M45 401v74h188q0 -164 41 -246q56 -110 200 -110h3q143 0 197 114q35 78 35 244v957h190v-938q0 -260 -80 -385q-100 -152 -344 -152q-213 0 -303 96q-98 104 -115 213l-10 68z" />
<glyph unicode="K" horiz-adv-x="1337" d="M170 0v1434h188v-711l695 711h254l-586 -590l625 -844h-250l-512 715l-226 -223v-492h-188z" />
<glyph unicode="L" horiz-adv-x="1060" d="M170 0v1434h188v-1272h715v-162h-903z" />
<glyph unicode="M" horiz-adv-x="1785" d="M170 0v1434h283l440 -1180l438 1180h283v-1434h-189l5 1204l-461 -1204h-154l-457 1204v-1204h-188z" />
<glyph unicode="N" horiz-adv-x="1484" d="M170 0v1434h209l745 -1137v1137h189v-1434h-207l-748 1137v-1137h-188z" />
<glyph unicode="O" horiz-adv-x="1519" d="M90 717q0 336 164 538q178 221 506 222q332 0 508 -220q162 -201 162 -540q0 -342 -162 -541q-174 -217 -508 -217t-508 217q-162 199 -162 541zM289 774q0 -28 2 -57l6 -115q12 -215 158 -375q97 -108 301 -108h4q246 0 366 182q102 156 103 416q0 252 -76 370 q-125 199 -299 218l-94 10q-33 0 -67 -2t-77 -19q-125 -35 -223 -161q-104 -133 -104 -359z" />
<glyph unicode="P" horiz-adv-x="1282" d="M170 0v1434h571q475 0 476 -412q0 -451 -494 -451h-365v-571h-188zM358 733h344q322 0 322 285q0 254 -322 254h-344v-539z" />
<glyph unicode="Q" horiz-adv-x="1519" d="M90 717l6 117q2 57 8.5 77.5t12.5 46.5q55 248 222 383.5t421 135.5q332 0 508 -220q162 -201 162 -540q0 -88 -11 -166q0 -123 -100 -299q-39 -70 -92 -125l159 -178l-104 -101l-168 191q-49 -29 -88 -39l-94 -25l-90 -12l-82 -4q-23 -1 -46 -1q-246 0 -388 144 q-143 145 -195 316q-18 63 -33 157zM291 717q0 -307 133 -453q133 -145 318 -145h3h15l57 2l72 12q37 6 55 17l49 26l-157 178l108 97l160 -183q125 158 125 449q0 408 -252 547q-70 39 -123 43l-94 8q-3 1 -5.5 1t-5.5 -1q-20 0 -59 -4q-31 0 -74 -17q-325 -90 -325 -577z " />
<glyph unicode="R" horiz-adv-x="1366" d="M170 0v1434l692 -2q49 -2 74 -9q121 -18 221 -100q101 -84 101 -249q0 -12 -1 -25l-2 -43l-6 -43q-14 -96 -77.5 -172t-155.5 -97q145 -61 174 -162q31 -111 31 -225v-108q0 -100 39 -174l16 -25h-199l-16 20q-18 33 -27 74l-12 240q-4 106 -42 190t-220 84h-402v-608 h-188zM358 770l478 4q96 8 174 94q47 53 47 160q0 244 -305 244h-394v-502z" />
<glyph unicode="S" horiz-adv-x="1314" d="M90 455h189q0 -166 120 -256q111 -80 281 -80q147 0 238 59q106 68 106 207q0 176 -195 229l-45 13l-43 10l-75 16q-25 6 -72 17q-231 51 -318 110q-139 92 -139 285q0 213 166 321q141 90 367 91q258 0 369.5 -110t142.5 -251l6 -29l2 -26h-189l-6 31l-6 32 q-57 190 -325 191q-129 0 -220 -53q-106 -66 -106 -187q0 -125 96 -168q70 -31 215 -63l10 -4h13l8 -4h10l82 -17q31 -4 86 -20q367 -88 367 -410v-20l-2 -19q0 -137 -130 -272q-116 -121 -362 -121q-30 0 -61 2l-115 6q-41 2 -72 10q-14 2 -69 19q-119 35 -215 137 q-109 115 -109 324z" />
<glyph unicode="T" horiz-adv-x="1153" d="M25 1272v162h1101v-162h-454v-1272h-189v1272h-458z" />
<glyph unicode="U" horiz-adv-x="1396" d="M143 555v879h189l2 -947q2 -45 12 -100q53 -268 352 -268q209 0 295 131q70 109 70 330v854h188v-879q0 -285 -108 -412q-119 -139 -242 -159l-106 -19l-97 -6q-29 -2 -56 -2q-215 0 -331 115q-109 109 -145 250q-20 78 -21 122z" />
<glyph unicode="V" horiz-adv-x="1191" d="M-6 1434h205l397 -1235l397 1235h207l-491 -1434h-226z" />
<glyph unicode="W" horiz-adv-x="1792" d="M-6 1434h209l295 -1205l290 1205h216l292 -1205l293 1205h211l-373 -1434h-239l-291 1206l-293 -1206h-239z" />
<glyph unicode="X" horiz-adv-x="1216" d="M0 0l492 733l-467 701h235l352 -564l359 564h217l-463 -697l492 -737h-238l-369 596l-368 -596h-242z" />
<glyph unicode="Y" horiz-adv-x="1212" d="M-6 1434h221l391 -664l391 664h224l-519 -836v-598h-190v598z" />
<glyph unicode="Z" horiz-adv-x="1189" d="M51 0v176l815 1096h-770v162h1002v-154l-826 -1118h865v-162h-1086z" />
<glyph unicode="[" horiz-adv-x="741" d="M211 -379v1813h424v-127h-246v-1559h246v-127h-424z" />
<glyph unicode="\" horiz-adv-x="819" d="M0 1434h102l717 -1813h-106z" />
<glyph unicode="]" horiz-adv-x="741" d="M104 -252h246v1559h-246v127h424v-1813h-424v127z" />
<glyph unicode="^" horiz-adv-x="999" d="M111 1151l200 283h373l203 -283h-150l-239 211l-240 -211h-147z" />
<glyph unicode="_" horiz-adv-x="997" d="M0 -272h997v-107h-997v107z" />
<glyph unicode="`" horiz-adv-x="624" d="M84 1434h211l141 -271h-157z" />
<glyph unicode="a" horiz-adv-x="1107" d="M73 291q0 104 87 192q88 92 413 119l48 4q63 0 114 27q37 18 37 112q0 147 -119 193q-35 12 -63 14l-49 2l-54 -2q-14 0 -38 -2q-4 0 -35 -14q-135 -43 -135 -203h-170v21l2 20q0 104 106 211q96 96 326 96q313 0 387 -211q12 -33 14 -75l4 -64l-10 -481v-13 q0 -61 17 -84q19 -26 89 -26v-127h-8l-8 -2l-29 -2l-34 -2q-14 -1 -26 -1q-68 0 -102 29q-40 34 -55 121q-31 -57 -71 -90q-10 -8 -39 -26q-86 -53 -162 -60l-78 -6q-13 -1 -26 -1h-13q-110 0 -186 50q-76 51 -105 115q-18 41 -24 84l-4 63q-1 9 -1 19zM256 279l4 -39 q2 -27 16 -52q47 -102 177 -102q211 0 284 195q2 8 13 38q4 18 10 54l8 71l4 88l-8 -6l-6 -4l-45 -18l-62 -10h-12q-123 0 -274 -52q-109 -36 -109 -163z" />
<glyph unicode="b" horiz-adv-x="1204" d="M143 0v1434h176v-529q109 176 336 176q238 0 359 -166q104 -145 104 -393q0 -231 -96 -375q-109 -164 -328 -184l-22 -2h-21q-186 0 -317 154l-12 14l-9 14l6 -143h-176zM307 526q0 -178 62 -293q80 -147 243 -147h25q12 0 25 4q270 33 270 432q0 231 -88 326 q-98 104 -195 104l-14 2h-12l-62 -6q-41 -4 -90 -35q-164 -102 -164 -387z" />
<glyph unicode="c" horiz-adv-x="1099" d="M86 528v43q0 29 4 52l19 104q20 117 135 242q103 112 323 112h4q209 0 310 -98q106 -104 129 -223l8 -45h-168l-6 24q0 10 -4 25q-59 190 -265 190q-176 0 -239.5 -133t-63.5 -293v-34l2 -33q8 -135 82 -255t232 -120q172 0 246 170l16 59l8 56h168l-10 -66l-19 -69 q-27 -98 -131 -191q-96 -84 -282 -84q-369 0 -467 334q-23 74 -25 125z" />
<glyph unicode="d" horiz-adv-x="1202" d="M86 522v41q0 23 4 43q0 160 113 326q99 149 339 149h3q123 0 194 -37q82 -39 142 -139v529h176v-1434h-176l10 143l-17 -20l-14 -23q-88 -139 -311 -139q-238 0 -350.5 170t-112.5 391zM272 522q0 -379 252 -430l64 -6h26l29 6q96 20 172 114.5t76 319.5q0 299 -182 400 q-47 26 -101 26h-4l-14 2h-12q-166 0 -244 -141q-62 -113 -62 -291z" />
<glyph unicode="e" horiz-adv-x="1142" d="M86 516q0 260 117 406q126 159 378 159h3q272 0 368 -168q51 -90 78 -193.5t27 -240.5h-785l7 -73l18 -82q18 -78 94 -162q70 -76 205 -76q106 0 184 56.5t99 158.5h168l-17 -61q-8 -35 -24 -64q-41 -80 -134 -145q-96 -71 -234 -71q-18 0 -36 1l-100 6q-18 2 -67.5 14.5 t-82.5 26.5q-190 82 -246 303q-20 80 -20 205zM272 606h598l-6 66q0 12 -4 41q-4 12 -10 32q-20 74 -79.5 141.5t-182.5 67.5q-129 0 -210 -73.5t-102 -202.5q0 -20 -4 -37v-35z" />
<glyph unicode="f" horiz-adv-x="638" d="M25 913v127h188v142q0 145 74 202q75 58 176 58h20l35 -2l94 -6v-127h-22l-6 2h-41l-8 2h-33l-13 -2q-45 -8 -62 -28.5t-28 -49.5l-8 -35v-156h221v-127h-221v-913h-178v913h-188z" />
<glyph unicode="g" horiz-adv-x="1204" d="M94 528q0 377 228 498q68 35 127 47l88 8l73 -4q100 -6 203 -84q41 -31 74 -96l2 143h170v-1013q0 -279 -234 -377q-78 -33 -137 -37l-96 -6l-88 2q-131 2 -248 106q-66 57 -92 170l168 -2q20 -92 143 -131l72 -12l55 -4l53 4q35 2 82 24q145 68 146 293v113l-11 -16 l-8 -15q-51 -88 -131 -136q-71 -43 -158 -43q-11 0 -22 1l-61 4q-137 8 -273 148q-125 128 -125 415zM281 535q0 -334 194 -424l62 -21l57 -4h24l27 4q84 12 166 117q76 96 76 325q0 422 -309 422q-162 0 -238 -137q-59 -106 -59 -282z" />
<glyph unicode="h" horiz-adv-x="1146" d="M143 0v1434h176v-539q135 186 351 186q250 0 317 -227l12 -88l5 -74v-692h-179l-6 770q-18 184 -207 184l-59 -6q-104 -10 -182 -133q-51 -82 -52 -248v-567h-176z" />
<glyph unicode="i" horiz-adv-x="456" d="M139 0v1040h176v-1040h-176zM139 1245v189h176v-189h-176z" />
<glyph unicode="j" horiz-adv-x="468" d="M-31 -252l23 6h10l6 2h8l23 2l27 2q80 27 79 168v1112h177v-1136q0 -143 -48 -211q-55 -78 -192 -78h-21l-22 2l-16 2h-17l-18 4h-17zM137 1245v189h191v-189h-191z" />
<glyph unicode="k" horiz-adv-x="1048" d="M143 0v1434h176v-889l486 495h211l-402 -401l443 -639h-205l-358 528l-175 -174v-354h-176z" />
<glyph unicode="l" horiz-adv-x="464" d="M143 0v1434h176v-1434h-176z" />
<glyph unicode="m" horiz-adv-x="1748" d="M143 0v1040h176v-141l-2 -12q53 129 228 182l45 8l43 4q117 0 180 -53q72 -59 92 -117l10 -28l9 -25l14 25l16 28q119 170 324 170q231 0 303 -215q18 -53 21 -112l4 -82v-672h-179l-2 717v37q-2 12 -8 28q-10 61 -51 116.5t-135 55.5q-137 0 -207 -102q-61 -88 -61 -231 v-621h-177v657q0 297 -196 297h-12l-11 -2q-84 0 -170 -92q-78 -84 -78 -239v-621h-176z" />
<glyph unicode="n" horiz-adv-x="1148" d="M143 0v1040h176v-145q127 186 351 186q190 0 258 -106q37 -59 55 -111q12 -35 18 -121l3 -26v-717h-177l-2 719q-2 49 -12 80.5t-35 81.5q-37 73 -163 73h-3q-23 0 -44 -2t-40 -10q-113 -27 -166 -147q-43 -96 -43 -228v-567h-176z" />
<glyph unicode="o" horiz-adv-x="1173" d="M86 522q0 254 121 402q130 157 376 157h3q246 0 379 -159q122 -149 122 -396q0 -254 -124 -403q-133 -162 -377 -162q-246 0 -377 162q-123 149 -123 399zM272 473l7 -49q43 -338 307 -338q160 0 227 104q72 113 82 234l4 49l2 49l-4 92q-4 117 -82 234q-70 106 -229 106 q-268 0 -310 -346q0 -25 -4 -45v-90z" />
<glyph unicode="p" horiz-adv-x="1198" d="M143 -379v1419h168l-2 -141q139 182 342 182q231 0 353 -170q106 -152 106 -391q0 -238 -104 -387q-121 -172 -351 -172h-12q-221 0 -324 189v-529h-176zM307 516q0 -223 97.5 -326.5t218.5 -103.5q162 0 239 143q61 115 62 291q0 221 -86 327.5t-226 106.5 q-49 0 -100 -18q-205 -74 -205 -420z" />
<glyph unicode="q" horiz-adv-x="1200" d="M85 564q0 211 126 366q124 151 335 151h3q78 0 122 -12t95 -49l53 -47l60 -58v125h176v-1419h-176v526q-104 -186 -336 -186q-190 0 -286.5 98.5t-133.5 212.5q-29 86 -31 138l-6 110q-1 22 -1 44zM272 520q0 -209 67 -301t153 -121l43 -10l43 -2l53 6q31 4 61 21 q199 88 199 403q0 307 -162 402q-45 27 -82 30l-59 6l-49 -4q-141 -12 -211 -157q-56 -115 -56 -273z" />
<glyph unicode="r" horiz-adv-x="739" d="M143 0v1040h176v-200q41 109 133.5 172t209.5 67l51 2v-127q-180 0 -285 -92q-78 -70 -98 -186q-6 -37 -8 -86l-3 -55v-535h-176z" />
<glyph unicode="s" horiz-adv-x="1013" d="M72 295v14h176q0 -176 201 -217q18 0 38 -4l37 -2h17q96 0 157.5 51t61.5 146q0 55 -37 98q-45 51 -176 76l-23 4l-24 6l-64 12l-67 15q-86 18 -174 86q-80 61 -80 202q0 121 78 199q74 72 196 90l57 8l56 2q18 1 35 1q170 0 254 -72q92 -80 112 -170l8 -37l4 -35h-167 l-5 27l-6 28q-43 131 -229 131q-88 0 -143 -36q-66 -43 -66 -127q0 -90 70 -132q41 -25 153 -49l29 -6l31 -6l8 -2q186 -47 244 -84q109 -68 108 -217v-12q0 -162 -135 -248q-113 -74 -285 -74q-229 0 -334 98q-92 86 -114 224z" />
<glyph unicode="t" horiz-adv-x="641" d="M25 913v127h182v312h178v-312h217v-127h-217v-680q0 -68 20.5 -96t86.5 -28h18l20 2l37 6l35 10v-127l-24 -6l-23 -10l-74 -17l-65 -6q-109 0 -156 47q-45 55 -49 109l-4 47v749h-182z" />
<glyph unicode="u" horiz-adv-x="1148" d="M143 350v690h176v-637q0 -147 35 -217q51 -100 181 -100q219 0 274 215q12 45 14 94l4 78v567h177v-1040h-177v147q-51 -80 -127 -124q-90 -53 -161 -58l-60 -4q-17 -1 -33 -1q-125 0 -194 71q-68 72 -92 159l-15 86z" />
<glyph unicode="v" horiz-adv-x="944" d="M-6 1040h188l295 -860l287 860h188l-379 -1040h-198z" />
<glyph unicode="w" horiz-adv-x="1445" d="M-6 1040h180l248 -833l215 833h170l213 -833l252 833h182l-332 -1040h-184l-215 834l-213 -834h-188z" />
<glyph unicode="x" horiz-adv-x="970" d="M0 0l385 543l-358 497h196l262 -385l260 385h197l-356 -497l385 -543h-197l-289 428l-288 -428h-197z" />
<glyph unicode="y" horiz-adv-x="999" d="M12 1040h211l328 -841l270 841h178l-419 -1204q-31 -82 -83 -153q-49 -68 -159 -68h-12l-78 2q-45 2 -66 8v131l60 -6l28 -2h9q63 0 102 55q20 29 49 121l25 76z" />
<glyph unicode="z" horiz-adv-x="937" d="M51 0v127l611 786h-568v127h762v-127l-592 -786h623v-127h-836z" />
<glyph unicode="{" horiz-adv-x="997" d="M291 537v135h8l8 2q162 25 162 274v29l-4 55v29l-2 26v29l-2 25v28l2 50l6 51q8 76 82 159.5t223 83.5v-108q-88 -23 -125 -102l-14 -52l-2 -41v-28l2 -25v-29l4 -26l6 -90v-29q0 -133 -47 -218t-184 -153v-14q127 -57 181 -155.5t50 -217.5l-2 -59q-2 -37 -4 -57l-4 -29 v-25l-2 -28v-27q0 -137 94 -176l25 -10l22 -7v-110q-160 0 -231 92q-59 76 -78 176q0 18 -4 39v64l2 28v25l2 29l4 110l-4 68q-2 43 -12 69q-45 124 -162 140z" />
<glyph unicode="|" horiz-adv-x="937" d="M416 -459v2157h104v-2157h-104z" />
<glyph unicode="}" horiz-adv-x="997" d="M221 -195q141 31 141 195v27l-2 28l-2 25l-2 29q0 23 -4 57l-2 59q-4 119 49 219q47 90 185 154v14q-125 57 -179.5 144.5t-54.5 226.5v29l2 30v29q0 18 4 31l6 80v28q0 74 -33.5 124t-107.5 71v108q152 0 236 -98q78 -92 78 -246v-28l-3 -25l-2 -29v-26l-2 -29v-26 l-2 -29v-29q0 -131 41 -190.5t99 -77.5l18 -6l21 -2v-135q-121 -10 -160 -142l-17 -82l-2 -53v-55q0 -27 4 -55v-29l2 -25l3 -28v-27l-5 -66q0 -16 -2 -41q-2 -6 -14 -36q-53 -178 -293 -199v106z" />
<glyph unicode="~" horiz-adv-x="995" d="M141 610q23 139 129 193l41 14l37 6l17 -2h18l45 -12l43 -12l29 -13l22 -8l15 -6l16 -4l8 -4l8 -2l31 -8l25 -4q55 0 90 71h137l-12 -43l-21 -47q-57 -131 -182 -131h-21l-18 2l-61 16l-117 43l-31 7l-31 4l-20 -2l-23 -9l-20 -18l-19 -31h-135z" />
<glyph unicode="&#xa1;" horiz-adv-x="1179" d="M16 1434h232l403 -863l338 863h199l-477 -1178q-59 -147 -148 -221q-57 -41 -108 -45l-101 -8h-30l-29 2l-47 6l-49 10v168l28 -10l31 -8l37 -7l35 -2l35 2q18 2 36 11q104 39 150 202zM283 1757h147q16 -84 61.5 -123t133.5 -39q90 0 135 37t63 125h150 q-33 -154 -132.5 -212t-199.5 -58h-16q-133 0 -227.5 70.5t-114.5 199.5z" />
<glyph unicode="&#xa2;" horiz-adv-x="997" d="M12 1040h211l328 -841l270 841h176l-417 -1204q-31 -82 -83.5 -153.5t-170.5 -67.5l-78 2q-45 2 -66 8v131l60 -6l28 -2q70 -4 111 55q20 29 49 121l25 76zM182 1434h148l2 -23l8 -25q39 -115 184 -114q162 0 193 131l2 14l2 17h149l-14 -54q-25 -94 -127 -166 q-72 -51 -205 -51t-228.5 74t-113.5 197z" />
<glyph unicode="&#xa4;" horiz-adv-x="1654" d="M131 109l223 227l-20 31l-25 49q-18 37 -43 123q-16 57 -16 137q0 100 24 174q4 20 21 61l27 52l32 53l-223 229l133 135l221 -229l43 31l45 26q100 59 252 60q156 0 252 -58l45 -26l45 -33l224 229l131 -135l-222 -229l33 -53l27 -52q45 -135 45 -235q0 -98 -35 -203 q-8 -27 -22 -53l-27 -51l-21 -33l222 -227l-131 -136l-224 228l-24 -19l-31 -20q-33 -23 -117 -53q-82 -23 -170 -23q-68 0 -116 10q-78 16 -136 47l-45 25l-43 33l-221 -228zM399 676q0 -176 120 -307t294 -131h12q168 0 289 113.5t141 281.5v20l2 23q0 166 -113.5 294 t-279.5 144l-20 2h-19q-123 0 -235 -76q-90 -59 -148 -168q-10 -18 -18 -47q-2 -6 -16 -57z" />
<glyph unicode="&#xa5;" horiz-adv-x="1101" d="M170 0v1434h717v323h174l14 -485h-717v-1272h-188z" />
<glyph unicode="&#xa6;" d="M211 0v223h199v-223h-199zM211 817v223h199v-223h-199z" />
<glyph unicode="&#xa7;" horiz-adv-x="1161" d="M127 643q0 147 72 225q59 63 161 99l7 2q-106 74 -107 239q0 186 162 248q57 23 100 25l62 4l59 -4q115 -8 205 -109q57 -66 57 -231h-147q0 170 -115 202l-33 5l-28 2q-76 6 -114 -43.5t-38 -102.5q0 -94 66 -139q10 -8 155 -80l8 -4l11 -4l86 -37q276 -119 276 -379 q0 -195 -160 -291l-45 -20l-39 -14q121 -43 121 -230l-6 -55q-4 -31 -16 -66q-68 -178 -328 -178q-154 0 -225 72q-80 80 -96 158l-15 67l-2 64l150 -2v-41q0 -25 8 -39q31 -143 178 -144q137 0 176 101l6 28l2 27q6 82 -51 125q-47 37 -135 74l-29 12l-65 27l-68 30 q-90 41 -184 137q-82 84 -82 240zM297 653q0 -125 70.5 -185t177.5 -108l59 -26l62 -27l36 12l41 23q119 66 119 227q0 141 -129 211l-53 29l-31 14l-28 15l-19 10l-18 8l-43 16l-52 21q-160 -45 -190 -197l-2 -22v-21z" />
<glyph unicode="&#xa8;" horiz-adv-x="1228" d="M170 0v1434h1004v-162h-816v-451h738v-162h-738v-497h838v-162h-1026zM377 1581v162h186v-162h-186zM807 1581v162h188v-162h-188z" />
<glyph unicode="&#xa9;" horiz-adv-x="1615" d="M104 717q0 293 202 505t495 212h26l19 -2q236 0 457 -207q207 -193 206 -508q0 -315 -206 -508q-221 -207 -457 -207l-19 -2h-26q-291 0 -494 213t-203 504zM238 696l2 -18q0 -199 163 -391q152 -178 404 -178q254 0 412.5 187t158.5 402v25q0 246 -163.5 424t-407.5 178 q-260 0 -412 -184q-158 -190 -157 -406v-39zM483 719q-8 154 62 248q59 82 135 112l68 19l59 6l51 -4l60 -13q66 -20 117.5 -70t51.5 -149h-124l-2 19l-7 20q-10 33 -42.5 63.5t-104.5 30.5q-82 0 -119 -46t-55 -109l-12 -72l-3 -55l3 -47q2 -31 10 -49q14 -66 57 -115 q51 -59 129 -53l31 2q49 4 94 59q25 31 31 92h131q-18 -125 -76 -178q-63 -59 -119 -68l-49 -8l-45 -2q-137 -6 -209 66q-63 66 -98 147l-21 82z" />
<glyph unicode="&#xaa;" horiz-adv-x="1452" d="M90 733v80q2 18 8 57q0 51 31 154q135 453 619 453q236 0 387 -109q166 -121 194 -346v-6h-201q-2 27 -14 55q-27 104 -141 186q-80 57 -230 58q-385 0 -444 -412l-6 -43l-2 -41h692v-162h-692q0 -211 104 -374q117 -182 365 -164l82 6q127 10 235 147q59 76 84 226h201 l-21 -105q-4 -16 -14 -55q-6 -18 -24 -62q-141 -317 -543 -317q-496 0 -627 444q-35 117 -37 179z" />
<glyph unicode="&#xab;" horiz-adv-x="921" d="M123 473v168l299 270v-170l-213 -182l213 -188v-164zM477 471v166l295 264v-168l-209 -176l209 -188v-168z" />
<glyph unicode="&#xac;" horiz-adv-x="1218" d="M104 664v106h1008v-301h-113v195h-895z" />
<glyph unicode="&#xad;" horiz-adv-x="845" d="M158 461v174h530v-174h-530z" />
<glyph unicode="&#x2212;" horiz-adv-x="845" d="M158 461v174h530v-174h-530z" />
<glyph unicode="&#xae;" horiz-adv-x="1615" d="M104 717q0 315 207 508q221 207 457 207l18 2h27q295 0 495.5 -211t200.5 -506q0 -293 -201.5 -505t-494.5 -212h-27l-18 2q-236 0 -457 207q-207 193 -207 508zM238 688q0 -211 163 -399q156 -180 406 -180q254 0 407 180q164 193 164 399v35q0 246 -163.5 424 t-407.5 178q-252 0 -410.5 -185.5t-158.5 -404.5v-47zM551 365v716l346 -2q25 -2 37 -4q160 -35 160 -201l-4 -43q-6 -70 -115 -120q72 -20 94 -117q0 -18 4 -31l2 -28l4 -68l2 -51l13 -35l4 -8l6 -8h-135l-19 24l-12 29l-10 57l2 53v21l2 18q0 41 -24.5 68t-119.5 27h-106 v-297h-131zM682 760h149q129 0 130 114q0 109 -144 109h-135v-223z" />
<glyph unicode="&#xaf;" horiz-adv-x="643" d="M55 1583v189h215v-189h-215zM227 0v1434h189v-1434h-189zM377 1583v189h211v-189h-211z" />
<glyph unicode="&#x2c9;" horiz-adv-x="643" d="M55 1583v189h215v-189h-215zM227 0v1434h189v-1434h-189zM377 1583v189h211v-189h-211z" />
<glyph unicode="&#xb0;" horiz-adv-x="530" d="M74 1239q0 82 56 138.5t124 56.5h12q82 0 136.5 -56.5t54.5 -138.5q0 -78 -56.5 -138.5t-134.5 -60.5h-12q-74 0 -127 61.5t-53 137.5zM166 1225l4 -15q8 -31 33 -49q25 -25 63 -24q39 0 66 26q16 16 26 39q2 8 4 19l3 18l-3 12l-2 15q-4 31 -33.5 52t-60.5 21 q-41 0 -70.5 -29.5t-29.5 -70.5v-14z" />
<glyph unicode="&#xb1;" horiz-adv-x="1218" d="M104 109v108h1008v-108h-1008zM104 623v108h451v356h107v-356h450v-108h-450v-285h-107v285h-451z" />
<glyph unicode="&#xb2;" horiz-adv-x="528" d="M170 0v1434h188v-1434h-188z" />
<glyph unicode="&#xb3;" horiz-adv-x="456" d="M139 0v1040h176v-1040h-176zM139 1245v189h176v-189h-176z" />
<glyph unicode="&#xb4;" horiz-adv-x="868" d="M143 0v1040h535v273h145l19 -400h-523v-913h-176z" />
<glyph unicode="&#xb5;" horiz-adv-x="0" />
<glyph unicode="&#x3bc;" horiz-adv-x="0" />
<glyph unicode="&#xb6;" horiz-adv-x="944" d="M80 1096q0 131 91 234.5t239 103.5h104v-1813h-104v1137q-137 0 -233.5 99.5t-96.5 238.5zM705 -379v1813h104v-1813h-104z" />
<glyph unicode="&#xb7;" d="M211 436v226h199v-226h-199z" />
<glyph unicode="&#x2219;" d="M211 436v226h199v-226h-199z" />
<glyph unicode="&#xb8;" horiz-adv-x="1146" d="M86 516q0 258 113 404q125 162 372 161q489 0 490 -551v-51h-789q0 -41 4 -63l13 -68q20 -117 103 -189.5t202 -72.5q207 0 270 180q2 8 4 19l6 16h168l-4 -14l-2 -13q-31 -117 -129 -215q-111 -111 -307 -98l-100 6q-18 2 -70 15q-27 6 -80 26q-186 88 -244 305 q-20 80 -20 203zM262 1245v189h184v-189h-184zM272 606h602q-18 184 -83.5 266t-202.5 82q-201 0 -285 -192q-4 -14 -10 -33.5t-12 -54.5zM739 1245v189h185v-189h-185z" />
<glyph unicode="&#xb9;" horiz-adv-x="2242" d="M170 0v1434h209l745 -1137v1137h191v-1434h-209l-748 1137v-1137h-188zM1464 700q0 242 166 336q59 33 109 39l57 6l57 -6q41 0 107 -35q59 -33 112.5 -113.5t53.5 -226.5q0 -266 -182 -348q-39 -18 -82 -26l-66 -7l-67 7q-29 2 -84 30q-181 92 -181 344zM1491 0v152h610 v-152h-610zM1620 700q0 -100 37 -168q47 -84 139 -83q102 0 158 133q6 23 14 67l4 51l-4 50q-4 47 -14 75q-45 127 -158 127q-90 0 -137 -86q-39 -68 -39 -166z" />
<glyph unicode="&#xba;" horiz-adv-x="1110" d="M86 512q0 418 270 532q66 27 115 31l96 6q203 12 320 -92q104 -96 127 -198l8 -39q0 -20 4 -37h-168q0 111 -92 174q-106 76 -215 65l-47 -4q-94 -8 -170 -108q-61 -80 -62 -238h467v-127h-467q0 -293 181 -371q8 -4 63 -16l55 -4l52 2l57 12q59 12 114.5 74t73.5 188 h168q0 -43 -12 -79q-23 -143 -164 -248q-117 -86 -287 -74l-86 6q-39 2 -94 19q-307 88 -307 526z" />
<glyph unicode="&#xbb;" horiz-adv-x="921" d="M150 201v166l206 186l-206 180v168l294 -266v-166zM498 207v164l213 186l-213 184v172l301 -272v-168z" />
<glyph unicode="&#xc0;" horiz-adv-x="1249" d="M-6 0l528 1434h203l532 -1434h-202l-135 371h-594l-131 -371h-201zM379 532h491l-247 707z" />
<glyph unicode="&#xc1;" horiz-adv-x="1339" d="M170 0v1434h997v-162h-809v-430h433q49 0 77 -4q168 -8 295 -127q96 -90 97 -295v-23q0 -20 -5 -43l-12 -69q-76 -281 -450 -281h-623zM358 162h439l49 6q76 10 151 65q70 51 70 181q0 129 -61 184q-68 61 -144 72l-57 8l-53 2h-394v-518z" />
<glyph unicode="&#xc2;" horiz-adv-x="1382" d="M170 0v1434h616q418 0 418 -365v-8q0 -109 -63.5 -192t-169.5 -107q16 -8 26 -10q14 -8 35 -11q104 -31 180 -133q53 -74 54 -209q0 -399 -502 -399h-594zM358 162h433q49 0 96 14q55 16 98 41q88 49 88 199q0 248 -323 248h-392v-502zM358 825h379q244 0 273 197l2 14 v13q0 23 -4 43q0 29 -15 55q-49 125 -250 125h-385v-447z" />
<glyph unicode="&#xc3;" horiz-adv-x="1091" d="M170 0v1434h895v-162h-707v-1272h-188z" />
<glyph unicode="&#xc4;" horiz-adv-x="1480" d="M0 162h125q143 186 205 448q35 147 41 271l14 258l8 295h858v-1272h203l-18 -486h-164v324h-1092v-324h-166zM350 162h713v1110h-481l-9 -211q0 -168 -38 -434q-33 -221 -185 -465z" />
<glyph unicode="&#xc5;" horiz-adv-x="1226" d="M170 0v1434h1001v-162h-813v-451h738v-162h-738v-497h836v-162h-1024z" />
<glyph unicode="&#xc6;" horiz-adv-x="1820" d="M-6 0l645 768l-621 666h226l571 -631v631h189v-631l573 631h225l-620 -666l647 -768h-227l-598 715v-715h-189v715l-596 -715h-225z" />
<glyph unicode="&#xc7;" horiz-adv-x="1337" d="M90 440h189q0 -117 92 -223q84 -98 307 -98q268 0 334 186l12 51l4 47l-2 46q-2 29 -10 49q-53 176 -309 176h-185v162h168q283 0 283 227q0 252 -324 252q-252 0 -325 -172l-19 -58l-4 -49h-188q0 178 100 281q106 111 270 147q29 6 70 9l111 4l98 -7q20 0 59 -4 q10 -2 68 -20q276 -86 276 -371q0 -119 -62.5 -205t-176.5 -106q176 -43 235 -148q70 -121 60 -231l-7 -72q-4 -39 -16 -75q-98 -279 -508 -279q-336 0 -465 143q-135 150 -135 338z" />
<glyph unicode="&#xc8;" horiz-adv-x="1466" d="M170 0v1434h188v-1153l748 1153h190v-1434h-190v1161l-748 -1161h-188z" />
<glyph unicode="&#xc9;" horiz-adv-x="1466" d="M170 0v1434h188v-1153l748 1153h190v-1434h-190v1161l-748 -1161h-188zM389 1757h148q14 -78 60 -120t136 -42q152 0 187 119l6 21l2 22h151q-53 -270 -346 -270q-215 0 -307 158l-25 59z" />
<glyph unicode="&#xca;" horiz-adv-x="1257" d="M170 0v1434h188v-654l633 654h230l-668 -664l713 -770h-248l-660 748v-748h-188z" />
<glyph unicode="&#xcb;" horiz-adv-x="1406" d="M25 0v168q6 0 12 -4h14l12 -2h15q279 0 278 655v617h881v-1434h-188v1272h-504v-496q0 -467 -133 -624q-139 -166 -301 -158l-43 2q-29 2 -43 4z" />
<glyph unicode="&#xcc;" horiz-adv-x="1785" d="M170 0v1434h283l440 -1180l438 1180h283v-1434h-189l5 1204l-461 -1204h-154l-457 1204v-1204h-188z" />
<glyph unicode="&#xcd;" horiz-adv-x="1423" d="M170 0v1434h188v-598h707v598h188v-1434h-188v674h-707v-674h-188z" />
<glyph unicode="&#xce;" horiz-adv-x="1519" d="M90 717q0 336 164 538q178 221 506 222q332 0 508 -220q162 -201 162 -540q0 -342 -162 -541q-174 -217 -508 -217t-508 217q-162 199 -162 541zM291 717l6 -115q12 -215 158 -375q98 -109 305 -108q246 0 366 182q102 156 103 416q0 252 -76 370q-125 199 -299 218 l-94 10q-33 0 -67 -2t-77 -19q-125 -35 -223 -161q-116 -150 -102 -416z" />
<glyph unicode="&#xcf;" horiz-adv-x="1429" d="M170 0v1434h1090v-1434h-189v1272h-713v-1272h-188z" />
<glyph unicode="&#xd0;" horiz-adv-x="1282" d="M170 0v1434h571q475 0 476 -412q0 -451 -494 -451h-365v-571h-188zM358 733h344q322 0 322 285q0 254 -322 254h-344v-539z" />
<glyph unicode="&#xd1;" horiz-adv-x="1427" d="M90 692l8 150q6 104 54 233q147 401 600 402q528 0 581 -486h-188q0 23 -8 51l-17 56q-86 217 -368 217q-408 0 -455 -490l-6 -63v-62q0 -238 117 -399q129 -182 358 -182q266 0 369 227q29 63 28 129h189q0 -31 -18.5 -97.5t-39.5 -111.5q-143 -307 -536 -307 q-340 0 -504 209q-82 104 -123 235q-49 154 -41 289z" />
<glyph unicode="&#xd2;" horiz-adv-x="1153" d="M25 1272v162h1101v-162h-454v-1272h-189v1272h-458z" />
<glyph unicode="&#xd3;" horiz-adv-x="1179" d="M16 1434h232l403 -863l338 863h199l-477 -1178q-59 -147 -148 -221q-57 -41 -108 -45l-101 -8h-30l-29 2l-47 6l-49 10v168l61 -16l70 -7l43 2q31 2 49 15q80 33 129 194z" />
<glyph unicode="&#xd4;" horiz-adv-x="1785" d="M84 731q0 410 365 526q92 29 145 33l125 8h80v218h188v-218h150q63 -8 196 -38q369 -117 369 -529q0 -387 -334 -516q-104 -41 -176 -45l-127 -8h-78v-215h-188v215h-135q-27 4 -70 8q-55 0 -152 35q-358 129 -358 526zM285 731l2 -76q4 -141 139 -260q94 -82 319 -82h54 v834h-54q-356 0 -438 -252l-18 -88zM987 313h109q29 4 30 4q37 0 99 17q276 74 276 397q0 319 -278 395q-33 4 -97 17l-86 4h-53v-834z" />
<glyph unicode="&#xd5;" horiz-adv-x="1216" d="M0 0l492 733l-467 701h235l352 -564l359 564h217l-463 -697l492 -737h-238l-369 596l-368 -596h-242z" />
<glyph unicode="&#xd6;" horiz-adv-x="1482" d="M170 0v1434h188v-1272h713v1272h189v-1272h196l-14 -486h-164v324h-1108z" />
<glyph unicode="&#xd7;" horiz-adv-x="1275" d="M115 983v451h188l2 -420q0 -154 76 -199q86 -51 262 -45l68 2h53q10 2 27 4l124 8v650h189v-1434h-189v623l-45 -5l-57 -2l-63 -4h-37q-10 0 -43 -4h-64q-254 0 -356 62q-135 80 -135 313z" />
<glyph unicode="&#xd8;" horiz-adv-x="2041" d="M170 0v1434h188v-1272h568v1272h188v-1272h569v1272h189v-1434h-1702z" />
<glyph unicode="&#xd9;" horiz-adv-x="2107" d="M170 0v1434h188v-1272h568v1272h188v-1272h569v1272h189v-1272h209l-19 -486h-164v324h-1728z" />
<glyph unicode="&#xda;" horiz-adv-x="1636" d="M170 1272v162h494v-584h403l88 -6q160 -10 283 -150q82 -92 82 -274q0 -199 -95 -285q-106 -98 -213 -119l-75 -14l-70 -2h-592v1272h-305zM664 162h380l58 4q111 20 178 98q47 55 47 162q0 262 -309 262h-354v-526z" />
<glyph unicode="&#xdb;" horiz-adv-x="1720" d="M170 0v1434h188v-584h406l82 -6q66 -4 141 -37q227 -96 227 -387q0 -203 -96 -291q-109 -100 -219 -117l-70 -10l-65 -2h-594zM358 162h379l56 4q100 8 178 94q51 57 51 166q0 262 -307 262h-357v-526zM1362 0v1434h188v-1434h-188z" />
<glyph unicode="&#xdc;" horiz-adv-x="1280" d="M170 0v1434h188v-584h404l88 -6q39 -2 106 -25q258 -84 258 -399q0 -199 -94 -285q-106 -98 -213 -119l-76 -14l-69 -2h-592zM358 162h381l58 4q111 20 178 98q47 55 47 162q0 262 -307 262h-357v-526z" />
<glyph unicode="&#xdd;" horiz-adv-x="1441" d="M90 498h189l12 -62l20 -65q104 -252 387 -252q344 0 432 330l19 110l2 100h-662v162h662q0 -20 -12 115q-2 27 -25 88q-104 291 -414 291q-158 0 -264 -72q-117 -78 -137 -227h-190q0 178 159 325q147 135 414 136q270 0 426 -126t219 -388q2 -8 16 -91l9 -139v-67 q-2 -33 -5.5 -87.5t-39.5 -179.5q-131 -440 -617 -440q-393 0 -543 322l-41 114z" />
<glyph unicode="&#xde;" horiz-adv-x="1992" d="M170 0v1434h188v-598h211q0 47 9 82q4 45 20 86q63 229 227 351t404 122q328 0 508 -220q166 -205 166 -540q0 -342 -164 -541q-176 -217 -510 -217q-299 0 -438 147q-158 166 -193 328l-27 123l-10 117h-203v-674h-188zM762 668l4 -47q6 -59 31 -175q33 -88 86 -172 q98 -156 348 -155q346 0 440 348q23 80 25 135l6 115q14 268 -98 411q-98 125 -224 164q-20 6 -77 17l-72 6h-51l-82 -17q-33 -8 -82 -32q-254 -129 -254 -549v-49z" />
<glyph unicode="&#xdf;" horiz-adv-x="1370" d="M170 0l381 590l-51 6l-56 12q-86 18 -184 120.5t-90 277.5l4 77q8 154 156 269q104 82 323 82h600v-1434h-188v569h-320l-344 -569h-231zM362 997q0 -266 334 -266h369v541h-395q-227 0 -291 -166l-14 -53z" />
<glyph unicode="&#xe0;" horiz-adv-x="1107" d="M74 272q-8 115 86 211q88 92 413 119l48 4q63 0 114 27q37 18 37 112q0 147 -119 193q-35 12 -63 14l-49 2l-54 -2q-14 0 -38 -2q-4 0 -35 -14q-135 -43 -135 -203h-170v21l2 20q0 104 106 211q96 96 326 96q313 0 387 -211q12 -33 14 -75l4 -64l-10 -481 q-2 -72 17.5 -97.5t88.5 -25.5v-127h-8l-8 -2l-29 -2l-34 -2q-88 -6 -128 27.5t-55 121.5q-31 -57 -71 -90q-10 -8 -39 -26q-86 -53 -162 -60l-78 -6q-135 -10 -225 49q-76 51 -105 115q-18 41 -24 84zM256 279l4 -39q2 -27 16 -52q47 -102 177 -102q211 0 284 195 q2 8 13 38q4 18 10 54l8 71l4 88l-8 -6l-6 -4l-45 -18l-62 -10h-12q-123 0 -274 -52q-109 -36 -109 -163z" />
<glyph unicode="&#xe1;" horiz-adv-x="1224" d="M115 662q0 383 104 536q123 182 475 221q102 10 117 15q72 18 88 67h150q0 -178 -222 -219l-65 -12l-57 -6q-172 -18 -308 -90q-154 -82 -153 -365q6 10 14 27q4 8 14 24q37 90 162 170q82 51 209 51q199 0 343 -136t144 -441q0 -254 -138 -398.5t-363 -144.5h-45 q-45 6 -92 14q-39 6 -91 33q-286 146 -286 654zM301 500q0 -96 14 -160q39 -170 177 -229l71 -21l62 -4l61 4q41 2 74 21q131 55 170 219q14 59 14 162v51q-4 20 -4 24q0 37 -8 82q-55 305 -307 305l-60 -6q-121 -12 -211 -176q-53 -96 -53 -272z" />
<glyph unicode="&#xe2;" horiz-adv-x="1081" d="M143 0v1040l549 -2q125 -4 207 -82q53 -51 53 -163q0 -74 -37 -138q-39 -70 -104 -92l-23 -8l-20 -6q117 -33 170 -97.5t53 -181.5q0 -270 -368 -270h-480zM319 127l306 2q84 4 145 57q37 33 37 101q0 141 -127 180l-59 10l-48 2h-254v-352zM319 606h246q147 0 201 107 l6 26l2 27q6 68 -31.5 98.5t-78.5 40.5l-52 6l-39 2h-254v-307z" />
<glyph unicode="&#xe3;" horiz-adv-x="868" d="M143 0v1040h699v-127h-523v-913h-176z" />
<glyph unicode="&#xe4;" horiz-adv-x="1208" d="M0 127h127q37 51 72 131q27 59 51 156q33 123 37 237l8 215v174h729v-913h178l-14 -397h-150v270h-874v-270h-150zM313 127h535v786h-389v-217q-4 -33 -4 -37q0 -150 -58 -340q-35 -118 -84 -192z" />
<glyph unicode="&#xe5;" horiz-adv-x="1142" d="M86 516q0 260 117 406q127 160 381 159q272 0 368 -168q51 -90 78 -193.5t27 -240.5h-785l7 -73l18 -82q18 -78 94 -162q70 -76 205 -76q106 0 184 56.5t99 158.5h168l-17 -61q-8 -35 -24 -64q-41 -80 -134 -145q-109 -80 -270 -70l-100 6q-18 2 -67.5 14.5t-82.5 26.5 q-190 82 -246 303q-20 80 -20 205zM272 606h598l-6 66q0 12 -4 41q-4 12 -10 32q-20 74 -79.5 141.5t-182.5 67.5q-129 0 -210 -73.5t-102 -202.5q0 -20 -4 -37v-35z" />
<glyph unicode="&#xe6;" horiz-adv-x="1406" d="M-6 0l465 547l-443 493h209l389 -471v471h179v-471l389 471h209l-443 -493l467 -547h-217l-405 514v-514h-179v514l-405 -514h-215z" />
<glyph unicode="&#xe7;" horiz-adv-x="1036" d="M63 319h168v-22l5 -23q12 -66 77.5 -127t188.5 -61q129 0 200.5 54.5t65.5 150.5l-2 35q-2 20 -10 39q-41 113 -219 112h-150v127h158q20 0 30 4q59 8 109.5 43t44.5 115l-2 31q0 12 -8 32q-31 125 -219 125q-176 0 -219 -112l-19 -49l-4 -39h-168q0 20 4 37l6 38 q66 252 408 252q315 0 387 -204l12 -52l4 -47q8 -84 -41 -141q-41 -49 -88 -72l-24 -8l-23 -6l29 -12l29 -11q158 -55 157 -249l-6 -60q-12 -113 -143 -196q-115 -74 -285 -62l-90 6q-66 4 -123 27q-160 43 -217 196q-23 59 -23 129z" />
<glyph unicode="&#xe8;" horiz-adv-x="1193" d="M143 0v1040h176v-829l533 829h197v-1040h-177v831l-530 -831h-199z" />
<glyph unicode="&#xe9;" horiz-adv-x="1193" d="M143 0v1040h176v-829l533 829h197v-1040h-177v831l-530 -831h-199zM248 1434h147q25 -145 160 -160l18 -2h19q82 0 138 42t56 120h150l-14 -52q-27 -96 -123 -168q-70 -51 -207 -51q-221 0 -311 170q-16 33 -27 70l-4 14z" />
<glyph unicode="&#xea;" horiz-adv-x="980" d="M143 0v1040h176v-454l437 454h207l-478 -483l504 -557h-211l-459 520v-520h-176z" />
<glyph unicode="&#xeb;" horiz-adv-x="1122" d="M25 0v133l26 -4l25 -2q129 -10 164 162q31 154 30 360v391h709v-1040h-176v913h-367v-264q0 -252 -49 -450q-53 -215 -274 -205l-41 2z" />
<glyph unicode="&#xec;" horiz-adv-x="1468" d="M143 0v1040h244l346 -845l348 845h242v-1040h-176l6 836l-350 -836h-137l-347 836v-836h-176z" />
<glyph unicode="&#xed;" horiz-adv-x="1144" d="M143 0v1040h176v-428h504v428h178v-1040h-178v485h-504v-485h-176z" />
<glyph unicode="&#xee;" horiz-adv-x="1173" d="M86 522q0 254 121 402q131 158 379 157q246 0 379 -159q123 -150 122 -400q0 -250 -124 -399q-133 -162 -377 -162q-246 0 -377 162q-123 149 -123 399zM272 473l7 -49q43 -338 307 -338q160 0 227 104q72 113 82 234l4 49l2 49l-4 92q-4 117 -82 234q-70 106 -229 106 q-268 0 -310 -346q0 -25 -4 -45v-90z" />
<glyph unicode="&#xef;" horiz-adv-x="1157" d="M143 0v1040h869v-1040h-176v913h-517v-913h-176z" />
<glyph unicode="&#xf0;" horiz-adv-x="1198" d="M143 -379v1419h168l-2 -141q139 182 342 182q231 0 353 -170q106 -152 106 -391q0 -238 -104 -387q-121 -172 -351 -172h-12q-221 0 -324 189v-529h-176zM307 516q0 -223 97.5 -326.5t218.5 -103.5q162 0 239 143q61 115 62 291q0 221 -86 327.5t-226 106.5 q-49 0 -100 -18q-205 -74 -205 -420z" />
<glyph unicode="&#xf1;" horiz-adv-x="1099" d="M86 528v43q0 29 4 52l19 104q20 117 135 242q104 113 327 112q209 0 310 -98q106 -104 129 -223l8 -45h-168l-6 24q0 10 -4 25q-59 190 -265 190q-176 0 -239.5 -133t-63.5 -293v-34l2 -33q8 -135 82 -255t232 -120q172 0 246 170l16 59l8 56h168l-10 -66l-19 -69 q-27 -98 -131 -191q-96 -84 -282 -84q-369 0 -467 334q-23 74 -25 125z" />
<glyph unicode="&#xf2;" horiz-adv-x="933" d="M25 913v127h882v-127h-352v-913h-176v913h-354z" />
<glyph unicode="&#xf3;" horiz-adv-x="999" d="M12 1040h211l328 -841l270 841h178l-419 -1204q-31 -82 -83.5 -153.5t-170.5 -67.5l-78 2q-45 2 -66 8v131l60 -6l28 -2q70 -4 111 55q20 29 49 121l25 76z" />
<glyph unicode="&#xf4;" horiz-adv-x="1593" d="M86 526v60q4 39 20 110q4 20 23 68q45 117 176 213q119 88 402 88v369h178v-369h4l117 -6q242 -12 401 -197q98 -113 98 -336q0 -281 -178 -424q-162 -127 -442 -127v-354h-178v352q-242 0 -402 103q-184 117 -211 344l-6 53zM272 528q0 -295 242 -395q33 -12 107 -27 l86 -6v838l-82 -2q-27 0 -93 -16q-260 -77 -260 -392zM885 100q332 0 409 260l19 89l6 79q14 176 -80 277q-80 86 -182 117q-43 12 -92 14l-80 2v-838z" />
<glyph unicode="&#xf5;" horiz-adv-x="970" d="M0 0l385 543l-358 497h196l262 -385l260 385h197l-356 -497l385 -543h-197l-289 428l-288 -428h-197z" />
<glyph unicode="&#xf6;" horiz-adv-x="1196" d="M143 0v1040h176v-913h515v913h176v-913h178l-14 -397h-150v270h-881z" />
<glyph unicode="&#xf7;" horiz-adv-x="1017" d="M90 676v364h176v-329q0 -111 62 -142q41 -18 170 -18h32l66 4h35l10 2h57v483h176v-1040h-176v430q-45 0 -77 -4l-70 -2h-90q-188 0 -262 37q-109 53 -109 215z" />
<glyph unicode="&#xf8;" horiz-adv-x="1669" d="M143 0v1040h176v-913h426v913h177v-913h426v913h176v-1040h-1381z" />
<glyph unicode="&#xf9;" horiz-adv-x="1705" d="M143 0v1040h176v-913h426v913h177v-913h426v913h176v-913h174l-17 -397h-149v270h-1389z" />
<glyph unicode="&#xfa;" horiz-adv-x="1183" d="M25 913v127h442v-411l334 -2q59 -2 98 -15q84 -18 157.5 -83.5t73.5 -217.5q0 -311 -346 -311h-493v913h-266zM467 127l291 2q33 2 51 8q139 33 139 187q0 100 -51 133q-61 41 -123 43l-43 2h-264v-375z" />
<glyph unicode="&#xfb;" horiz-adv-x="1431" d="M143 0v1040h176v-411l338 -2q330 -8 330 -316q0 -150 -69 -213q-80 -74 -160 -86l-64 -10l-57 -2h-494zM319 127l293 2q35 2 56 10q135 33 135 185q0 160 -164 174l-49 4h-271v-375zM1110 0v1040h178v-1040h-178z" />
<glyph unicode="&#xfc;" horiz-adv-x="1030" d="M143 0v1040h176v-413l336 -2q57 -2 116.5 -15.5t139.5 -81.5q74 -63 74 -204v-21l-2 -20q0 -100 -79 -191.5t-269 -91.5h-492zM319 127l293 2q84 4 150 68q41 39 41 127q0 166 -182 174l-41 2h-261v-373z" />
<glyph unicode="&#xfd;" horiz-adv-x="1107" d="M74 360h168q18 -139 96 -206.5t201 -67.5q238 0 286 268q4 35 6 47l5 76h-439v127h439q0 147 -60.5 231.5t-122.5 100.5l-57 14l-49 4q-109 8 -203 -61q-82 -61 -94 -178h-168q0 20 4 37l10 39q29 106 123 198q109 104 309 92l97 -6q4 0 59 -8q150 -43 250 -178 q88 -119 88 -377q0 -440 -307 -528q-31 -4 -92 -17l-84 -6l-68 2h-31q-14 4 -37 8q-280 57 -329 389z" />
<glyph unicode="&#xfe;" horiz-adv-x="1564" d="M143 0v1040h176v-428h162l11 68l18 72q29 115 148.5 226.5t318.5 102.5l47 -2l49 -6q147 -18 276.5 -145t129.5 -406q0 -250 -123 -399q-131 -162 -375 -162q-211 0 -319 105q-115 111 -146 231l-24 96l-11 92h-162v-485h-176zM668 522l4 -86q2 -45 18 -104 q68 -246 291 -246q168 0 248 141q63 113 63 295q0 432 -311 432q-268 0 -309 -340q0 -27 -4 -47v-45z" />
<glyph unicode="&#xff;" horiz-adv-x="1069" d="M74 713v20l2 21q0 98 82 196q76 90 258 90h508v-1040h-176v410h-209l-267 -410h-194l276 412q-33 0 -55 8q-20 2 -68 24q-98 45 -137 140q-20 53 -20 129zM256 719l2 -33l12 -37q37 -113 230 -112h248v376l-295 -2q-88 -4 -145.5 -51t-51.5 -141z" />
<glyph unicode="&#x152;" horiz-adv-x="2746" d="M1690 0v1434h1001v-162h-813v-451h738v-162h-738v-497h836v-162h-1024zM90 717q0 336 164 538q178 221 506 222q332 0 508 -220q162 -201 162 -540q0 -342 -162 -541q-174 -217 -508 -217t-508 217q-162 199 -162 541zM289 774q0 -28 2 -57l6 -115q12 -215 158 -375 q97 -108 301 -108h4q246 0 366 182q102 156 103 416q0 252 -76 370q-125 199 -299 218l-94 10q-33 0 -67 -2t-77 -19q-125 -35 -223 -161q-104 -133 -104 -359z" />
<glyph unicode="&#x153;" horiz-adv-x="2316" d="M1260 516q0 260 117 406q126 159 378 159h3q272 0 368 -168q51 -90 78 -193.5t27 -240.5h-785l7 -73l18 -82q18 -78 94 -162q70 -76 205 -76q106 0 184 56.5t99 158.5h168l-17 -61q-8 -35 -24 -64q-41 -80 -134 -145q-96 -71 -234 -71q-18 0 -36 1l-100 6 q-18 2 -67.5 14.5t-82.5 26.5q-190 82 -246 303q-20 80 -20 205zM1446 606h598l-6 66q0 12 -4 41q-4 12 -10 32q-20 74 -79.5 141.5t-182.5 67.5q-129 0 -210 -73.5t-102 -202.5q0 -20 -4 -37v-35zM86 522q0 254 121 402q130 157 376 157h3q246 0 379 -159 q122 -149 122 -396q0 -254 -124 -403q-133 -162 -377 -162q-246 0 -377 162q-123 149 -123 399zM272 473l7 -49q43 -338 307 -338q160 0 227 104q72 113 82 234l4 49l2 49l-4 92q-4 117 -82 234q-70 106 -229 106q-268 0 -310 -346q0 -25 -4 -45v-90z" />
<glyph unicode="&#x178;" horiz-adv-x="1212" d="M94 1599v1434h1004v-162h-816v-451h738v-162h-738v-497h838v-162h-1026zM301 3180v162h186v-162h-186zM731 3180v162h188v-162h-188zM-6 1434h221l391 -664l391 664h224l-519 -836v-598h-190v598z" />
<glyph unicode="&#x2c6;" horiz-adv-x="999" d="M111 1151l200 283h373l203 -283h-150l-239 211l-240 -211h-147z" />
<glyph unicode="&#x2dc;" horiz-adv-x="702" d="M-355 135q23 139 129 193l41 14l37 6l17 -2h18l45 -12l43 -12l29 -13l22 -8l15 -6l16 -4l8 -4l8 -2l31 -8l25 -4q55 0 90 71h137l-12 -43l-21 -47q-57 -131 -182 -131h-21l-18 2l-61 16l-117 43l-31 7l-31 4l-20 -2l-23 -9l-20 -18l-19 -31h-135z" />
<glyph unicode="&#x2000;" horiz-adv-x="1671" />
<glyph unicode="&#x2001;" horiz-adv-x="3342" />
<glyph unicode="&#x2002;" horiz-adv-x="1671" />
<glyph unicode="&#x2003;" horiz-adv-x="3342" />
<glyph unicode="&#x2004;" horiz-adv-x="1114" />
<glyph unicode="&#x2005;" horiz-adv-x="835" />
<glyph unicode="&#x2006;" horiz-adv-x="557" />
<glyph unicode="&#x2007;" horiz-adv-x="557" />
<glyph unicode="&#x2008;" horiz-adv-x="417" />
<glyph unicode="&#x2009;" horiz-adv-x="668" />
<glyph unicode="&#x200a;" horiz-adv-x="185" />
<glyph unicode="&#x2010;" horiz-adv-x="845" d="M158 461v174h530v-174h-530z" />
<glyph unicode="&#x2011;" horiz-adv-x="845" d="M158 461v174h530v-174h-530z" />
<glyph unicode="&#x2012;" horiz-adv-x="845" d="M158 461v174h530v-174h-530z" />
<glyph unicode="&#x2013;" horiz-adv-x="1669" d="M-51 481v127h1771v-127h-1771z" />
<glyph unicode="&#x2014;" horiz-adv-x="1218" d="M104 664v106h1008v-106h-1008z" />
<glyph unicode="&#x2018;" d="M211 946v244q0 121 43 185.5t156 99.5v-113q-61 -18 -84 -70q-16 -37 -17 -112v-9h101v-225h-199z" />
<glyph unicode="&#x2019;" d="M211 905v111q100 31 100 129v65h-100v224h199v-293q0 -88 -56.5 -153t-142.5 -83z" />
<glyph unicode="&#x201a;" d="M211 0v223h199l-2 -319l-7 -33q-25 -127 -190 -172v111q41 6 68 43q27 27 32 73v74h-100z" />
<glyph unicode="&#x201c;" horiz-adv-x="845" d="M158 946v271q0 72 39 149q37 72 159 109v-113q-68 -18 -86 -72q-14 -66 -14 -110v-9h100v-225h-198zM489 946v271q0 72 39 149q37 72 160 109v-113q-68 -18 -86 -72q-14 -66 -14 -110v-9h100v-225h-199z" />
<glyph unicode="&#x201d;" horiz-adv-x="845" d="M158 905v111l6 2l8 4q25 8 59 43q27 33 27 80v65h-100v224h198v-293q0 -90 -55 -154t-143 -82zM489 905v111l7 2l8 4q25 8 59 43q27 33 27 80v65h-101v224h199v-293q0 -88 -56.5 -153t-142.5 -83z" />
<glyph unicode="&#x201e;" horiz-adv-x="845" d="M158 0v223h198v-293q0 -78 -46 -139t-152 -92v111q41 8 70.5 44.5t29.5 77.5v68h-100zM489 0v223h199v-293q0 -174 -199 -231v111q41 8 71 44.5t30 77.5v68h-101z" />
<glyph unicode="&#x2022;" horiz-adv-x="1404" d="M528 707v10q0 74 50.5 125t123.5 51h11q55 0 108 -50t53 -126q0 -74 -49 -125t-123 -51q-78 0 -123 49t-51 117z" />
<glyph unicode="&#x2026;" horiz-adv-x="1867" d="M211 0v223h199v-223h-199zM834 0v223h198v-223h-198zM1456 0v223h199v-223h-199z" />
<glyph unicode="&#x202f;" horiz-adv-x="668" />
<glyph unicode="&#x2039;" horiz-adv-x="573" d="M123 473v168l299 270v-170l-213 -182l213 -188v-164z" />
<glyph unicode="&#x203a;" horiz-adv-x="575" d="M150 207v164l215 186l-215 184v172l301 -272v-168z" />
<glyph unicode="&#x205f;" horiz-adv-x="835" />
<glyph unicode="&#x2122;" horiz-adv-x="1726" d="M39 1321v113h604v-113h-227v-604h-150v604h-227zM801 717v717h200l189 -494l16 -72h8l17 72l188 494h201v-717h-150v457l9 92h-11l-206 -549h-105l-205 549h-10l8 -92v-457h-149z" />
<glyph unicode="&#xe000;" horiz-adv-x="1040" d="M0 1040h1040v-1040h-1040v1040z" />
<glyph unicode="&#xfb01;" horiz-adv-x="1095" d="M778 0v1040h176v-1040h-176zM778 1245v189h176v-189h-176zM25 913v127h188v142q0 145 74 202q75 58 176 58h20l35 -2l94 -6v-127h-22l-6 2h-41l-8 2h-33l-13 -2q-45 -8 -62 -28.5t-28 -49.5l-8 -35v-156h221v-127h-221v-913h-178v913h-188z" />
<glyph unicode="&#xfb02;" horiz-adv-x="1103" d="M782 0v1434h176v-1434h-176zM25 913v127h188v142q0 145 74 202q75 58 176 58h20l35 -2l94 -6v-127h-22l-6 2h-41l-8 2h-33l-13 -2q-45 -8 -62 -28.5t-28 -49.5l-8 -35v-156h221v-127h-221v-913h-178v913h-188z" />
<glyph unicode="&#xfb03;" horiz-adv-x="1734" d="M1417 0v1040h176v-1040h-176zM1417 1245v189h176v-189h-176zM664 913v127h188v142q0 145 74 202q75 58 176 58h20l35 -2l94 -6v-127h-22l-6 2h-41l-8 2h-33l-13 -2q-45 -8 -62 -28.5t-28 -49.5l-8 -35v-156h221v-127h-221v-913h-178v913h-188zM25 913v127h188v142 q0 145 74 202q75 58 176 58h20l35 -2l94 -6v-127h-22l-6 2h-41l-8 2h-33l-13 -2q-45 -8 -62 -28.5t-28 -49.5l-8 -35v-156h221v-127h-221v-913h-178v913h-188z" />
<glyph unicode="&#xfb04;" horiz-adv-x="1742" d="M1421 0v1434h176v-1434h-176zM664 913v127h188v142q0 145 74 202q75 58 176 58h20l35 -2l94 -6v-127h-22l-6 2h-41l-8 2h-33l-13 -2q-45 -8 -62 -28.5t-28 -49.5l-8 -35v-156h221v-127h-221v-913h-178v913h-188zM25 913v127h188v142q0 145 74 202q75 58 176 58h20l35 -2 l94 -6v-127h-22l-6 2h-41l-8 2h-33l-13 -2q-45 -8 -62 -28.5t-28 -49.5l-8 -35v-156h221v-127h-221v-913h-178v913h-188z" />
</font>
</defs>
</svg>
