<?xml version="1.0" standalone="no"?>
<!DOCTYPE svg PUBLIC "-//W3C//DTD SVG 1.1//EN" "http://www.w3.org/Graphics/SVG/1.1/DTD/svg11.dtd" >
<svg xmlns="http://www.w3.org/2000/svg">
<metadata>
This is a custom SVG webfont generated by Font Squirrel.
Copyright   :  2000 2004 Adobe Systems Incorporated All Rights Reserved US Patent D454582
Designer    : Robert Slimbach and Carol Twombly
Foundry URL : httpwwwadobecomtype
</metadata>
<defs>
<font id="webfontOtLQ4vAf" horiz-adv-x="614" >
<font-face units-per-em="2048" ascent="1536" descent="-512" />
<missing-glyph horiz-adv-x="434" />
<glyph unicode="ffj" horiz-adv-x="1656" d="M1444 1413l-53 -135q-84 53 -201 53q-248 0 -248 -291v-49h578v-903q0 -287 -119 -407q-55 -55 -141 -84t-166 -29l-19 141q137 10 197 76q39 43 53 121t14 252v696h-395v-854h-180v854h-418v-854h-178v854h-139v137h139v35q0 213 119 330q96 96 254 96q92 0 174 -45 l-49 -133q-57 35 -125 35q-82 0 -129 -52q-66 -72 -66 -231v-35h418v53q0 199 113.5 316t320.5 117q154 -1 246 -64z" />
<glyph unicode="fj" horiz-adv-x="1069" d="M346 0h-178v854h-139v137h139v53q0 199 112.5 316t319.5 117q70 0 141.5 -18.5t110.5 -47.5l-51 -137q-80 57 -209 57q-246 0 -246 -291v-49h576v-903q0 -287 -119 -407q-55 -55 -141.5 -84t-165.5 -29l-19 141q137 10 197 76q39 43 54 122t15 251v696h-397v-854z" />
<glyph unicode="&#xfb00;" horiz-adv-x="1193" d="M942 0h-180v854h-416v-854h-178v854h-139v137h139v29q0 227 111 338q90 94 249 94q76 0 142 -35l-37 -135q-49 27 -107 27q-180 0 -180 -277v-41h416v47q0 236 117 346q94 92 239 93q84 0 154 -29l-23 -139q-53 23 -116 22q-193 0 -193 -287v-53h240v-137h-238v-854z" />
<glyph unicode="&#xfb01;" horiz-adv-x="1071" d="M346 0h-178v854h-139v137h139v53q0 199 112.5 316t319.5 117q70 0 141.5 -18.5t110.5 -47.5l-51 -137q-80 57 -209 57q-246 0 -246 -291v-49h576v-991h-179v854h-397v-854z" />
<glyph unicode="&#xfb02;" horiz-adv-x="1071" d="M346 0h-178v854h-139v137h139v43q0 219 139 342q119 100 318 101q178 0 297 -66v-1411h-179v1311q-49 27 -147 26q-131 0 -190.5 -81.5t-59.5 -215.5v-49h232v-137h-232v-854z" />
<glyph unicode="&#xfb03;" horiz-adv-x="1669" d="M1444 1413l-53 -135q-84 53 -201 53q-248 0 -248 -291v-49h578v-991h-181v854h-395v-854h-180v854h-418v-854h-178v854h-139v137h139v35q0 213 119 330q96 96 254 96q92 0 174 -45l-49 -133q-57 35 -125 35q-82 0 -129 -52q-66 -72 -66 -231v-35h418v53q0 199 113.5 316 t320.5 117q154 -1 246 -64z" />
<glyph unicode="&#xfb04;" horiz-adv-x="1669" d="M715 1413l-47 -135q-55 31 -123 31q-86 0 -133 -54q-66 -68 -66 -227v-37h418v43q0 217 141 342q117 100 318 101q176 0 297 -66v-1411h-179v1311q-53 27 -149 26q-131 0 -190.5 -81.5t-59.5 -215.5v-49h234v-137h-232v-854h-180v854h-418v-854h-178v854h-139v137h139v23 q0 225 115 338q100 100 268 100q90 0 164 -39z" />
<glyph unicode=" "  horiz-adv-x="434" />
<glyph unicode="&#x09;" horiz-adv-x="434" />
<glyph unicode="&#xa0;" horiz-adv-x="434" />
<glyph unicode="!" horiz-adv-x="471" d="M305 397h-139l-29 983h197zM236 -23h-3q-51 0 -84.5 37t-33.5 90q0 55 33.5 91t87.5 36q55 0 87.5 -35.5t32.5 -91t-32.5 -91.5t-87.5 -36z" />
<glyph unicode="&#x22;" horiz-adv-x="690" d="M104 1417h179l-35 -491h-111zM410 1417h178l-35 -491h-109z" />
<glyph unicode="#" horiz-adv-x="1017" d="M385 522h213l39 297h-213zM313 0h-123l54 401h-168v121h186l39 297h-176v121h194l54 391h119l-52 -391h213l54 391h120l-51 -391h168v-121h-186l-37 -297h176v-121h-195l-53 -401h-123l54 401h-213z" />
<glyph unicode="$" horiz-adv-x="1050" d="M575 -176h-129v207q-193 4 -313 90l49 137q133 -88 295 -88q109 0 176.5 56.5t67.5 144.5q0 82 -56.5 139t-175.5 104q-170 68 -253.5 148t-83.5 207t83.5 217t225.5 112v207h127v-198q154 -4 266 -72l-51 -135q-123 70 -258 69q-109 0 -163 -53t-54 -123q0 -76 56 -126 t198 -107q164 -66 240.5 -154t76.5 -221q0 -127 -86 -225.5t-238 -122.5v-213z" />
<glyph unicode="%" horiz-adv-x="1622" d="M383 1354h2q141 0 224 -104.5t83 -293.5q0 -201 -91 -310t-228 -109q-131 0 -220.5 105.5t-91.5 295.5q0 193 92.5 304.5t229.5 111.5zM377 1245h-2q-80 0 -125 -85t-45 -216q-4 -129 43 -214t129 -85q86 0 129 82t43 221q0 131 -42 214t-130 83zM473 -25h-113l783 1381 h114zM1251 803h2q139 0 222.5 -104.5t83.5 -292.5q0 -201 -91.5 -310.5t-226.5 -109.5q-131 0 -220 104.5t-91 294.5q0 195 92 306.5t229 111.5zM1245 694h-2q-80 0 -126 -85t-46 -216q-2 -131 45 -215t129 -84q86 0 129 82t43 221q0 131 -42 214t-130 83z" />
<glyph unicode="&#x26;" horiz-adv-x="1239" d="M1233 0h-213l-129 135q-170 -158 -404 -158q-195 0 -309.5 113t-114.5 275q0 256 271 403v6q-115 143 -115 289q0 135 94.5 237.5t255.5 102.5q131 0 218 -81t87 -212q0 -111 -70.5 -200t-232.5 -169v-6l336 -385q92 141 133 404h164q-59 -344 -198 -510zM518 113h2 q168 0 283 125l-389 434q-178 -115 -178 -281q0 -119 79.5 -198.5t202.5 -79.5zM557 1280h-2q-80 0 -126 -58.5t-46 -142.5q0 -119 104 -248q117 66 173.5 127.5t56.5 143.5q0 72 -41 125t-119 53z" />
<glyph unicode="'" horiz-adv-x="385" d="M104 1417h179l-35 -491h-111z" />
<glyph unicode="(" horiz-adv-x="581" d="M399 1421h142q-258 -346 -258 -837q0 -469 258 -832h-142q-268 354 -268 832q2 483 268 837z" />
<glyph unicode=")" horiz-adv-x="581" d="M180 -248h-139q258 360 258 837.5t-258 831.5h139q268 -344 269 -833q-1 -480 -269 -836z" />
<glyph unicode="*" horiz-adv-x="849" d="M551 1403l123 -70l-195 -256v-4l309 41v-139l-309 37v-4l197 -246l-129 -74l-123 287h-4l-133 -289l-117 74l195 250v4l-304 -39v139l301 -39v4l-192 250l125 72l127 -285h4z" />
<glyph unicode="+" horiz-adv-x="1220" d="M545 1090h131v-482h463v-123h-463v-485h-131v485h-463v123h463v482z" />
<glyph unicode="," horiz-adv-x="423" d="M162 -240l-127 -12q82 229 121 490l200 20q-35 -129 -93 -276.5t-101 -221.5z" />
<glyph unicode="-" horiz-adv-x="628" d="M61 621h506v-134h-506v134z" />
<glyph unicode="." horiz-adv-x="423" d="M227 -23h-2q-51 0 -85 37t-34 92q0 57 35 93.5t88.5 36.5t87 -36t33.5 -93.5t-34 -93.5t-89 -36z" />
<glyph unicode="/" horiz-adv-x="702" d="M135 -82h-137l571 1485h140z" />
<glyph unicode="0" horiz-adv-x="1050" d="M536.5 1354q208.5 0 324.5 -177.5t116 -496.5q0 -338 -121 -520.5t-342 -182.5q-199 0 -318.5 179.5t-121.5 505.5q0 328 127 510t335.5 182zM526 1214q-123 0 -197.5 -145t-74.5 -410q0 -256 72.5 -399t197.5 -143q135 0 204 146.5t69 408.5q0 254 -68 398t-203 144z " />
<glyph unicode="1" horiz-adv-x="1050" d="M483 0v1163h-4l-231 -125l-35 138l291 155h153v-1331h-174z" />
<glyph unicode="2" horiz-adv-x="1050" d="M942 0h-850v111l141 137q276 264 385 409.5t111 286.5q0 113 -62.5 186.5t-201.5 73.5q-147 0 -283 -112l-57 127q160 135 377 135q201 0 304 -115t103 -272q0 -170 -108.5 -327t-349.5 -388l-107 -98v-4h598v-150z" />
<glyph unicode="3" horiz-adv-x="1050" d="M86 68l49 139q131 -84 295 -84q158 0 230.5 79t70.5 179q-2 131 -101.5 198.5t-242.5 67.5h-100v135h100q113 0 205 58.5t92 167.5q0 86 -58.5 143t-174.5 57q-143 0 -267 -88l-47 131q57 43 152.5 73t195.5 30q184 0 282.5 -92.5t98.5 -225.5q0 -104 -62.5 -187 t-182.5 -126v-4q129 -27 213 -117t84 -225q0 -170 -128 -285t-358 -115q-209 1 -346 91z" />
<glyph unicode="4" horiz-adv-x="1050" d="M819 0h-170v362h-618v119l594 850h194v-827h187v-142h-187v-362zM213 504h436v444q0 104 6 209h-6q-53 -100 -110 -196l-326 -453v-4z" />
<glyph unicode="5" horiz-adv-x="1050" d="M887 1331v-151h-508l-51 -342q61 8 108 8q168 0 287 -72q190 -109 190 -342q0 -197 -140 -326t-355 -129q-205 0 -332 82l45 138q125 -74 285 -74q131 0 223 80t92 209q-2 135 -96 215t-287 80q-70 0 -184 -15l86 639h637z" />
<glyph unicode="6" horiz-adv-x="1050" d="M852 1352v-148q-61 4 -135 -8q-201 -33 -319.5 -165t-143.5 -308h6q117 154 322 154q178 0 289.5 -118t111.5 -313q0 -193 -122 -331t-320 -138q-213 0 -342 155t-129 413q0 375 225 600q168 166 426 196q65 11 131 11zM541 117h2q115 0 186.5 88t71.5 231q0 141 -75 223 t-200 82q-80 0 -150.5 -45t-107.5 -118q-20 -35 -20 -80q4 -170 80 -275.5t213 -105.5z" />
<glyph unicode="7" horiz-adv-x="1050" d="M117 1331h839v-119l-579 -1212h-187l578 1178v4h-651v149z" />
<glyph unicode="8" horiz-adv-x="1050" d="M340 694l-2 6q-211 100 -211 299q0 156 116.5 255.5t295.5 99.5q182 0 284.5 -96.5t102.5 -231.5q0 -207 -219 -311v-6q268 -106 268 -344q0 -172 -130 -280t-323 -108q-203 0 -324.5 104.5t-121.5 256.5q0 243 264 356zM526 109q119 0 193 67.5t74 169.5 q0 115 -74 182.5t-219 108.5q-115 -33 -177.5 -105.5t-62.5 -169.5q-4 -104 69.5 -178.5t196.5 -74.5zM528 1225q-109 0 -170 -61.5t-61 -151.5q0 -178 254 -246q92 31 147.5 93.5t55.5 148.5q0 90 -56.5 153.5t-169.5 63.5z" />
<glyph unicode="9" horiz-adv-x="1050" d="M197 -20v147q41 -4 145 6q166 23 279 129q141 127 176 354h-6q-117 -143 -314 -143q-176 0 -284.5 117t-108.5 291q0 195 128 334t327 139q203 0 321.5 -152.5t118.5 -408.5q0 -403 -229 -625q-156 -152 -388 -178q-87 -14 -165 -10zM524 1217h-2q-113 0 -186.5 -91.5 t-73.5 -232.5q0 -125 69.5 -204t186.5 -79q88 0 156.5 38t105.5 102q16 27 17 65q0 180 -69 291t-204 111z" />
<glyph unicode=":" horiz-adv-x="423" d="M227 700h-2q-51 0 -85 37t-34 90q0 57 35 94t88.5 37t86 -36.5t34.5 -94.5q0 -55 -34 -91t-89 -36zM227 -23h-2q-51 0 -85 37t-34 90q0 57 35 93t88.5 36t86 -35.5t34.5 -93.5q0 -55 -34 -91t-89 -36z" />
<glyph unicode=";" horiz-adv-x="423" d="M160 -240l-125 -12q82 221 123 490l198 20q-37 -131 -95 -278.5t-101 -219.5zM244 700h-2q-51 0 -85 37t-34 90q0 57 33.5 94t87.5 37q55 0 88 -36.5t33 -94.5q0 -55 -33 -91t-88 -36z" />
<glyph unicode="&#x3c;" horiz-adv-x="1220" d="M135 489v111l950 490v-142l-800 -401v-4l800 -402v-141z" />
<glyph unicode="=" horiz-adv-x="1220" d="M1139 690h-1057v123h1057v-123zM1139 289h-1057v123h1057v-123z" />
<glyph unicode="&#x3e;" horiz-adv-x="1220" d="M1085 602v-115l-950 -487v141l807 402v4l-807 401v142z" />
<glyph unicode="?" horiz-adv-x="831" d="M449 393h-160l-4 53q-20 178 127 353q76 90 109.5 153.5t33.5 128.5q0 80 -50 127t-145 49q-123 0 -206 -63l-50 129q117 82 293 82q166 0 254 -87t88 -214q0 -94 -44 -173t-132 -183q-125 -150 -117 -304zM365 -23h-3q-51 0 -84.5 37t-33.5 90q0 57 34.5 93t88 36 t87 -35.5t33.5 -93.5q0 -55 -33.5 -91t-88.5 -36z" />
<glyph unicode="@" horiz-adv-x="1509" d="M918 522l43 232q-47 14 -103 14q-135 0 -230.5 -109.5t-95.5 -259.5q0 -70 35 -112.5t101 -42.5q84 0 158 88t92 190zM1040 -45l33 -88q-156 -82 -364 -82q-260 0 -440.5 176t-180.5 465q0 328 208 558t540 230q264 0 430 -167.5t166 -425.5q0 -221 -106.5 -354.5 t-258.5 -133.5q-68 0 -112 46t-40 134h-8q-106 -180 -289 -180q-92 0 -156.5 70.5t-64.5 187.5q0 197 138.5 341.5t347.5 144.5q125 0 219 -43l-70 -371q-45 -225 62 -230q84 -2 152.5 102.5t68.5 272.5q0 229 -131 370.5t-365 141.5q-258 0 -436 -189.5t-178 -492.5 q0 -252 147.5 -403.5t378.5 -151.5q182 0 309 72z" />
<glyph unicode="A" horiz-adv-x="1253" d="M868 434h-489l-143 -434h-185l469 1380h215l471 -1380h-190zM416 573h415l-135 398q-29 84 -71 252h-4q-35 -143 -70 -250z" />
<glyph unicode="B" horiz-adv-x="1110" d="M156 4v1358q135 29 325 29q254 0 379 -101q115 -86 115 -243q0 -100 -62.5 -182.5t-171.5 -121.5v-4q115 -29 200 -116.5t85 -229.5q0 -164 -117 -276q-141 -129 -477 -129q-157 0 -276 16zM334 1241v-444h162q139 0 219 64.5t80 166.5q0 225 -303 225q-101 0 -158 -12z M334 662v-527q47 -8 149 -8q154 0 254.5 64.5t100.5 203.5q0 133 -99.5 200t-257.5 67h-147z" />
<glyph unicode="C" horiz-adv-x="1187" d="M1083 186l37 -141q-135 -68 -364 -68q-301 0 -491.5 185.5t-190.5 515.5q0 324 199.5 524.5t521.5 200.5q209 0 327 -62l-43 -145q-119 57 -278 57q-246 0 -392.5 -150.5t-146.5 -418.5q0 -256 140.5 -405.5t390.5 -149.5q171 0 290 57z" />
<glyph unicode="D" horiz-adv-x="1363" d="M156 4v1358q190 29 379 29q375 0 559 -172q195 -178 194 -496q0 -342 -198 -537q-199 -199 -611 -198q-180 0 -323 16zM334 1231v-1090q55 -10 180 -10q285 0 436.5 152.5t151.5 433.5q2 250 -140.5 391t-418.5 141q-125 0 -209 -18z" />
<glyph unicode="E" horiz-adv-x="1007" d="M870 795v-148h-536v-497h598v-150h-776v1380h745v-149h-567v-436h536z" />
<glyph unicode="F" horiz-adv-x="997" d="M156 0v1380h743v-149h-565v-459h522v-147h-522v-625h-178z" />
<glyph unicode="G" horiz-adv-x="1323" d="M1206 725v-664q-211 -76 -424 -75q-326 0 -516 182q-193 186 -192 514q2 315 203.5 514t543.5 199q213 0 344 -64l-43 -145q-133 59 -305 59q-254 0 -404.5 -148.5t-150.5 -406.5q0 -260 144.5 -408.5t388.5 -148.5q164 0 237 37v412h-280v143h454z" />
<glyph unicode="H" horiz-adv-x="1335" d="M156 1380h178v-577h667v577h181v-1380h-181v647h-667v-647h-178v1380z" />
<glyph unicode="I" horiz-adv-x="489" d="M156 1380h178v-1380h-178v1380z" />
<glyph unicode="J" horiz-adv-x="757" d="M438 471v909h178v-923q0 -479 -417 -480q-111 0 -191 33l27 146q68 -27 149 -27q129 0 191.5 74.5t62.5 267.5z" />
<glyph unicode="K" horiz-adv-x="1110" d="M156 0v1380h178v-665h6q47 68 109 147l421 518h222l-500 -585l538 -795h-210l-455 678l-131 -152v-526h-178z" />
<glyph unicode="L" horiz-adv-x="966" d="M156 0v1380h178v-1230h590v-150h-768z" />
<glyph unicode="M" horiz-adv-x="1646" d="M1354 0l-35 606q-21 389 -21 566v30h-6q-74 -252 -174 -524l-244 -670h-135l-223 658q-109 326 -160 536h-4q-6 -270 -26 -610l-37 -592h-170l96 1380h227l236 -667q94 -279 139 -465h6q45 182 146 465l245 667h228l86 -1380h-174z" />
<glyph unicode="N" horiz-adv-x="1347" d="M324 0h-168v1380h194l443 -698q150 -236 247 -449l4 3q-20 231 -20 567v577h168v-1380h-180l-439 700q-170 270 -258 461l-6 -2q14 -244 15 -569v-590z" />
<glyph unicode="O" horiz-adv-x="1411" d="M714.5 1403q280.5 0 450.5 -194.5t170 -503.5q0 -344 -182 -536t-459 -192q-274 0 -447 195t-173 506q0 326 180 525.5t460.5 199.5zM707 1257q-211 0 -327 -166.5t-116 -408.5q0 -231 119 -395t322 -164q205 0 323.5 164t118.5 409q0 225 -115.5 393t-324.5 168z" />
<glyph unicode="P" horiz-adv-x="1089" d="M156 0v1364q160 27 342 27q260 0 387 -115q121 -104 121 -288.5t-107 -295.5q-141 -152 -422 -151q-94 0 -143 12v-553h-178zM334 1235v-537q55 -14 147 -14q164 0 255 77t91 218q0 133 -87 201.5t-238 68.5q-115 0 -168 -14z" />
<glyph unicode="Q" horiz-adv-x="1411" d="M1346 -53l-52 -150q-281 74 -528 160q-57 20 -84 20q-260 10 -434 194.5t-174 504.5q0 328 180 527.5t463 199.5q279 0 448.5 -194.5t169.5 -503.5q0 -258 -107.5 -429.5t-285.5 -232.5v-8q222 -55 404 -88zM702 123h3q205 0 323.5 164t118.5 409q0 225 -114.5 393 t-321.5 168q-215 0 -332 -168.5t-115 -408.5q-2 -229 117.5 -393t320.5 -164z" />
<glyph unicode="R" horiz-adv-x="1101" d="M156 0v1362q139 29 342 29q274 0 399 -113q109 -96 109 -262q0 -131 -73 -222.5t-188 -129.5v-7q152 -53 203 -278q76 -319 107 -379h-185q-31 55 -92 330q-31 143 -93 203.5t-183 64.5h-168v-598h-178zM334 1237v-504h182q141 0 226 72t85 190q0 129 -85 192.5 t-232 65.5q-119 0 -176 -16z" />
<glyph unicode="S" horiz-adv-x="1009" d="M86 68l45 149q147 -90 320 -90q135 0 211.5 64.5t76.5 170.5q0 96 -59 159t-201 116q-365 129 -364 391q0 164 123.5 269.5t322.5 105.5q186 0 305 -68l-49 -145q-121 66 -262 65q-129 0 -194.5 -62.5t-65.5 -143.5q0 -94 62.5 -151.5t211.5 -115.5q182 -70 267.5 -164 t85.5 -241q0 -170 -125 -285t-359 -115q-98 0 -196.5 26t-155.5 65z" />
<glyph unicode="T" horiz-adv-x="1017" d="M418 0v1229h-420v151h1022v-151h-422v-1229h-180z" />
<glyph unicode="U" horiz-adv-x="1325" d="M154 1380h180v-817q0 -221 88 -330.5t233 -109.5q160 0 248 108.5t88 331.5v817h180v-805q0 -303 -142 -450.5t-380 -147.5q-227 0 -361 142.5t-134 447.5v813z" />
<glyph unicode="V" horiz-adv-x="1142" d="M655 0h-196l-451 1380h193l215 -680q104 -330 147 -516h4q43 180 158 514l233 682h191z" />
<glyph unicode="W" horiz-adv-x="1732" d="M567 0h-186l-350 1380h188l164 -698q63 -268 102 -477h4q23 139 113 479l184 696h187l168 -700q74 -307 96 -473h4q27 143 111 477l182 696h182l-391 -1380h-186l-174 719q-66 272 -91 450h-4q-39 -213 -106 -450z" />
<glyph unicode="X" horiz-adv-x="1169" d="M1118 0h-207l-176 305q-106 172 -160 273h-4q-61 -125 -149 -275l-166 -303h-205l422 698l-405 682h206l183 -323q86 -150 127 -234h6q49 102 125 234l188 323h205l-420 -671z" />
<glyph unicode="Y" horiz-adv-x="1107" d="M643 0h-180v586l-436 794h202l195 -381q82 -160 137 -284h4q33 76 140 284l198 381h203l-463 -792v-588z" />
<glyph unicode="Z" horiz-adv-x="1132" d="M61 0v104l766 1121v6h-700v149h932v-108l-762 -1116v-6h772v-150h-1008z" />
<glyph unicode="[" horiz-adv-x="581" d="M543 -229h-375v1634h375v-113h-236v-1409h236v-112z" />
<glyph unicode="\" horiz-adv-x="698" d="M700 -82h-139l-557 1485h139z" />
<glyph unicode="]" horiz-adv-x="581" d="M39 1405h375v-1634h-375v112h235v1409h-235v113z" />
<glyph unicode="^" horiz-adv-x="1220" d="M1098 387h-144l-342 795h-4l-342 -795h-143l424 944h127z" />
<glyph unicode="_" horiz-adv-x="1024" d="M0 -154h1024v-102h-1024v102z" />
<glyph unicode="`" d="M45 1419h199l178 -293h-127z" />
<glyph unicode="a" horiz-adv-x="987" d="M846 608v-370q0 -147 16 -238h-164l-14 125h-6q-45 -63 -124 -105.5t-179 -42.5q-143 0 -223 84t-80 201q0 180 154 276q151 93 430 93h12v20q0 229 -226 230q-143 0 -258 -74l-41 119q135 88 326 88q109 0 185.5 -35t116.5 -95.5t57.5 -127t17.5 -148.5zM672 334v172 h-28q-392 0 -392 -223q0 -84 48 -128t122 -44q90 0 152.5 48t87.5 117q10 31 10 58z" />
<glyph unicode="b" horiz-adv-x="1165" d="M150 256v1198h178v-623h4q104 182 338 183q184 0 302 -140.5t115 -365.5q0 -250 -132 -390.5t-312 -140.5q-227 0 -332 187h-6l-8 -164h-156q9 135 9 256zM328 575v-178q0 -25 8 -65q27 -94 100.5 -152.5t169.5 -58.5q139 0 220 104.5t81 276.5q0 158 -77.5 263 t-217.5 105q-94 0 -170.5 -60t-103.5 -161q-10 -51 -10 -74z" />
<glyph unicode="c" horiz-adv-x="917" d="M825 172l31 -135q-115 -59 -285 -60q-223 0 -358 140.5t-135 367.5q0 231 146.5 379t385.5 148q147 0 250 -51l-41 -140q-82 47 -209 47q-164 0 -257 -106.5t-93 -267.5q0 -170 97.5 -270.5t246.5 -100.5q108 0 221 49z" />
<glyph unicode="d" horiz-adv-x="1155" d="M825 1454h181v-1198q0 -166 8 -256h-162l-8 172h-4q-43 -86 -132.5 -140.5t-205.5 -54.5q-182 0 -303 140.5t-121 371.5q0 234 127 378q129 146 317 147q106 0 184 -43t115 -109h4v592zM825 416v172q0 45 -8 76q-20 90 -91 149t-169 59q-137 0 -217 -107.5t-80 -275.5 q0 -158 77 -262t216 -104q92 0 166 58.5t98 156.5q8 33 8 78z" />
<glyph unicode="e" horiz-adv-x="1026" d="M946 463h-696q2 -172 98 -258t242 -86q154 0 274 51l31 -129q-141 -63 -330 -64q-225 0 -356 137.5t-131 364.5q0 229 127 382t338 153q115 0 199.5 -46t127.5 -121t62.5 -149.5t19.5 -150.5q0 -29 -6 -84zM252 592h526q2 111 -56 202t-194 91q-125 0 -194.5 -90 t-81.5 -203z" />
<glyph unicode="f" horiz-adv-x="598" d="M346 0h-178v854h-139v137h139v47q0 238 115 346q94 92 241 93q84 0 154 -29l-25 -139q-49 23 -114 22q-193 0 -193 -287v-53h240v-137h-240v-854z" />
<glyph unicode="g" horiz-adv-x="1144" d="M995 719v-576q0 -326 -141 -452q-127 -119 -360 -119q-207 0 -330 82l45 137q125 -78 291 -78q147 0 233 84t86 262v111h-4q-100 -166 -315 -166q-182 0 -302 138.5t-120 344.5q0 240 133 383.5t313 143.5q219 0 310 -172h4l8 149h158q-9 -143 -9 -272zM817 422v178 q0 51 -10 82q-27 84 -92.5 137t-159.5 53q-131 0 -213 -102t-82 -272q0 -154 77 -255.5t216 -101.5q84 0 152.5 50.5t97.5 134.5q14 43 14 96z" />
<glyph unicode="h" horiz-adv-x="1136" d="M150 0v1454h180v-618h4q45 80 129 127q88 51 184 51q57 0 111.5 -19.5t111 -63.5t90 -132t33.5 -209v-590h-180v569q0 131 -55.5 213t-173.5 82q-84 0 -149.5 -51t-92.5 -129q-12 -29 -12 -86v-598h-180z" />
<glyph unicode="i" horiz-adv-x="479" d="M330 0h-180v991h180v-991zM239.5 1382q49.5 0 80 -31.5t30.5 -80.5q2 -47 -29.5 -79t-84.5 -32q-47 0 -78 32t-31 79t31.5 79.5t81 32.5z" />
<glyph unicode="j" horiz-adv-x="497" d="M-74 -432l-18 141q137 10 196 76q39 43 53.5 121t14.5 252v833h180v-903q0 -287 -119 -407q-55 -55 -141 -84t-166 -29zM264 1382q49 0 79 -31.5t30 -80.5q2 -47 -30 -79t-83 -32q-49 0 -79.5 33t-30.5 78q0 49 31.5 80.5t82.5 31.5z" />
<glyph unicode="k" horiz-adv-x="960" d="M328 1454v-917h4q29 41 88 112l291 342h217l-383 -407l436 -584h-219l-342 475l-92 -102v-373h-178v1454h178z" />
<glyph unicode="l" horiz-adv-x="483" d="M150 0v1454h180v-1454h-180z" />
<glyph unicode="m" horiz-adv-x="1708" d="M150 0v723q0 160 -9 268h158l8 -160h6q106 182 312 183q98 0 172.5 -54.5t107.5 -144.5h4q43 80 111 129q92 70 219 70q55 0 107.5 -20.5t103.5 -64.5t83 -133t32 -212v-584h-176v561q0 305 -215 305q-74 0 -131.5 -47t-81.5 -117q-14 -43 -15 -90v-612h-176v594 q0 123 -53 197.5t-154 74.5q-80 0 -140.5 -53t-82.5 -127q-14 -37 -14 -88v-598h-176z" />
<glyph unicode="n" horiz-adv-x="1136" d="M150 0v723q0 160 -9 268h160l10 -164h4q41 78 127 132.5t201 54.5q57 0 113.5 -19.5t112 -63.5t90 -131t34.5 -208v-592h-180v571q0 131 -55.5 212t-173.5 81q-86 0 -151.5 -53t-90.5 -131q-12 -33 -12 -84v-596h-180z" />
<glyph unicode="o" horiz-adv-x="1124" d="M569 1014q213 0 345.5 -141.5t132.5 -368.5q0 -256 -146.5 -391.5t-347.5 -135.5q-205 0 -340 139.5t-135 370.5q0 242 139 384.5t352 142.5zM565 879q-150 0 -227.5 -114t-77.5 -271q0 -164 85 -272.5t216 -108.5q129 0 215 109.5t86 275.5q0 90 -28.5 173t-98.5 145.5 t-170 62.5z" />
<glyph unicode="p" horiz-adv-x="1165" d="M150 -406v1074q0 135 -9 323h162l8 -170h4q117 193 353 193q182 0 300.5 -140.5t118.5 -363.5q0 -254 -131 -393.5t-319 -139.5q-98 0 -179 41t-126 115h-4v-539h-178zM328 573v-170q0 -29 8 -73q25 -94 99.5 -152.5t170.5 -58.5q141 0 221 104.5t80 278.5 q0 156 -78.5 262t-216.5 106q-94 0 -169.5 -61t-102.5 -162q-12 -45 -12 -74z" />
<glyph unicode="q" horiz-adv-x="1153" d="M825 -406v560h-4q-43 -78 -126 -127.5t-197 -49.5q-178 0 -299 140.5t-121 361.5q0 258 136 396.5t312 138.5q217 0 305 -172h5l6 149h170q-6 -127 -6 -272v-1125h-181zM825 403v187q0 45 -8 76q-20 86 -90 145t-168 59q-137 0 -218 -105.5t-81 -275.5q0 -158 76 -263 t217 -105q88 0 157.5 52t100.5 144q14 43 14 86z" />
<glyph unicode="r" horiz-adv-x="669" d="M150 0v682q0 186 -9 309h158l6 -194h8q33 100 109 158.5t166 58.5q27 0 51 -6v-170q-29 6 -61 6q-94 0 -159 -63.5t-83 -168.5q-8 -49 -8 -84v-528h-178z" />
<glyph unicode="s" horiz-adv-x="811" d="M80 47l45 137q111 -72 237 -71q94 0 143.5 41t49.5 106q0 63 -42 104.5t-142 77.5q-262 94 -262 281q0 123 93 207t249 84q139 0 243 -62l-45 -131q-90 57 -203 58q-78 0 -121.5 -39t-43.5 -97q0 -59 42 -94t146 -74q133 -51 196.5 -120.5t63.5 -178.5q0 -133 -98.5 -216 t-272.5 -83q-159 0 -278 70z" />
<glyph unicode="t" horiz-adv-x="677" d="M190 1174l177 55v-238h258v-137h-258v-535q0 -193 135 -192q63 0 104 12l8 -135q-66 -27 -159 -27q-127 0 -195 78q-70 72 -70 258v541h-153v137h153v183z" />
<glyph unicode="u" horiz-adv-x="1128" d="M979 991v-721q0 -166 8 -270h-160l-10 162h-4q-43 -74 -126 -129.5t-202 -55.5q-63 0 -119.5 19.5t-108.5 66t-83 135.5t-31 214v579h181v-549q0 -315 221 -315q84 0 147.5 48t89.5 116q16 43 17 92v608h180z" />
<glyph unicode="v" horiz-adv-x="985" d="M27 991h192l195 -557q53 -143 80 -254h6q27 94 84 254l192 557h189l-390 -991h-172z" />
<glyph unicode="w" horiz-adv-x="1507" d="M37 991h184l131 -504q55 -213 74 -315h6q20 92 88 315l162 504h152l153 -495q55 -180 88 -324h6q20 123 76 322l141 497h179l-320 -991h-164l-151 473q-59 186 -88 326h-4q-29 -141 -91 -328l-159 -471h-164z" />
<glyph unicode="x" horiz-adv-x="948" d="M33 991h200l142 -213q41 -61 100 -162h6l99 164l139 211h194l-338 -479l349 -512h-205l-146 223q-41 61 -106 172h-4q-14 -27 -105 -172l-143 -223h-199l353 506z" />
<glyph unicode="y" horiz-adv-x="964" d="M18 991h197l217 -585q39 -111 64 -203h4q2 6 25.5 85t37.5 122l197 581h190l-270 -706q-100 -264 -175 -403.5t-165 -217.5q-109 -96 -221 -117l-45 152q86 27 157 88q96 76 152 201q14 33 14 43q0 14 -12 47z" />
<glyph unicode="z" horiz-adv-x="876" d="M37 0v104l448 584l129 154v4h-536v145h756l-3 -112l-442 -576q-53 -72 -127 -156v-4h580v-143h-805z" />
<glyph unicode="{" horiz-adv-x="581" d="M57 537v104q98 0 132 42t34 112q0 55 -16.5 169.5t-16.5 172.5q0 135 80 201.5t217 66.5h43v-113h-36q-88 -2 -125 -46t-37 -130q0 -61 14 -147t14 -156q2 -180 -147 -221v-4q150 -37 147 -223q0 -70 -14 -156q-14 -90 -14 -148q0 -176 162 -178h36v-112h-43 q-297 0 -297 280q0 57 16.5 168t16.5 166q0 152 -166 152z" />
<glyph unicode="|" horiz-adv-x="489" d="M176 1536h137v-2048h-137v2048z" />
<glyph unicode="}" horiz-adv-x="581" d="M524 641v-104q-166 0 -166 -152q0 -55 16.5 -165.5t16.5 -168.5q0 -281 -297 -280h-43v112h35q164 2 164 178q0 29 -14 148q-16 98 -17 156q0 186 148 223v4q-147 41 -148 221q0 57 17 156q14 115 14 147q0 174 -162 176h-37v113h41q137 0 218 -66.5t81 -201.5 q0 -57 -16.5 -172t-16.5 -170q0 -70 34 -112t132 -42z" />
<glyph unicode="~" horiz-adv-x="1220" d="M221 430h-121q-6 147 63.5 228t180.5 81q61 0 119.5 -19.5t169.5 -72.5q182 -86 256 -86q106 0 110 172h123q6 -160 -61.5 -234.5t-173.5 -74.5q-102 0 -297 90l-40 20q-28 13 -39 19t-33.5 16.5t-36.5 14.5l-31 10q-18 6 -34 8t-32 2q-117 0 -123 -174z" />
<glyph unicode="&#xa1;" horiz-adv-x="471" d="M336 -399h-199l29 977h139zM238 999h2q51 0 83.5 -35.5t32.5 -91t-32.5 -91.5t-87.5 -36q-53 0 -87 36t-34 91.5t35 91t88 35.5z" />
<glyph unicode="&#xa2;" horiz-adv-x="1050" d="M676 -29h-127v207q-186 23 -297 144q-115 129 -115 346q0 199 112.5 337t299.5 169v204h127v-200q125 0 223 -52l-41 -137q-86 51 -213 51q-147 0 -237.5 -104.5t-90.5 -259.5q0 -166 90.5 -263.5t229.5 -97.5q121 0 233 52l33 -129q-98 -53 -227 -60v-207z" />
<glyph unicode="&#xa3;" horiz-adv-x="1050" d="M965 0h-850v102q104 53 168.5 149.5t64.5 209.5q0 76 -10 143h-211v129h190q-23 135 -22 221q0 180 110.5 290t282.5 110q141 0 223 -51l-41 -136q-74 41 -182 41q-115 0 -170 -69.5t-55 -186.5q0 -88 24 -219h295v-129h-278q12 -150 -8 -229q-33 -129 -142 -221v-4h611 v-150z" />
<glyph unicode="&#xa4;" horiz-adv-x="1050" d="M524 1094h2q139 0 236 -82l145 153l90 -94l-159 -145q72 -102 71 -240q0 -152 -71 -252l153 -151l-92 -90l-139 157q-90 -88 -240 -88q-145 0 -233 82l-137 -151l-89 90l148 145q-76 98 -76 246q0 145 80 252l-154 145l91 94l141 -155q94 84 233 84zM522 965h-2 q-109 0 -175 -83t-66 -206q0 -137 75.5 -211t165.5 -74q98 0 171 74t73 219q0 115 -64.5 198t-177.5 83z" />
<glyph unicode="&#xa5;" horiz-adv-x="1050" d="M598 0h-170v358h-317v103h317v147h-317v103h266l-344 620h192l213 -422q49 -104 82 -186h6q33 92 82 190l221 418h189l-367 -620h267v-103h-320v-147h320v-103h-320v-358z" />
<glyph unicode="&#xa6;" horiz-adv-x="489" d="M176 356h137v-716h-137v716zM176 1380h137v-716h-137v716z" />
<glyph unicode="&#xa7;" horiz-adv-x="1062" d="M266 719v-2q0 -113 217 -193q180 -63 234 -98q78 55 78 158q0 127 -183 190l-62 23q-46 16 -71.5 26.5l-60.5 25.5t-58 30q-94 -68 -94 -160zM856 1331l-43 -117q-106 66 -246 66q-92 0 -152.5 -42t-60.5 -110q0 -74 59.5 -112.5t196.5 -83.5q162 -53 248 -125t86 -199 q0 -145 -133 -248q78 -63 78 -180q0 -152 -116 -229.5t-273 -77.5q-203 0 -322 84l49 119q119 -84 271 -84q102 0 165.5 44t63.5 124q0 72 -53 118t-197 95q-180 61 -268 130.5t-88 192.5q0 143 149 240q-72 57 -75 172q0 131 108.5 211t270 80t282.5 -68z" />
<glyph unicode="&#xa8;" d="M119 1167h-2q-43 0 -73 31t-30 74t31 73.5t74 30.5t71.5 -29.5t28.5 -74.5q0 -43 -28.5 -74t-71.5 -31zM498 1167h-2q-43 0 -72 31t-29 74t30 73.5t73 30.5t71.5 -29.5t28.5 -74.5q0 -43 -28.5 -74t-71.5 -31z" />
<glyph unicode="&#xa9;" horiz-adv-x="1386" d="M696 1327h2q258 0 436.5 -184.5t178.5 -446.5q0 -264 -179.5 -449.5t-437.5 -185.5q-260 0 -441 185.5t-181 449.5q0 262 181 446.5t441 184.5zM696 1243h-2q-219 0 -368.5 -159.5t-149.5 -393.5q0 -229 149.5 -386t370.5 -159q217 -2 365.5 158t148.5 393 q0 229 -148.5 388t-365.5 159zM971 1010l-25 -80q-88 47 -198 47q-139 0 -213 -79t-74 -208q0 -125 75.5 -207t213.5 -82q125 0 206 54l25 -78q-96 -63 -252 -64q-174 0 -274.5 105.5t-100.5 265.5q0 170 115 275.5t276 105.5q74 0 138.5 -17.5t87.5 -37.5z" />
<glyph unicode="&#xaa;" horiz-adv-x="708" d="M625 545h-123l-13 86h-4q-76 -96 -206 -96q-98 0 -154.5 55t-56.5 139q0 113 108.5 175.5t302.5 58.5v20q0 23 -9 48.5t-46 52t-96 26.5q-106 0 -176 -55l-33 88q94 68 233 67q260 0 260 -286v-219q1 -86 13 -160zM481 762v112q-279 4 -278 -137q0 -49 34.5 -76.5 t84.5 -27.5q88 0 139 74q20 35 20 55z" />
<glyph unicode="&#xab;" horiz-adv-x="858" d="M475 893l-274 -377l274 -377h-145l-271 377l271 377h145zM811 893l-274 -377l274 -377h-145l-271 377l271 377h145z" />
<glyph unicode="&#xac;" horiz-adv-x="1220" d="M82 817h1057v-569h-131v446h-926v123z" />
<glyph unicode="&#xad;" horiz-adv-x="595" d="M61 621h506v-134h-506v134z" />
<glyph unicode="&#xae;" horiz-adv-x="858" d="M377 1022v-133h-78v334q61 12 129 12q76 0 117 -27q33 -25 33 -71q0 -59 -70 -80v-4q47 -14 61.5 -82t24.5 -82h-84q-8 10 -27 80q-8 53 -69 53h-37zM379 1174v-97h37q78 0 78 49q0 51 -72 52q-27 0 -43 -4zM430 1399h2q143 0 242.5 -98.5t99.5 -237.5 q0 -143 -99.5 -240.5t-244.5 -97.5t-245.5 97.5t-100.5 240.5q0 139 101.5 237.5t244.5 98.5zM430 1331h-2q-111 0 -184.5 -77.5t-73.5 -190.5t74.5 -190.5t187.5 -77.5q109 -2 182.5 76.5t73.5 191.5t-73.5 190.5t-184.5 77.5z" />
<glyph unicode="&#xaf;" d="M78 1317h461v-117h-461v117z" />
<glyph unicode="&#xb0;" horiz-adv-x="651" d="M332 1405h2q121 0 194.5 -79t73.5 -187q0 -121 -82 -198t-192 -77q-117 0 -193 77t-76 185q-2 117 78 198t195 81zM330 1309h-2q-74 0 -116 -54.5t-42 -126t46 -119.5t114 -48q70 0 116 49t46 125q0 68 -41 121t-121 53z" />
<glyph unicode="&#xb1;" horiz-adv-x="1220" d="M545 1171h131v-399h463v-123h-463v-409h-131v409h-463v123h463v399zM82 123h1057v-123h-1057v123z" />
<glyph unicode="&#xb2;" horiz-adv-x="636" d="M25 907v76l129 121q139 125 198.5 202.5t59.5 151.5q0 61 -40 102.5t-116 41.5q-80 0 -172 -64l-43 92q100 86 250 86q135 0 203.5 -69.5t68.5 -161.5q0 -104 -65.5 -192.5t-206.5 -211.5l-64 -57v-4h351v-113h-553z" />
<glyph unicode="&#xb3;" horiz-adv-x="624" d="M92 1556l-35 97q98 63 236 63q125 0 187.5 -55t62.5 -137q0 -61 -42 -110.5t-116 -74.5v-4q86 -12 138 -66.5t52 -131.5q0 -100 -87 -170t-236.5 -70t-233.5 57l37 103q78 -53 191 -53q88 0 134 41.5t44 95.5q0 72 -63.5 107.5t-153.5 35.5h-55v94h57q68 0 126 33t60 98 q0 41 -32.5 71t-96.5 30q-96 -1 -174 -54z" />
<glyph unicode="&#xb4;" d="M387 1419h199l-250 -293h-129z" />
<glyph unicode="&#xb5;" horiz-adv-x="1132" d="M825 154h-6q-37 -70 -110.5 -121t-173.5 -51q-156 0 -218 108v-123q0 -283 23 -373h-162q-29 86 -28 365v1032h178v-585q0 -123 55 -202t168 -79q84 0 147.5 49t89.5 117q16 43 17 92v608h178v-719q0 -82 20.5 -117.5t73.5 -37.5l-14 -131q-27 -8 -62 -9q-153 1 -176 177 z" />
<glyph unicode="&#xb6;" horiz-adv-x="1048" d="M600 -100h-129v641h-14q-139 0 -262 104.5t-125 284.5q-2 86 23.5 161.5t86 144.5t176 108.5t277.5 39.5t239 -18v-1466h-127v1360h-145v-1360z" />
<glyph unicode="&#xb7;" horiz-adv-x="423" d="M211 410h-2q-53 0 -87 36.5t-32 92.5q0 55 35 92t88 37t86 -36t35 -93q0 -55 -34 -92t-89 -37z" />
<glyph unicode="&#xb8;" d="M279 4h110l-67 -106q59 -8 101 -47t42 -95q0 -86 -60.5 -126t-152.5 -40q-80 0 -139 35l30 88q49 -31 111 -30q88 0 88 65q-2 72 -160 86z" />
<glyph unicode="&#xb9;" horiz-adv-x="499" d="M362 907h-143v674h-4l-147 -72l-23 107l193 90h124v-799z" />
<glyph unicode="&#xba;" horiz-adv-x="727" d="M367 1210h2q145 0 233 -93t88 -240q-2 -166 -99 -254t-229 -88q-139 0 -232 92t-93 239q0 156 96.5 250t233.5 94zM362 1108h-2q-90 0 -138 -72.5t-48 -165.5q0 -100 56.5 -166.5t134.5 -66.5q82 0 135 65.5t53 169.5q0 90 -49.5 163t-141.5 73z" />
<glyph unicode="&#xbb;" horiz-adv-x="858" d="M322 516l-275 377h146l272 -377l-272 -377h-144zM655 516l-274 377h145l273 -377l-273 -377h-143z" />
<glyph unicode="&#xbc;" horiz-adv-x="1554" d="M406 545h-144v674h-4l-147 -72l-23 106l193 90h125v-798zM399 -23h-116l778 1377h115zM1360 0h-137v211h-410v80l395 518h152v-498h123v-100h-123v-211zM1223 311v242q0 12 6 129h-4l-33 -55l-35 -58l-196 -256v-2h262z" />
<glyph unicode="&#xbd;" horiz-adv-x="1554" d="M377 545h-144v674h-4l-147 -72l-23 106l191 90h127v-798zM358 -23h-114l776 1377h115zM901 0v76l129 121q139 125 198.5 202.5t59.5 151.5q0 61 -40 102t-115 41q-80 0 -172 -63l-43 92q100 86 249 86q135 0 204 -68.5t69 -162.5q0 -72 -41 -146t-88 -122t-144 -136 l-63 -57v-4h350v-113h-553z" />
<glyph unicode="&#xbe;" horiz-adv-x="1554" d="M135 1194l-35 94q94 66 234 66q125 0 188.5 -55.5t63.5 -137.5q0 -61 -42 -110.5t-114 -73.5v-4q84 -12 136 -66.5t52 -132.5q0 -100 -86 -169.5t-235 -69.5q-147 0 -236 57l37 102q78 -53 191 -53q88 0 134 42t46 95q-2 72 -65.5 108t-151.5 36h-57v94h57q70 2 128 33.5 t58 97.5q0 41 -32.5 70.5t-98.5 29.5q-86 0 -172 -53zM475 -23h-117l779 1377h114zM1380 0h-135v211h-409v80l395 518h149v-498h125v-100h-125v-211zM1245 311v242q0 12 6 129h-4q-59 -102 -67 -113l-199 -256l2 -2h262z" />
<glyph unicode="&#xbf;" horiz-adv-x="831" d="M485 999h2q53 0 86 -35.5t33 -93.5q0 -55 -32.5 -91t-88 -36t-88 36t-32.5 91q0 57 33.5 93t86.5 36zM403 586h160l6 -54q20 -176 -129 -354q-141 -170 -141 -280q0 -82 49 -129.5t146 -49.5q121 0 206 66l50 -131q-121 -82 -295 -82q-166 0 -254 88t-88 215q0 94 44 173 t134 181q123 152 115 303z" />
<glyph unicode="&#xc0;" horiz-adv-x="1253" d="M868 434h-489l-143 -434h-185l469 1380h215l471 -1380h-190zM416 573h415l-135 398q-29 84 -71 252h-4q-35 -143 -70 -250zM330 1694h217l190 -238h-147z" />
<glyph unicode="&#xc1;" horiz-adv-x="1253" d="M868 434h-489l-143 -434h-185l469 1380h215l471 -1380h-190zM416 573h415l-135 398q-29 84 -71 252h-4q-35 -143 -70 -250zM713 1694h217l-260 -240h-148z" />
<glyph unicode="&#xc2;" horiz-adv-x="1253" d="M868 434h-489l-143 -434h-185l469 1380h215l471 -1380h-190zM416 573h415l-135 398q-29 84 -71 252h-4q-35 -143 -70 -250zM567 1688h138l213 -234h-150l-131 141h-4l-131 -141h-146z" />
<glyph unicode="&#xc3;" horiz-adv-x="1253" d="M868 434h-489l-143 -434h-185l469 1380h215l471 -1380h-190zM416 573h415l-135 398q-29 84 -71 252h-4q-35 -143 -70 -250zM477 1464h-96q-4 94 34 151.5t105 57.5q43 0 121 -41q66 -37 98 -37q25 0 38.5 16.5t17.5 63.5h94q4 -199 -137 -198q-47 0 -125 39 q-74 39 -97 38q-47 0 -53 -90z" />
<glyph unicode="&#xc4;" horiz-adv-x="1253" d="M868 434h-489l-143 -434h-185l469 1380h215l471 -1380h-190zM416 573h415l-135 398q-29 84 -71 252h-4q-35 -143 -70 -250zM446 1473h-2q-43 0 -70.5 29.5t-27.5 74.5q0 43 28.5 72.5t71.5 29.5t71 -29.5t28 -72.5q0 -45 -28 -74.5t-71 -29.5zM825 1473h-2 q-43 0 -70.5 30.5t-27.5 73.5t29.5 72.5t72.5 29.5t71 -29.5t28 -72.5q0 -45 -28 -74.5t-73 -29.5z" />
<glyph unicode="&#xc5;" horiz-adv-x="1253" d="M868 434h-489l-143 -434h-185l469 1380h215l471 -1380h-190zM416 573h415l-135 398q-29 84 -71 252h-4q-35 -143 -70 -250zM633 1800h2q90 0 145.5 -53t55.5 -133q0 -78 -57.5 -129t-145.5 -51q-92 0 -149.5 52t-57.5 128q0 80 57.5 133t149.5 53zM629 1724h-2 q-43 0 -69 -31.5t-26 -78.5q0 -41 28 -73t69 -32q45 0 72.5 31t27.5 76t-27.5 76.5t-72.5 31.5z" />
<glyph unicode="&#xc6;" horiz-adv-x="1613" d="M182 0h-184l631 1380h864v-149h-588l53 -440h515v-148h-492l61 -493h506l-2 -150h-657l-62 487h-424zM463 631h344l-45 397q-23 172 -25 223h-8q-20 -57 -88 -217z" />
<glyph unicode="&#xc7;" horiz-adv-x="1198" d="M1083 186l37 -141q-121 -63 -360 -65l-49 -82q61 -12 102 -53.5t41 -100.5q0 -84 -61.5 -125t-149.5 -41q-86 0 -145 35l28 92q49 -27 113 -27q88 0 88 64q0 70 -160 86l86 158q-262 31 -420.5 210t-158.5 482q0 324 199.5 524.5t521.5 200.5q209 0 327 -62l-43 -145 q-119 57 -278 57q-246 0 -392.5 -150.5t-146.5 -418.5q0 -256 140.5 -405.5t390.5 -149.5q171 0 290 57z" />
<glyph unicode="&#xc8;" horiz-adv-x="1007" d="M870 795v-148h-536v-497h598v-150h-776v1380h745v-149h-567v-436h536zM244 1694h217l190 -238h-147z" />
<glyph unicode="&#xc9;" horiz-adv-x="1007" d="M870 795v-148h-536v-497h598v-150h-776v1380h745v-149h-567v-436h536zM618 1694h218l-261 -240h-147z" />
<glyph unicode="&#xca;" horiz-adv-x="1007" d="M870 795v-148h-536v-497h598v-150h-776v1380h745v-149h-567v-436h536zM459 1688h137l213 -234h-150l-131 141h-4l-131 -141h-145z" />
<glyph unicode="&#xcb;" horiz-adv-x="1007" d="M870 795v-148h-536v-497h598v-150h-776v1380h745v-149h-567v-436h536zM334 1477h-2q-43 0 -71 29.5t-28 74.5q0 43 29 72.5t72 29.5t70.5 -29.5t27.5 -72.5q0 -45 -27.5 -74.5t-70.5 -29.5zM713 1477h-2q-43 0 -71 30.5t-28 73.5t30 72.5t73 29.5t70.5 -29.5t27.5 -72.5 q0 -45 -27.5 -74.5t-72.5 -29.5z" />
<glyph unicode="&#xcc;" horiz-adv-x="489" d="M156 1380h178v-1380h-178v1380zM-51 1694h217l190 -238h-147z" />
<glyph unicode="&#xcd;" horiz-adv-x="489" d="M156 1380h178v-1380h-178v1380zM328 1694h217l-260 -240h-148z" />
<glyph unicode="&#xce;" horiz-adv-x="489" d="M156 1380h178v-1380h-178v1380zM176 1688h137l213 -234h-149l-131 141h-4l-131 -141h-146z" />
<glyph unicode="&#xcf;" horiz-adv-x="489" d="M156 1380h178v-1380h-178v1380zM57 1477h-2q-43 0 -70.5 29.5t-27.5 74.5q0 43 28.5 72.5t71.5 29.5t71 -29.5t28 -72.5q0 -45 -28 -74.5t-71 -29.5zM436 1477h-2q-43 0 -70.5 30.5t-27.5 73.5t29.5 72.5t72.5 29.5t71 -29.5t28 -72.5q0 -45 -28 -74.5t-73 -29.5z" />
<glyph unicode="&#xd0;" horiz-adv-x="1374" d="M-4 629v143h170v594q180 31 379 31q375 0 559 -172q195 -178 194 -502q0 -340 -198.5 -538.5t-610.5 -198.5q-197 0 -323 14v629h-170zM713 772v-143h-369v-492q59 -8 178 -8q289 0 439.5 152.5t150.5 439.5q2 252 -140.5 392t-418.5 140q-125 0 -209 -18v-463h369z" />
<glyph unicode="&#xd1;" horiz-adv-x="1347" d="M324 0h-168v1380h194l443 -698q150 -236 247 -449l4 3q-20 231 -20 567v577h168v-1380h-180l-439 700q-170 270 -258 461l-6 -2q14 -244 15 -569v-590zM526 1464h-96q-4 94 34 151.5t105 57.5q43 0 121 -41q66 -37 98 -37q25 0 38.5 16.5t17.5 63.5h94q4 -199 -137 -198 q-47 0 -125 39q-74 39 -96 38q-48 0 -54 -90z" />
<glyph unicode="&#xd2;" horiz-adv-x="1411" d="M714.5 1403q280.5 0 450.5 -194.5t170 -503.5q0 -344 -182 -536t-459 -192q-274 0 -447 195t-173 506q0 326 180 525.5t460.5 199.5zM707 1257q-211 0 -327 -166.5t-116 -408.5q0 -231 119 -395t322 -164q205 0 323.5 164t118.5 409q0 225 -115.5 393t-324.5 168z M408 1700h217l190 -238h-147z" />
<glyph unicode="&#xd3;" horiz-adv-x="1411" d="M714.5 1403q280.5 0 450.5 -194.5t170 -503.5q0 -344 -182 -536t-459 -192q-274 0 -447 195t-173 506q0 326 180 525.5t460.5 199.5zM707 1257q-211 0 -327 -166.5t-116 -408.5q0 -231 119 -395t322 -164q205 0 323.5 164t118.5 409q0 225 -115.5 393t-324.5 168z M786 1700h218l-261 -240h-147z" />
<glyph unicode="&#xd4;" horiz-adv-x="1411" d="M714.5 1403q280.5 0 450.5 -194.5t170 -503.5q0 -344 -182 -536t-459 -192q-274 0 -447 195t-173 506q0 326 180 525.5t460.5 199.5zM707 1257q-211 0 -327 -166.5t-116 -408.5q0 -231 119 -395t322 -164q205 0 323.5 164t118.5 409q0 225 -115.5 393t-324.5 168z M635 1694h137l213 -234h-149l-131 142h-5l-131 -142h-145z" />
<glyph unicode="&#xd5;" horiz-adv-x="1411" d="M714.5 1403q280.5 0 450.5 -194.5t170 -503.5q0 -344 -182 -536t-459 -192q-274 0 -447 195t-173 506q0 326 180 525.5t460.5 199.5zM707 1257q-211 0 -327 -166.5t-116 -408.5q0 -231 119 -395t322 -164q205 0 323.5 164t118.5 409q0 225 -115.5 393t-324.5 168z M547 1468h-96q-4 94 33.5 151.5t105.5 57.5q43 0 121 -41q66 -37 98 -37q25 0 38 16.5t17 63.5h94q4 -199 -137 -198q-47 0 -125 39q-74 39 -96 39q-47 -1 -53 -91z" />
<glyph unicode="&#xd6;" horiz-adv-x="1411" d="M714.5 1403q280.5 0 450.5 -194.5t170 -503.5q0 -344 -182 -536t-459 -192q-274 0 -447 195t-173 506q0 326 180 525.5t460.5 199.5zM707 1257q-211 0 -327 -166.5t-116 -408.5q0 -231 119 -395t322 -164q205 0 323.5 164t118.5 409q0 225 -115.5 393t-324.5 168z M516 1477h-2q-43 0 -70.5 29.5t-27.5 74.5q0 43 28.5 72.5t71.5 29.5t70.5 -29.5t27.5 -72.5q0 -45 -27.5 -74.5t-70.5 -29.5zM895 1477h-2q-43 0 -70.5 30.5t-27.5 73.5t29.5 72.5t72.5 29.5t70.5 -29.5t27.5 -72.5q0 -45 -27.5 -74.5t-72.5 -29.5z" />
<glyph unicode="&#xd7;" horiz-adv-x="1220" d="M82 987l90 90l438 -448l439 448l90 -90l-441 -448l441 -449l-90 -90l-439 449l-438 -449l-90 90l438 449z" />
<glyph unicode="&#xd8;" horiz-adv-x="1411" d="M229 -88l-100 80l127 180q-182 195 -182 510q0 322 181 521.5t456 199.5q195 0 344 -109l121 166l108 -74l-127 -176q178 -195 178 -508q0 -344 -181 -534.5t-445 -190.5q-199 0 -351 111zM360 324l607 839q-113 96 -258 97q-213 0 -333 -167t-120 -401q0 -193 102 -370z M1051 1055l-605 -836q104 -98 259 -98q209 0 328.5 166t119.5 409q0 201 -96 359h-6z" />
<glyph unicode="&#xd9;" horiz-adv-x="1325" d="M154 1380h180v-817q0 -221 88 -330.5t233 -109.5q160 0 248 108.5t88 331.5v817h180v-805q0 -303 -142 -450.5t-380 -147.5q-227 0 -361 142.5t-134 447.5v813zM375 1694h217l190 -238h-147z" />
<glyph unicode="&#xda;" horiz-adv-x="1325" d="M154 1380h180v-817q0 -221 88 -330.5t233 -109.5q160 0 248 108.5t88 331.5v817h180v-805q0 -303 -142 -450.5t-380 -147.5q-227 0 -361 142.5t-134 447.5v813zM752 1694h217l-260 -240h-148z" />
<glyph unicode="&#xdb;" horiz-adv-x="1325" d="M154 1380h180v-817q0 -221 88 -330.5t233 -109.5q160 0 248 108.5t88 331.5v817h180v-805q0 -303 -142 -450.5t-380 -147.5q-227 0 -361 142.5t-134 447.5v813zM606 1688h137l213 -234h-149l-131 141h-4l-131 -141h-146z" />
<glyph unicode="&#xdc;" horiz-adv-x="1325" d="M154 1380h180v-817q0 -221 88 -330.5t233 -109.5q160 0 248 108.5t88 331.5v817h180v-805q0 -303 -142 -450.5t-380 -147.5q-227 0 -361 142.5t-134 447.5v813zM479 1477h-2q-43 0 -70.5 29.5t-27.5 74.5q0 43 28.5 72.5t71.5 29.5t71 -29.5t28 -72.5q0 -45 -28 -74.5 t-71 -29.5zM858 1477h-2q-43 0 -70.5 30.5t-27.5 73.5t29.5 72.5t72.5 29.5t70.5 -29.5t27.5 -72.5q0 -45 -27.5 -74.5t-72.5 -29.5z" />
<glyph unicode="&#xdd;" horiz-adv-x="1107" d="M643 0h-180v586l-436 794h202l195 -381q82 -160 137 -284h4q33 76 140 284l198 381h203l-463 -792v-588zM655 1683h217l-260 -239h-147z" />
<glyph unicode="&#xde;" horiz-adv-x="1087" d="M156 0v1380h176v-270q88 16 196 16q236 0 365 -112q113 -106 113 -269q0 -211 -142.5 -323.5t-376.5 -112.5q-84 0 -155 10v-319h-176zM332 969v-504q70 -12 153 -12q164 0 253 73.5t89 200.5q0 129 -84 193.5t-231 64.5q-114 0 -180 -16z" />
<glyph unicode="&#xdf;" horiz-adv-x="1122" d="M330 0h-180v926q0 313 145 446q117 104 301 105q154 0 259.5 -92.5t105.5 -254.5q0 -100 -48 -167q-147 -61 -147 -166q0 -33 14.5 -65t32.5 -52l57 -62q53 -53 82 -86.5t56.5 -96t27.5 -132.5q0 -145 -99 -235.5t-267 -90.5q-133 0 -217 43l32 138q82 -41 172 -41 q94 0 147.5 49t53.5 123q0 109 -110 211q-80 76 -120 135t-40 137q0 162 182 252q18 45 18 88q0 104 -58 163.5t-155 59.5q-123 0 -184 -94t-61 -307v-934z" />
<glyph unicode="&#xe0;" horiz-adv-x="987" d="M195 1419h198l178 -293h-127zM846 608v-370q0 -147 16 -238h-164l-14 125h-6q-45 -63 -124 -105.5t-179 -42.5q-143 0 -223 84t-80 201q0 180 154.5 275.5t441.5 93.5v20q0 229 -226 230q-143 0 -258 -74l-41 119q135 88 326 88q109 0 185.5 -35t116.5 -95.5t57.5 -127 t17.5 -148.5zM672 334v172q-420 8 -420 -223q0 -84 48 -128t122 -44q90 0 152.5 48t87.5 117q10 31 10 58z" />
<glyph unicode="&#xe1;" horiz-adv-x="987" d="M563 1419h199l-250 -293h-129zM846 608v-370q0 -147 16 -238h-164l-14 125h-6q-45 -63 -124 -105.5t-179 -42.5q-143 0 -223 84t-80 201q0 180 154.5 275.5t441.5 93.5v20q0 229 -226 230q-143 0 -258 -74l-41 119q135 88 326 88q109 0 185.5 -35t116.5 -95.5t57.5 -127 t17.5 -148.5zM672 334v172q-420 8 -420 -223q0 -84 48 -128t122 -44q90 0 152.5 48t87.5 117q10 31 10 58z" />
<glyph unicode="&#xe2;" horiz-adv-x="987" d="M422 1419h125l196 -293h-139l-119 195h-4l-119 -195h-133zM846 608v-370q0 -147 16 -238h-164l-14 125h-6q-45 -63 -124 -105.5t-179 -42.5q-143 0 -223 84t-80 201q0 180 154.5 275.5t441.5 93.5v20q0 229 -226 230q-143 0 -258 -74l-41 119q135 88 326 88 q109 0 185.5 -35t116.5 -95.5t57.5 -127t17.5 -148.5zM672 334v172q-420 8 -420 -223q0 -84 48 -128t122 -44q90 0 152.5 48t87.5 117q10 31 10 58z" />
<glyph unicode="&#xe3;" horiz-adv-x="987" d="M334 1161h-98q-2 98 34.5 155.5t104.5 57.5q47 0 127 -45q61 -35 86 -35q51 0 57 88h96q4 -207 -141 -206q-47 0 -125 41q-61 37 -88 36q-47 0 -53 -92zM846 608v-370q0 -147 16 -238h-164l-14 125h-6q-45 -63 -124 -105.5t-179 -42.5q-143 0 -223 84t-80 201 q0 180 154.5 275.5t441.5 93.5v20q0 229 -226 230q-143 0 -258 -74l-41 119q135 88 326 88q109 0 185.5 -35t116.5 -95.5t57.5 -127t17.5 -148.5zM672 334v172q-420 8 -420 -223q0 -84 48 -128t122 -44q90 0 152.5 48t87.5 117q10 31 10 58z" />
<glyph unicode="&#xe4;" horiz-adv-x="987" d="M305 1167h-2q-43 0 -72.5 31t-29.5 74t30.5 73.5t73.5 30.5t72 -29.5t29 -74.5q0 -43 -29 -74t-72 -31zM684 1167h-2q-43 0 -71.5 31t-28.5 74t29.5 73.5t72.5 30.5t71.5 -29.5t28.5 -74.5q0 -43 -28.5 -74t-71.5 -31zM846 608v-370q0 -147 16 -238h-164l-14 125h-6 q-45 -63 -124 -105.5t-179 -42.5q-143 0 -223 84t-80 201q0 180 154.5 275.5t441.5 93.5v20q0 229 -226 230q-143 0 -258 -74l-41 119q135 88 326 88q109 0 185.5 -35t116.5 -95.5t57.5 -127t17.5 -148.5zM672 334v172q-420 8 -420 -223q0 -84 48 -128t122 -44 q90 0 152.5 48t87.5 117q10 31 10 58z" />
<glyph unicode="&#xe5;" horiz-adv-x="987" d="M492 1100q-90 0 -148.5 53t-58.5 133q0 84 57 139.5t152 55.5q90 0 146 -55.5t56 -137.5t-58 -135t-146 -53zM489 1176q47 0 77 33.5t30 80.5t-29.5 80t-77 33t-74 -34t-26.5 -83q0 -43 28.5 -76.5t71.5 -33.5zM846 608v-370q0 -147 16 -238h-164l-14 125h-6 q-45 -63 -124 -105.5t-179 -42.5q-143 0 -223 84t-80 201q0 180 154.5 275.5t441.5 93.5v20q0 229 -226 230q-143 0 -258 -74l-41 119q135 88 326 88q109 0 185.5 -35t116.5 -95.5t57.5 -127t17.5 -148.5zM672 334v172q-420 8 -420 -223q0 -84 48 -128t122 -44 q90 0 152.5 48t87.5 117q10 31 10 58z" />
<glyph unicode="&#xe6;" horiz-adv-x="1583" d="M1503 477h-663q-4 -172 83 -266t232 -94q152 0 270 57l33 -127q-129 -70 -325 -70q-129 0 -231.5 58.5t-145.5 161.5h-4q-47 -102 -144.5 -161t-224.5 -59q-147 0 -228 83t-81 200q0 172 155.5 266.5t442.5 91.5v41q0 25 -9.5 57t-31 71.5t-71.5 66.5t-120 27 q-143 0 -254 -76l-43 119q143 90 310 90q252 0 319 -209h4q51 98 141.5 153.5t204.5 55.5q86 0 156 -32t112 -81t70.5 -112.5t38.5 -121t10 -110.5t-6 -80zM674 352v146q-422 8 -422 -224q0 -76 49 -119.5t123 -43.5q92 0 154.5 48t85.5 122q10 28 10 71zM838 606h497 q4 57 -15.5 117.5t-75.5 111t-140 50.5q-121 0 -190.5 -89.5t-75.5 -189.5z" />
<glyph unicode="&#xe7;" horiz-adv-x="915" d="M825 172l33 -135q-104 -55 -260 -57l-51 -82q59 -12 101 -51.5t42 -98.5q0 -86 -60.5 -128t-152.5 -42q-84 0 -143 35l31 92q45 -27 112 -27q88 0 88 64q-2 70 -159 86l86 158q-188 23 -301 159t-113 340q0 231 146.5 379t385.5 148q147 0 250 -51l-41 -140 q-82 47 -209 47q-164 0 -257 -106.5t-93 -267.5q0 -170 97.5 -270.5t246.5 -100.5q115 0 221 49z" />
<glyph unicode="&#xe8;" horiz-adv-x="1026" d="M276 1419h199l178 -293h-127zM946 463h-696q2 -172 98 -258t242 -86q154 0 274 51l31 -129q-141 -63 -330 -64q-225 0 -356 137.5t-131 364.5q0 229 127 382t338 153q115 0 199.5 -46t127.5 -121t62.5 -149.5t19.5 -150.5q0 -29 -6 -84zM252 592h526q2 111 -56 202 t-194 91q-125 0 -194.5 -90t-81.5 -203z" />
<glyph unicode="&#xe9;" horiz-adv-x="1026" d="M623 1419h198l-250 -293h-129zM946 463h-696q2 -172 98 -258t242 -86q154 0 274 51l31 -129q-141 -63 -330 -64q-225 0 -356 137.5t-131 364.5q0 229 127 382t338 153q115 0 199.5 -46t127.5 -121t62.5 -149.5t19.5 -150.5q0 -29 -6 -84zM252 592h526q2 111 -56 202 t-194 91q-125 0 -194.5 -90t-81.5 -203z" />
<glyph unicode="&#xea;" horiz-adv-x="1026" d="M475 1419h125l197 -293h-140l-118 195h-4l-119 -195h-133zM946 463h-696q2 -172 98 -258t242 -86q154 0 274 51l31 -129q-141 -63 -330 -64q-225 0 -356 137.5t-131 364.5q0 229 127 382t338 153q115 0 199.5 -46t127.5 -121t62.5 -149.5t19.5 -150.5q0 -29 -6 -84z M252 592h526q2 111 -56 202t-194 91q-125 0 -194.5 -90t-81.5 -203z" />
<glyph unicode="&#xeb;" horiz-adv-x="1026" d="M360 1167h-2q-43 0 -72.5 31t-29.5 74t30.5 73.5t73.5 30.5t72 -29.5t29 -74.5q0 -43 -29 -74t-72 -31zM739 1167h-2q-43 0 -71.5 31t-28.5 74t29.5 73.5t72.5 30.5t72 -29.5t29 -74.5q0 -43 -29 -74t-72 -31zM946 463h-696q2 -172 98 -258t242 -86q154 0 274 51l31 -129 q-141 -63 -330 -64q-225 0 -356 137.5t-131 364.5q0 229 127 382t338 153q115 0 199.5 -46t127.5 -121t62.5 -149.5t19.5 -150.5q0 -29 -6 -84zM252 592h526q2 111 -56 202t-194 91q-125 0 -194.5 -90t-81.5 -203z" />
<glyph unicode="&#xec;" horiz-adv-x="479" d="M-55 1419h198l179 -293h-127zM330 0h-180v991h180v-991z" />
<glyph unicode="&#xed;" horiz-adv-x="479" d="M317 1419h199l-250 -293h-129zM330 0h-180v991h180v-991z" />
<glyph unicode="&#xee;" horiz-adv-x="479" d="M176 1419h125l197 -293h-140l-118 195h-4l-119 -195h-133zM330 0h-180v991h180v-991z" />
<glyph unicode="&#xef;" horiz-adv-x="479" d="M51 1167h-2q-43 0 -72.5 31t-29.5 74t30.5 73.5t73.5 30.5t72 -29.5t29 -74.5q0 -43 -29 -74t-72 -31zM430 1167h-2q-43 0 -71.5 31t-28.5 74t29.5 73.5t72.5 30.5t71.5 -29.5t28.5 -74.5q0 -43 -28.5 -74t-71.5 -31zM330 0h-180v991h180v-991z" />
<glyph unicode="&#xf0;" horiz-adv-x="1107" d="M547 113h2q133 0 213 107.5t80 277.5q0 188 -70 274q-84 96 -217 96q-145 0 -220 -118.5t-75 -264.5q0 -158 82 -265t205 -107zM238 1038l-39 88l237 113q-78 57 -213 123l78 113q162 -74 289 -166l262 125l43 -91l-217 -102q174 -141 262 -326q86 -178 86 -397 q0 -137 -40 -243.5t-109.5 -170t-153.5 -95.5t-176 -32q-205 0 -337 138.5t-132 368t135 367.5t322 140q139 0 231 -88l4 6q-92 154 -242 265z" />
<glyph unicode="&#xf1;" horiz-adv-x="1136" d="M416 1161h-99q-2 98 35 155.5t105 57.5q47 0 127 -45q61 -35 86 -35q51 0 57 88h96q4 -207 -141 -206q-47 0 -125 41q-61 37 -88 36q-47 0 -53 -92zM150 0v723q0 160 -9 268h160l10 -164h4q41 78 127 132.5t201 54.5q57 0 113.5 -19.5t112 -63.5t90 -131t34.5 -208v-592 h-180v571q0 131 -55.5 212t-173.5 81q-86 0 -151.5 -53t-90.5 -131q-12 -33 -12 -84v-596h-180z" />
<glyph unicode="&#xf2;" horiz-adv-x="1124" d="M297 1419h199l178 -293h-127zM569 1014q213 0 345.5 -141.5t132.5 -368.5q0 -256 -146.5 -391.5t-347.5 -135.5q-205 0 -340 139.5t-135 370.5q0 242 139 384.5t352 142.5zM565 879q-150 0 -227.5 -114t-77.5 -271q0 -164 85 -272.5t216 -108.5q129 0 215 109.5t86 275.5 q0 90 -28.5 173t-98.5 145.5t-170 62.5z" />
<glyph unicode="&#xf3;" horiz-adv-x="1124" d="M633 1419h198l-249 -293h-129zM569 1014q213 0 345.5 -141.5t132.5 -368.5q0 -256 -146.5 -391.5t-347.5 -135.5q-205 0 -340 139.5t-135 370.5q0 242 139 384.5t352 142.5zM565 879q-150 0 -227.5 -114t-77.5 -271q0 -164 85 -272.5t216 -108.5q129 0 215 109.5 t86 275.5q0 90 -28.5 173t-98.5 145.5t-170 62.5z" />
<glyph unicode="&#xf4;" horiz-adv-x="1124" d="M498 1419h125l196 -293h-139l-119 195h-4l-119 -195h-133zM569 1014q213 0 345.5 -141.5t132.5 -368.5q0 -256 -146.5 -391.5t-347.5 -135.5q-205 0 -340 139.5t-135 370.5q0 242 139 384.5t352 142.5zM565 879q-150 0 -227.5 -114t-77.5 -271q0 -164 85 -272.5 t216 -108.5q129 0 215 109.5t86 275.5q0 90 -28.5 173t-98.5 145.5t-170 62.5z" />
<glyph unicode="&#xf5;" horiz-adv-x="1124" d="M408 1161h-99q-2 98 35 155.5t105 57.5q47 0 126 -45q61 -35 87 -35q51 0 57 88h96q4 -207 -141 -206q-47 0 -125 41q-61 37 -88 36q-47 0 -53 -92zM569 1014q213 0 345.5 -141.5t132.5 -368.5q0 -256 -146.5 -391.5t-347.5 -135.5q-205 0 -340 139.5t-135 370.5 q0 242 139 384.5t352 142.5zM565 879q-150 0 -227.5 -114t-77.5 -271q0 -164 85 -272.5t216 -108.5q129 0 215 109.5t86 275.5q0 90 -28.5 173t-98.5 145.5t-170 62.5z" />
<glyph unicode="&#xf6;" horiz-adv-x="1124" d="M373 1167h-2q-43 0 -73 31t-30 74t31 73.5t74 30.5t71.5 -29.5t28.5 -74.5q0 -43 -28.5 -74t-71.5 -31zM752 1167h-2q-43 0 -72 31t-29 74t30 73.5t73 30.5t71.5 -29.5t28.5 -74.5q0 -43 -28.5 -74t-71.5 -31zM569 1014q213 0 345.5 -141.5t132.5 -368.5 q0 -256 -146.5 -391.5t-347.5 -135.5q-205 0 -340 139.5t-135 370.5q0 242 139 384.5t352 142.5zM565 879q-150 0 -227.5 -114t-77.5 -271q0 -164 85 -272.5t216 -108.5q129 0 215 109.5t86 275.5q0 90 -28.5 173t-98.5 145.5t-170 62.5z" />
<glyph unicode="&#xf7;" horiz-adv-x="1220" d="M610 793h-2q-47 0 -76.5 31.5t-29.5 80.5q0 51 30.5 83t79.5 32q47 0 77 -32t30 -83q0 -49 -30 -80.5t-79 -31.5zM1139 485h-1057v123h1057v-123zM610 74h-2q-47 0 -76.5 31.5t-29.5 80.5q0 51 30.5 83t79.5 32q47 0 77 -31.5t30 -83.5q0 -49 -30 -80.5t-79 -31.5z" />
<glyph unicode="&#xf8;" horiz-adv-x="1124" d="M565 1014h2q135 0 250 -70l86 121l80 -55l-86 -127q150 -143 150 -379q0 -254 -145.5 -390.5t-338.5 -136.5q-147 0 -254 70l-88 -125l-76 62l86 122q-154 143 -153.5 383t139.5 382.5t348 142.5zM330 244l405 575q-72 59 -174 60q-154 0 -231.5 -116t-77.5 -269 q0 -145 74 -248zM797 739l-406 -569q66 -57 166 -57q139 0 226 108.5t87 276.5q0 139 -69 241h-4z" />
<glyph unicode="&#xf9;" horiz-adv-x="1128" d="M287 1419h198l179 -293h-127zM979 991v-721q0 -166 8 -270h-160l-10 162h-4q-43 -74 -126 -129.5t-202 -55.5q-63 0 -119.5 19.5t-108.5 66t-83 135.5t-31 214v579h181v-549q0 -315 221 -315q84 0 147.5 48t89.5 116q16 43 17 92v608h180z" />
<glyph unicode="&#xfa;" horiz-adv-x="1128" d="M657 1419h199l-250 -293h-129zM979 991v-721q0 -166 8 -270h-160l-10 162h-4q-43 -74 -126 -129.5t-202 -55.5q-63 0 -119.5 19.5t-108.5 66t-83 135.5t-31 214v579h181v-549q0 -315 221 -315q84 0 147.5 48t89.5 116q16 43 17 92v608h180z" />
<glyph unicode="&#xfb;" horiz-adv-x="1128" d="M500 1419h125l196 -293h-139l-119 195h-4l-119 -195h-133zM979 991v-721q0 -166 8 -270h-160l-10 162h-4q-43 -74 -126 -129.5t-202 -55.5q-63 0 -119.5 19.5t-108.5 66t-83 135.5t-31 214v579h181v-549q0 -315 221 -315q84 0 147.5 48t89.5 116q16 43 17 92v608h180z " />
<glyph unicode="&#xfc;" horiz-adv-x="1128" d="M381 1167h-2q-43 0 -73 31t-30 74t31 73.5t74 30.5t71.5 -29.5t28.5 -74.5q0 -43 -28.5 -74t-71.5 -31zM760 1167h-2q-43 0 -72 31t-29 74t30 73.5t73 30.5t71.5 -29.5t28.5 -74.5q0 -43 -28.5 -74t-71.5 -31zM979 991v-721q0 -166 8 -270h-160l-10 162h-4 q-43 -74 -126 -129.5t-202 -55.5q-63 0 -119.5 19.5t-108.5 66t-83 135.5t-31 214v579h181v-549q0 -315 221 -315q84 0 147.5 48t89.5 116q16 43 17 92v608h180z" />
<glyph unicode="&#xfd;" horiz-adv-x="964" d="M584 1419h198l-250 -293h-129zM18 991h197l217 -585q39 -111 64 -203h4q2 6 25.5 85t37.5 122l197 581h190l-270 -706q-100 -264 -175 -403.5t-165 -217.5q-109 -96 -221 -117l-45 152q86 27 157 88q96 76 152 201q14 33 14 43q0 14 -12 47z" />
<glyph unicode="&#xfe;" horiz-adv-x="1165" d="M150 1370h178v-536h4q113 180 338 180q178 2 297.5 -138.5t119.5 -367.5q0 -256 -133 -393.5t-317 -137.5q-205 0 -305 156h-4v-539h-178v1776zM328 573v-182q0 -45 20 -90q29 -84 100.5 -133t161.5 -49q135 0 216 104.5t81 282.5q0 154 -79.5 259t-213.5 105 q-88 0 -160.5 -53t-105.5 -143q-20 -58 -20 -101z" />
<glyph unicode="&#xff;" horiz-adv-x="964" d="M317 1167h-2q-43 0 -72.5 31t-29.5 74t30.5 73.5t73.5 30.5t72 -29.5t29 -74.5q0 -43 -29 -74t-72 -31zM696 1167h-2q-43 0 -71.5 31t-28.5 74t29.5 73.5t72.5 30.5t72 -29.5t29 -74.5q0 -43 -29 -74t-72 -31zM18 991h197l217 -585q39 -111 64 -203h4q2 6 25.5 85 t37.5 122l197 581h190l-270 -706q-100 -264 -175 -403.5t-165 -217.5q-109 -96 -221 -117l-45 152q86 27 157 88q96 76 152 201q14 33 14 43q0 14 -12 47z" />
<glyph unicode="&#x100;" horiz-adv-x="1253" d="M868 434h-489l-143 -434h-185l469 1380h215l471 -1380h-190zM416 573h415l-135 398q-29 84 -71 252h-4q-35 -143 -70 -250zM379 1614h489v-113h-489v113z" />
<glyph unicode="&#x101;" horiz-adv-x="987" d="M264 1317h461v-117h-461v117zM846 608v-370q0 -147 16 -238h-164l-14 125h-6q-45 -63 -124 -105.5t-179 -42.5q-143 0 -223 84t-80 201q0 180 154.5 275.5t441.5 93.5v20q0 229 -226 230q-143 0 -258 -74l-41 119q135 88 326 88q109 0 185.5 -35t116.5 -95.5t57.5 -127 t17.5 -148.5zM672 334v172q-420 8 -420 -223q0 -84 48 -128t122 -44q90 0 152.5 48t87.5 117q10 31 10 58z" />
<glyph unicode="&#x102;" horiz-adv-x="1253" d="M868 434h-489l-143 -434h-185l469 1380h215l471 -1380h-190zM416 573h415l-135 398q-29 84 -71 252h-4q-35 -143 -70 -250zM371 1673h106q23 -100 148 -100q131 0 149 100h105q-4 -96 -67.5 -156.5t-188.5 -60.5t-186.5 59.5t-65.5 157.5z" />
<glyph unicode="&#x103;" horiz-adv-x="987" d="M240 1397h106q10 -63 48 -102.5t100 -39.5q68 0 104.5 42t42.5 100h107q0 -115 -70 -184.5t-184 -69.5q-127 0 -190.5 74t-63.5 180zM846 608v-370q0 -147 16 -238h-164l-14 125h-6q-45 -63 -124 -105.5t-179 -42.5q-143 0 -223 84t-80 201q0 180 154.5 275.5t441.5 93.5 v20q0 229 -226 230q-143 0 -258 -74l-41 119q135 88 326 88q109 0 185.5 -35t116.5 -95.5t57.5 -127t17.5 -148.5zM672 334v172q-420 8 -420 -223q0 -84 48 -128t122 -44q90 0 152.5 48t87.5 117q10 31 10 58z" />
<glyph unicode="&#x104;" horiz-adv-x="1253" d="M735 1380l471 -1380l-73 -4q-109 -109 -109 -191q0 -49 28.5 -77.5t75.5 -28.5q51 0 93 20l28 -92q-61 -47 -166 -47q-88 0 -139 46t-51 130q0 117 121 252l-146 426h-489l-143 -434h-185l469 1380h215zM416 573h415l-135 398q-29 84 -71 252h-4q-35 -143 -70 -250z" />
<glyph unicode="&#x105;" horiz-adv-x="987" d="M846 608v-370q0 -150 16 -238h-51q-80 -106 -80 -197q0 -49 26.5 -75.5t71.5 -26.5q49 0 95 20l28 -94q-66 -49 -170 -49q-80 0 -131 46t-51 128q0 100 98 254l-14 119h-6q-45 -63 -124 -105.5t-179 -42.5q-143 0 -223 84t-80 201q0 180 154.5 275.5t441.5 93.5v20 q0 229 -226 230q-143 0 -258 -74l-41 119q135 88 326 88q109 0 185.5 -35t116.5 -95.5t57.5 -127t17.5 -148.5zM672 334v172q-420 8 -420 -223q0 -84 48 -128t122 -44q90 0 152.5 48t87.5 117q10 31 10 58z" />
<glyph unicode="&#x106;" horiz-adv-x="1187" d="M1083 186l37 -141q-135 -68 -364 -68q-301 0 -491.5 185.5t-190.5 515.5q0 324 199.5 524.5t521.5 200.5q209 0 327 -62l-43 -145q-119 57 -278 57q-246 0 -392.5 -150.5t-146.5 -418.5q0 -256 140.5 -405.5t390.5 -149.5q171 0 290 57zM819 1698h217l-260 -240h-147z " />
<glyph unicode="&#x107;" horiz-adv-x="917" d="M618 1419h199l-250 -293h-129zM825 172l31 -135q-115 -59 -285 -60q-223 0 -358 140.5t-135 367.5q0 231 146.5 379t385.5 148q147 0 250 -51l-41 -140q-82 47 -209 47q-164 0 -257 -106.5t-93 -267.5q0 -170 97.5 -270.5t246.5 -100.5q108 0 221 49z" />
<glyph unicode="&#x108;" horiz-adv-x="1187" d="M1083 186l37 -141q-135 -68 -364 -68q-301 0 -491.5 185.5t-190.5 515.5q0 324 199.5 524.5t521.5 200.5q209 0 327 -62l-43 -145q-119 57 -278 57q-246 0 -392.5 -150.5t-146.5 -418.5q0 -256 140.5 -405.5t390.5 -149.5q171 0 290 57zM643 1696h137l213 -234h-149 l-131 142h-4l-131 -142h-146z" />
<glyph unicode="&#x109;" horiz-adv-x="917" d="M469 1419h125l197 -293h-140l-119 195h-4l-118 -195h-134zM825 172l31 -135q-115 -59 -285 -60q-223 0 -358 140.5t-135 367.5q0 231 146.5 379t385.5 148q147 0 250 -51l-41 -140q-82 47 -209 47q-164 0 -257 -106.5t-93 -267.5q0 -170 97.5 -270.5t246.5 -100.5 q108 0 221 49z" />
<glyph unicode="&#x10a;" horiz-adv-x="1187" d="M1083 186l37 -141q-135 -68 -364 -68q-301 0 -491.5 185.5t-190.5 515.5q0 324 199.5 524.5t521.5 200.5q209 0 327 -62l-43 -145q-119 57 -278 57q-246 0 -392.5 -150.5t-146.5 -418.5q0 -256 140.5 -405.5t390.5 -149.5q171 0 290 57zM713 1473h-2q-41 0 -71 31.5 t-30 72.5t31 71.5t74 30.5q41 0 69.5 -30.5t28.5 -71.5t-29.5 -72.5t-70.5 -31.5z" />
<glyph unicode="&#x10b;" horiz-adv-x="917" d="M543 1167h-2q-43 0 -73 31t-30 74q0 45 30 75.5t75 30.5q43 0 71.5 -30.5t28.5 -75.5q0 -43 -28.5 -74t-71.5 -31zM825 172l31 -135q-115 -59 -285 -60q-223 0 -358 140.5t-135 367.5q0 231 146.5 379t385.5 148q147 0 250 -51l-41 -140q-82 47 -209 47 q-164 0 -257 -106.5t-93 -267.5q0 -170 97.5 -270.5t246.5 -100.5q108 0 221 49z" />
<glyph unicode="&#x10c;" horiz-adv-x="1187" d="M1083 186l37 -141q-135 -68 -364 -68q-301 0 -491.5 185.5t-190.5 515.5q0 324 199.5 524.5t521.5 200.5q209 0 327 -62l-43 -145q-119 57 -278 57q-246 0 -392.5 -150.5t-146.5 -418.5q0 -256 140.5 -405.5t390.5 -149.5q171 0 290 57zM791 1460h-138l-215 234h152 l131 -142h4l129 142h147z" />
<glyph unicode="&#x10d;" horiz-adv-x="917" d="M602 1126h-131l-197 293h140l121 -194h4l120 194h136zM825 172l31 -135q-115 -59 -285 -60q-223 0 -358 140.5t-135 367.5q0 231 146.5 379t385.5 148q147 0 250 -51l-41 -140q-82 47 -209 47q-164 0 -257 -106.5t-93 -267.5q0 -170 97.5 -270.5t246.5 -100.5 q108 0 221 49z" />
<glyph unicode="&#x10e;" horiz-adv-x="1363" d="M156 4v1358q190 29 379 29q375 0 559 -172q195 -178 194 -496q0 -342 -198 -537q-199 -199 -611 -198q-180 0 -323 16zM334 1231v-1090q55 -10 180 -10q285 0 436.5 152.5t151.5 433.5q2 250 -140.5 391t-418.5 141q-125 0 -209 -18zM700 1458h-137l-215 234h152 l131 -142h4l129 142h147z" />
<glyph unicode="&#x10f;" horiz-adv-x="1175" d="M825 1454h181v-1198q0 -166 8 -256h-162l-8 172h-4q-43 -86 -132.5 -140.5t-205.5 -54.5q-182 0 -303 140.5t-121 363.5q-2 240 127 386.5t317 146.5q106 0 184 -43t115 -109h4v592zM825 416v172q0 45 -8 76q-20 90 -91 149t-169 59q-137 0 -217 -107.5t-80 -275.5 q0 -158 77 -262t216 -104q92 0 166 58.5t98 156.5q8 33 8 78zM1171 1069l-75 59q74 88 73 183q0 78 -63 133l129 29q29 -18 51.5 -59.5t22.5 -90.5q-1 -143 -138 -254z" />
<glyph unicode="&#x110;" horiz-adv-x="1374" d="M-4 629v143h170v594q180 31 379 31q375 0 559 -172q195 -178 194 -502q0 -340 -198.5 -538.5t-610.5 -198.5q-197 0 -323 14v629h-170zM713 772v-143h-369v-492q59 -8 178 -8q289 0 439.5 152.5t150.5 439.5q2 252 -140.5 392t-418.5 140q-125 0 -209 -18v-463h369z" />
<glyph unicode="&#x111;" horiz-adv-x="1155" d="M1163 1130h-157v-874q0 -166 8 -256h-162l-8 172h-4q-43 -86 -132.5 -140.5t-205.5 -54.5q-182 0 -303 140.5t-121 363.5q-2 240 127 386.5t317 146.5q106 0 184 -43t115 -109h4v268h-403v113h403v211h181v-211h157v-113zM825 416v172q0 45 -8 76q-20 90 -91 149t-169 59 q-137 0 -217 -107.5t-80 -275.5q0 -158 77 -262t216 -104q92 0 166 58.5t98 156.5q8 33 8 78z" />
<glyph unicode="&#x112;" horiz-adv-x="1007" d="M870 795v-148h-536v-497h598v-150h-776v1380h745v-149h-567v-436h536zM287 1614h489v-113h-489v113z" />
<glyph unicode="&#x113;" horiz-adv-x="1026" d="M289 1317h461v-117h-461v117zM946 463h-696q2 -172 98 -258t242 -86q154 0 274 51l31 -129q-141 -63 -330 -64q-225 0 -356 137.5t-131 364.5q0 229 127 382t338 153q115 0 199.5 -46t127.5 -121t62.5 -149.5t19.5 -150.5q0 -29 -6 -84zM252 592h526q2 111 -56 202 t-194 91q-125 0 -194.5 -90t-81.5 -203z" />
<glyph unicode="&#x114;" horiz-adv-x="1007" d="M870 795v-148h-536v-497h598v-150h-776v1380h745v-149h-567v-436h536zM266 1690h107q23 -100 147 -101q131 0 150 101h104q-4 -96 -67.5 -156.5t-188.5 -60.5t-186.5 59.5t-65.5 157.5z" />
<glyph unicode="&#x115;" horiz-adv-x="1026" d="M264 1397h107q10 -63 48 -102.5t99 -39.5q68 0 104.5 42t43.5 100h106q0 -115 -69.5 -184.5t-184.5 -69.5q-127 0 -190.5 74t-63.5 180zM946 463h-696q2 -172 98 -258t242 -86q154 0 274 51l31 -129q-141 -63 -330 -64q-225 0 -356 137.5t-131 364.5q0 229 127 382 t338 153q115 0 199.5 -46t127.5 -121t62.5 -149.5t19.5 -150.5q0 -29 -6 -84zM252 592h526q2 111 -56 202t-194 91q-125 0 -194.5 -90t-81.5 -203z" />
<glyph unicode="&#x116;" horiz-adv-x="1007" d="M870 795v-148h-536v-497h598v-150h-776v1380h745v-149h-567v-436h536zM514 1477h-2q-41 0 -70.5 31.5t-29.5 72.5t30.5 71.5t73.5 30.5q41 0 69.5 -30.5t28.5 -71.5t-29.5 -72.5t-70.5 -31.5z" />
<glyph unicode="&#x117;" horiz-adv-x="1026" d="M522 1167h-2q-43 0 -72.5 31t-29.5 74q0 45 29.5 75.5t74.5 30.5q43 0 72 -30.5t29 -75.5q0 -43 -29 -74t-72 -31zM946 463h-696q2 -172 98 -258t242 -86q154 0 274 51l31 -129q-141 -63 -330 -64q-225 0 -356 137.5t-131 364.5q0 229 127 382t338 153q115 0 199.5 -46 t127.5 -121t62.5 -149.5t19.5 -150.5q0 -29 -6 -84zM252 592h526q2 111 -56 202t-194 91q-125 0 -194.5 -90t-81.5 -203z" />
<glyph unicode="&#x118;" horiz-adv-x="1007" d="M915 -283l27 -96q-70 -43 -164 -43q-88 0 -138 43t-50 123q0 76 49 144.5t115 111.5h-598v1380h745v-149h-567v-436h536v-148h-536v-497h598v-150q-4 0 -14.5 -1t-16.5 -1q-70 -43 -120 -102.5t-50 -112.5q0 -39 25.5 -60.5t68.5 -21.5q49 0 90 16z" />
<glyph unicode="&#x119;" horiz-adv-x="1026" d="M788 -279l29 -92q-68 -49 -166 -49q-84 0 -134 43t-50 119q0 68 45 131.5t104 106.5v2q-37 -4 -55 -5q-223 2 -353 139.5t-130 362.5q0 229 127 382t338 153q115 0 199.5 -46t127.5 -121t62.5 -149.5t19.5 -150.5q0 -29 -6 -84h-696q2 -172 98 -258t242 -86q154 0 274 51 l31 -129q-27 -12 -94 -35q-68 -29 -130.5 -94.5t-62.5 -124.5q0 -41 24.5 -63.5t59.5 -22.5q49 0 96 20zM252 592h526q2 111 -56 202t-194 91q-125 0 -194.5 -90t-81.5 -203z" />
<glyph unicode="&#x11a;" horiz-adv-x="1007" d="M870 795v-148h-536v-497h598v-150h-776v1380h745v-149h-567v-436h536zM596 1454h-137l-215 234h151l131 -142h4l129 142h148z" />
<glyph unicode="&#x11b;" horiz-adv-x="1026" d="M586 1126h-131l-197 293h139l121 -194h4l121 194h135zM946 463h-696q2 -172 98 -258t242 -86q154 0 274 51l31 -129q-141 -63 -330 -64q-225 0 -356 137.5t-131 364.5q0 229 127 382t338 153q115 0 199.5 -46t127.5 -121t62.5 -149.5t19.5 -150.5q0 -29 -6 -84zM252 592 h526q2 111 -56 202t-194 91q-125 0 -194.5 -90t-81.5 -203z" />
<glyph unicode="&#x11c;" horiz-adv-x="1323" d="M1206 725v-664q-211 -76 -424 -75q-326 0 -516 182q-193 186 -192 514q2 315 203.5 514t543.5 199q213 0 344 -64l-43 -145q-133 59 -305 59q-254 0 -404.5 -148.5t-150.5 -406.5q0 -260 144.5 -408.5t388.5 -148.5q164 0 237 37v412h-280v143h454zM668 1694h137 l213 -234h-150l-131 142h-4l-131 -142h-145z" />
<glyph unicode="&#x11d;" horiz-adv-x="1144" d="M508 1425h125l196 -292h-139l-119 194h-4l-118 -194h-134zM995 719v-576q0 -326 -141 -452q-127 -119 -360 -119q-207 0 -330 82l45 137q125 -78 291 -78q147 0 233 84t86 262v111h-4q-100 -166 -315 -166q-182 0 -302 138.5t-120 344.5q0 240 133 383.5t313 143.5 q219 0 310 -172h4l8 149h158q-9 -143 -9 -272zM817 422v178q0 51 -10 82q-27 84 -92.5 137t-159.5 53q-131 0 -213 -102t-82 -272q0 -154 77 -255.5t216 -101.5q84 0 152.5 50.5t97.5 134.5q14 43 14 96z" />
<glyph unicode="&#x11e;" horiz-adv-x="1323" d="M1206 725v-664q-211 -76 -424 -75q-326 0 -516 182q-193 186 -192 514q2 315 203.5 514t543.5 199q213 0 344 -64l-43 -145q-133 59 -305 59q-254 0 -404.5 -148.5t-150.5 -406.5q0 -260 144.5 -408.5t388.5 -148.5q164 0 237 37v412h-280v143h454zM471 1694h107 q23 -100 147 -101q131 0 149 101h105q-4 -96 -67.5 -156.5t-188.5 -60.5t-186.5 59.5t-65.5 157.5z" />
<glyph unicode="&#x11f;" horiz-adv-x="1144" d="M303 1397h107q10 -63 48 -102.5t99 -39.5q68 0 104.5 42t43.5 100h106q0 -115 -69.5 -184.5t-184.5 -69.5q-127 0 -190.5 74t-63.5 180zM995 719v-576q0 -326 -141 -452q-127 -119 -360 -119q-207 0 -330 82l45 137q125 -78 291 -78q147 0 233 84t86 262v111h-4 q-100 -166 -315 -166q-182 0 -302 138.5t-120 344.5q0 240 133 383.5t313 143.5q219 0 310 -172h4l8 149h158q-9 -143 -9 -272zM817 422v178q0 51 -10 82q-27 84 -92.5 137t-159.5 53q-131 0 -213 -102t-82 -272q0 -154 77 -255.5t216 -101.5q84 0 152.5 50.5t97.5 134.5 q14 43 14 96z" />
<glyph unicode="&#x120;" horiz-adv-x="1323" d="M1206 725v-664q-211 -76 -424 -75q-326 0 -516 182q-193 186 -192 514q2 315 203.5 514t543.5 199q213 0 344 -64l-43 -145q-133 59 -305 59q-254 0 -404.5 -148.5t-150.5 -406.5q0 -260 144.5 -408.5t388.5 -148.5q164 0 237 37v412h-280v143h454zM741 1473h-2 q-41 0 -70.5 31.5t-29.5 72.5t30.5 71.5t73.5 30.5q41 0 70 -30.5t29 -71.5t-30 -72.5t-71 -31.5z" />
<glyph unicode="&#x121;" horiz-adv-x="1144" d="M571 1174h-2q-43 0 -72.5 30.5t-29.5 73.5q0 45 29.5 75.5t74.5 30.5q43 0 72 -30.5t29 -75.5q0 -43 -29 -73.5t-72 -30.5zM995 719v-576q0 -326 -141 -452q-127 -119 -360 -119q-207 0 -330 82l45 137q125 -78 291 -78q147 0 233 84t86 262v111h-4q-100 -166 -315 -166 q-182 0 -302 138.5t-120 344.5q0 240 133 383.5t313 143.5q219 0 310 -172h4l8 149h158q-9 -143 -9 -272zM817 422v178q0 51 -10 82q-27 84 -92.5 137t-159.5 53q-131 0 -213 -102t-82 -272q0 -154 77 -255.5t216 -101.5q84 0 152.5 50.5t97.5 134.5q14 43 14 96z" />
<glyph unicode="&#x122;" horiz-adv-x="1323" d="M1206 725v-664q-211 -76 -424 -75q-326 0 -516 182q-193 186 -192 514q2 315 203.5 514t543.5 199q213 0 344 -64l-43 -145q-133 59 -305 59q-254 0 -404.5 -148.5t-150.5 -406.5q0 -260 144.5 -408.5t388.5 -148.5q164 0 237 37v412h-280v143h454zM610 -455l-35 84 q154 27 154 135q0 70 -70 123l134 29q82 -53 81 -149q0 -104 -77.5 -160t-186.5 -62z" />
<glyph unicode="&#x123;" horiz-adv-x="1144" d="M995 719v-576q0 -326 -141 -452q-127 -119 -360 -119q-207 0 -330 82l45 137q125 -78 291 -78q147 0 233 84t86 262v111h-4q-100 -166 -315 -166q-182 0 -302 138.5t-120 344.5q0 240 133 383.5t313 143.5q219 0 310 -172h4l8 149h158q-9 -143 -9 -272zM817 422v178 q0 51 -10 82q-27 84 -92.5 137t-159.5 53q-131 0 -213 -102t-82 -272q0 -154 77 -255.5t216 -101.5q84 0 152.5 50.5t97.5 134.5q14 43 14 96zM692 1452l35 -76q-160 -23 -160 -133q0 -61 72 -121l-129 -26q-82 53 -82 145q0 100 79 152.5t185 58.5z" />
<glyph unicode="&#x124;" horiz-adv-x="1335" d="M156 1380h178v-577h667v577h181v-1380h-181v647h-667v-647h-178v1380zM600 1688h137l213 -234h-149l-131 141h-4l-131 -141h-146z" />
<glyph unicode="&#x125;" horiz-adv-x="1136" d="M150 0v1454h180v-618h4q45 80 129 127q88 51 184 51q57 0 111.5 -19.5t111 -63.5t90 -132t33.5 -209v-590h-180v569q0 131 -55.5 213t-173.5 82q-84 0 -149.5 -51t-92.5 -129q-12 -29 -12 -86v-598h-180zM178 1726h137l213 -233h-149l-131 141h-4l-131 -141h-146z" />
<glyph unicode="&#x126;" horiz-adv-x="1345" d="M1303 981h-117v-981h-180v618h-668v-618h-178v981h-117v119h117v280h178v-280h668v280h180v-280h117v-119zM1006 772v209h-668v-209h668z" />
<glyph unicode="&#x127;" horiz-adv-x="1136" d="M993 0h-180v569q0 131 -55.5 213t-173.5 82q-84 0 -149.5 -51t-92.5 -129q-12 -29 -12 -86v-598h-180v1130h-158v113h158v211h180v-211h395v-113h-395v-294h4q45 80 129 127q88 51 184 51q57 0 111.5 -19.5t111 -63.5t90 -132t33.5 -209v-590z" />
<glyph unicode="&#x128;" horiz-adv-x="489" d="M156 1380h178v-1380h-178v1380zM88 1464h-96q-4 94 33.5 151.5t105.5 57.5q43 0 121 -41q66 -37 98 -37q25 0 38 16.5t18 63.5h94q4 -199 -138 -198q-47 0 -124 39q-74 39 -97 38q-47 0 -53 -90z" />
<glyph unicode="&#x129;" horiz-adv-x="479" d="M86 1161h-98q-2 98 34.5 155.5t104.5 57.5q47 0 127 -45q61 -35 86 -35q51 0 57 88h97q4 -207 -142 -206q-47 0 -125 41q-61 37 -88 36q-47 0 -53 -92zM330 0h-180v991h180v-991z" />
<glyph unicode="&#x12a;" horiz-adv-x="489" d="M156 1380h178v-1380h-178v1380zM2 1614h490v-113h-490v113z" />
<glyph unicode="&#x12b;" horiz-adv-x="479" d="M10 1317h461v-117h-461v117zM330 0h-180v991h180v-991z" />
<glyph unicode="&#x12c;" horiz-adv-x="489" d="M156 1380h178v-1380h-178v1380zM-8 1686h106q23 -100 148 -101q131 0 149 101h105q-4 -96 -67.5 -157t-188.5 -61t-186.5 60t-65.5 158z" />
<glyph unicode="&#x12d;" horiz-adv-x="479" d="M-8 1397h106q10 -63 48 -102.5t100 -39.5q68 0 104.5 42t42.5 100h107q0 -115 -70 -184.5t-184 -69.5q-127 0 -190.5 74t-63.5 180zM330 0h-180v991h180v-991z" />
<glyph unicode="&#x12e;" horiz-adv-x="489" d="M334 1380v-1380h-62q-84 -117 -84 -201q0 -51 29 -78.5t76 -27.5q51 0 92 18l29 -92q-61 -47 -166 -47q-86 0 -138.5 46t-52.5 130q0 104 99 252v1380h178z" />
<glyph unicode="&#x12f;" horiz-adv-x="479" d="M238 1167h-2q-47 0 -79 34t-32 81q0 49 32.5 82t82.5 33q51 0 82.5 -33t31.5 -82q0 -47 -32.5 -81t-83.5 -34zM330 991v-991h-62q-86 -121 -86 -201q0 -51 29 -78.5t76 -27.5q49 0 94 18l27 -92q-61 -47 -166 -47q-86 0 -137.5 46t-51.5 130q0 109 97 252v991h180z" />
<glyph unicode="&#x130;" horiz-adv-x="489" d="M156 1380h178v-1380h-178v1380zM248 1477h-2q-41 0 -71 31.5t-30 72.5t31 71.5t74 30.5q41 0 69.5 -30.5t28.5 -71.5t-29.5 -72.5t-70.5 -31.5z" />
<glyph unicode="&#x131;" horiz-adv-x="479" d="M330 0h-180v991h180v-991z" />
<glyph unicode="&#x132;" horiz-adv-x="1247" d="M156 1380h178v-1380h-178v1380zM928 471v909h178v-923q0 -479 -418 -480q-111 0 -190 33l26 146q68 -27 150 -27q129 0 191.5 74.5t62.5 267.5z" />
<glyph unicode="&#x133;" horiz-adv-x="976" d="M330 0h-180v991h180v-991zM239.5 1382q49.5 0 80 -31.5t30.5 -80.5q2 -47 -29.5 -79t-84.5 -32q-47 0 -78 32t-31 79t31.5 79.5t81 32.5zM406 -432l-19 141q137 10 197 76q39 43 53 121t14 252v833h180v-903q0 -287 -118 -407q-55 -55 -141 -84t-166 -29zM743 1382 q49 0 79 -31.5t30 -80.5q2 -47 -29.5 -79t-83.5 -32q-49 0 -79.5 33t-30.5 78q0 49 31.5 80.5t82.5 31.5z" />
<glyph unicode="&#x134;" horiz-adv-x="757" d="M438 471v909h178v-923q0 -479 -417 -480q-111 0 -191 33l27 146q68 -27 149 -27q129 0 191.5 74.5t62.5 267.5zM451 1688h137l213 -234h-150l-131 141h-4l-131 -141h-145z" />
<glyph unicode="&#x135;" horiz-adv-x="497" d="M-74 -432l-18 141q137 10 196 76q39 43 53.5 121t14.5 252v833h180v-903q0 -287 -119 -407q-55 -55 -141 -84t-166 -29zM186 1405h125l197 -293h-139l-119 195h-4l-119 -195h-133z" />
<glyph unicode="&#x136;" horiz-adv-x="1110" d="M156 0v1380h178v-665h6q47 68 109 147l421 518h222l-500 -585l538 -795h-210l-455 678l-131 -152v-526h-178zM440 -451l-34 84q154 27 153 136q0 70 -70 122l134 29q82 -53 82 -149q0 -104 -78 -160t-187 -62z" />
<glyph unicode="&#x137;" horiz-adv-x="960" d="M328 1454v-917h4q29 41 88 112l291 342h217l-383 -407l436 -584h-219l-342 475l-92 -102v-373h-178v1454h178zM362 -455l-34 84q154 25 153 135q0 70 -69 123l133 29q82 -53 82 -149q0 -104 -78 -160t-187 -62z" />
<glyph unicode="&#x138;" horiz-adv-x="960" d="M328 991v-454h4q29 41 88 112l291 342h217l-383 -407l436 -584h-219l-342 475l-92 -102v-373h-178v991h178z" />
<glyph unicode="&#x139;" horiz-adv-x="966" d="M156 0v1380h178v-1230h590v-150h-768zM367 1694h217l-260 -240h-148z" />
<glyph unicode="&#x13a;" horiz-adv-x="483" d="M150 0v1454h180v-1454h-180zM315 1753h217l-260 -240h-147z" />
<glyph unicode="&#x13b;" horiz-adv-x="966" d="M156 0v1380h178v-1230h590v-150h-768zM383 -455l-35 84q154 27 154 135q0 70 -70 123l133 29q82 -53 82 -149q0 -104 -77.5 -160t-186.5 -62z" />
<glyph unicode="&#x13c;" horiz-adv-x="483" d="M150 0v1454h180v-1454h-180zM106 -455l-34 84q154 25 153 135q0 70 -69 123l133 29q82 -53 82 -149q0 -104 -78 -160t-187 -62z" />
<glyph unicode="&#x13d;" horiz-adv-x="966" d="M156 0v1380h178v-1230h590v-150h-768zM532 1032l-34 84q154 27 153 135q0 70 -69 123l133 29q82 -53 82 -150q0 -104 -78 -159.5t-187 -61.5z" />
<glyph unicode="&#x13e;" horiz-adv-x="499" d="M150 0v1454h180v-1454h-180zM492 1069l-80 59q74 92 73 183q0 78 -63 133l129 29q29 -18 50.5 -60.5t21.5 -93.5q0 -23 -3.5 -43.5t-7.5 -37.5t-12 -35l-14 -29q-6 -12 -17.5 -26.5l-17.5 -22t-17.5 -18.5l-16.5 -15.5t-15 -14.5z" />
<glyph unicode="&#x13f;" horiz-adv-x="966" d="M156 0v1380h178v-1230h590v-150h-768zM698 655h-2q-41 0 -70.5 32t-29.5 73t30.5 71.5t73.5 30.5q41 0 70 -30.5t29 -71.5t-30 -73t-71 -32z" />
<glyph unicode="&#x140;" horiz-adv-x="557" d="M150 0v1454h180v-1454h-180zM518 698h-2q-41 0 -68.5 31t-27.5 72q0 43 28.5 72.5t69.5 29.5t67.5 -28.5t26.5 -73.5q0 -41 -26.5 -72t-67.5 -31z" />
<glyph unicode="&#x141;" horiz-adv-x="974" d="M932 0h-768v553l-172 -127v139l172 125v690h178v-567l274 199v-142l-274 -196v-524h590v-150z" />
<glyph unicode="&#x142;" horiz-adv-x="495" d="M338 0h-180v590l-140 -119v141l140 121v721h180v-584l145 125v-143l-145 -125v-727z" />
<glyph unicode="&#x143;" horiz-adv-x="1347" d="M324 0h-168v1380h194l443 -698q150 -236 247 -449l4 3q-20 231 -20 567v577h168v-1380h-180l-439 700q-170 270 -258 461l-6 -2q14 -244 15 -569v-590zM760 1694h217l-260 -240h-148z" />
<glyph unicode="&#x144;" horiz-adv-x="1136" d="M651 1419h199l-250 -293h-129zM150 0v723q0 160 -9 268h160l10 -164h4q41 78 127 132.5t201 54.5q57 0 113.5 -19.5t112 -63.5t90 -131t34.5 -208v-592h-180v571q0 131 -55.5 212t-173.5 81q-86 0 -151.5 -53t-90.5 -131q-12 -33 -12 -84v-596h-180z" />
<glyph unicode="&#x145;" horiz-adv-x="1347" d="M324 0h-168v1380h194l443 -698q150 -236 247 -449l4 3q-20 231 -20 567v577h168v-1380h-180l-439 700q-170 270 -258 461l-6 -2q14 -244 15 -569v-590zM553 -453l-35 84q154 27 154 136q0 70 -70 122l133 29q82 -53 82 -149q0 -104 -77.5 -160t-186.5 -62z" />
<glyph unicode="&#x146;" horiz-adv-x="1136" d="M150 0v723q0 160 -9 268h160l10 -164h4q41 78 127 132.5t201 54.5q57 0 113.5 -19.5t112 -63.5t90 -131t34.5 -208v-592h-180v571q0 131 -55.5 212t-173.5 81q-86 0 -151.5 -53t-90.5 -131q-12 -33 -12 -84v-596h-180zM453 -453l-35 84q154 25 153 136q0 70 -69 122 l133 29q82 -53 82 -149q0 -104 -77.5 -160t-186.5 -62z" />
<glyph unicode="&#x147;" horiz-adv-x="1347" d="M324 0h-168v1380h194l443 -698q150 -236 247 -449l4 3q-20 231 -20 567v577h168v-1380h-180l-439 700q-170 270 -258 461l-6 -2q14 -244 15 -569v-590zM745 1444h-137l-215 233h152l131 -141h4l129 141h147z" />
<glyph unicode="&#x148;" horiz-adv-x="1136" d="M635 1126h-131l-197 293h139l121 -194h4l121 194h135zM150 0v723q0 160 -9 268h160l10 -164h4q41 78 127 132.5t201 54.5q57 0 113.5 -19.5t112 -63.5t90 -131t34.5 -208v-592h-180v571q0 131 -55.5 212t-173.5 81q-86 0 -151.5 -53t-90.5 -131q-12 -33 -12 -84v-596 h-180z" />
<glyph unicode="&#x149;" horiz-adv-x="1136" d="M150 0v723q0 160 -9 268h160l10 -164h4q41 78 127 132.5t201 54.5q57 0 113.5 -19.5t112 -63.5t90 -131t34.5 -208v-592h-180v571q0 131 -55.5 212t-173.5 81q-86 0 -151.5 -53t-90.5 -131q-12 -33 -12 -84v-596h-180zM115 1098l-78 59q76 84 76 168q0 68 -64 121l131 35 q72 -43 72 -148q0 -133 -137 -235z" />
<glyph unicode="&#x14a;" horiz-adv-x="1347" d="M324 0h-168v1380h194l443 -698q150 -236 247 -449l4 3q-20 231 -20 567v577h168v-1302q0 -426 -395 -486l-37 140q123 25 186.5 86t73.5 170l-447 712q-170 270 -258 461l-6 -2q14 -244 15 -569v-590z" />
<glyph unicode="&#x14b;" horiz-adv-x="1136" d="M150 0v723q0 160 -9 268h160l10 -164h4q41 78 127 132.5t201 54.5q57 0 113.5 -19.5t112 -63.5t90 -131t34.5 -208v-471q0 -223 -106.5 -343t-282.5 -145l-35 144q244 49 244 327v467q0 131 -55.5 212t-173.5 81q-86 0 -151.5 -53t-90.5 -131q-12 -33 -12 -84v-596h-180z " />
<glyph unicode="&#x14c;" horiz-adv-x="1411" d="M714.5 1403q280.5 0 450.5 -194.5t170 -503.5q0 -344 -182 -536t-459 -192q-274 0 -447 195t-173 506q0 326 180 525.5t460.5 199.5zM707 1257q-211 0 -327 -166.5t-116 -408.5q0 -231 119 -395t322 -164q205 0 323.5 164t118.5 409q0 225 -115.5 393t-324.5 168z M461 1624h489v-113h-489v113z" />
<glyph unicode="&#x14d;" horiz-adv-x="1124" d="M332 1317h461v-117h-461v117zM569 1014q213 0 345.5 -141.5t132.5 -368.5q0 -256 -146.5 -391.5t-347.5 -135.5q-205 0 -340 139.5t-135 370.5q0 242 139 384.5t352 142.5zM565 879q-150 0 -227.5 -114t-77.5 -271q0 -164 85 -272.5t216 -108.5q129 0 215 109.5t86 275.5 q0 90 -28.5 173t-98.5 145.5t-170 62.5z" />
<glyph unicode="&#x14e;" horiz-adv-x="1411" d="M714.5 1403q280.5 0 450.5 -194.5t170 -503.5q0 -344 -182 -536t-459 -192q-274 0 -447 195t-173 506q0 326 180 525.5t460.5 199.5zM707 1257q-211 0 -327 -166.5t-116 -408.5q0 -231 119 -395t322 -164q205 0 323.5 164t118.5 409q0 225 -115.5 393t-324.5 168z M451 1700h106q23 -100 148 -101q131 0 149 101h104q-4 -96 -67.5 -156.5t-188 -60.5t-186 59.5t-65.5 157.5z" />
<glyph unicode="&#x14f;" horiz-adv-x="1124" d="M307 1397h107q10 -63 48 -102.5t99 -39.5q68 0 104.5 42t43.5 100h106q0 -115 -69.5 -184.5t-184.5 -69.5q-127 0 -190.5 74t-63.5 180zM569 1014q213 0 345.5 -141.5t132.5 -368.5q0 -256 -146.5 -391.5t-347.5 -135.5q-205 0 -340 139.5t-135 370.5q0 242 139 384.5 t352 142.5zM565 879q-150 0 -227.5 -114t-77.5 -271q0 -164 85 -272.5t216 -108.5q129 0 215 109.5t86 275.5q0 90 -28.5 173t-98.5 145.5t-170 62.5z" />
<glyph unicode="&#x150;" horiz-adv-x="1411" d="M714.5 1403q280.5 0 450.5 -194.5t170 -503.5q0 -344 -182 -536t-459 -192q-274 0 -447 195t-173 506q0 326 180 525.5t460.5 199.5zM707 1257q-211 0 -327 -166.5t-116 -408.5q0 -231 119 -395t322 -164q205 0 323.5 164t118.5 409q0 225 -115.5 393t-324.5 168z M653 1700h195l-227 -230h-132zM954 1700h197l-229 -230h-131z" />
<glyph unicode="&#x151;" horiz-adv-x="1124" d="M487 1419h177l-226 -280h-112zM782 1419h176l-225 -280h-112zM569 1014q213 0 345.5 -141.5t132.5 -368.5q0 -256 -146.5 -391.5t-347.5 -135.5q-205 0 -340 139.5t-135 370.5q0 242 139 384.5t352 142.5zM565 879q-150 0 -227.5 -114t-77.5 -271q0 -164 85 -272.5 t216 -108.5q129 0 215 109.5t86 275.5q0 90 -28.5 173t-98.5 145.5t-170 62.5z" />
<glyph unicode="&#x152;" horiz-adv-x="1830" d="M1755 150v-150h-706q-37 0 -136 -12q-127 -10 -170 -11q-311 0 -490 198t-179 505q0 336 188.5 529.5t491.5 193.5q53 0 180 -10q102 -12 131 -13h659v-149h-567v-436h535v-150h-535v-495h598zM977 150v1077q-88 31 -217 30q-229 0 -363.5 -156.5t-132.5 -412.5 q-2 -256 135.5 -410.5t376.5 -154.5q127 0 201 27z" />
<glyph unicode="&#x153;" horiz-adv-x="1767" d="M1688 465h-674q2 -164 93 -255t236 -91q135 0 267 55l32 -129q-119 -68 -321 -68q-279 0 -391 234h-6q-53 -115 -157.5 -174.5t-225.5 -59.5q-201 0 -332 140.5t-131 371.5q0 236 135 380.5t340 144.5q127 0 228.5 -62.5t146.5 -175.5h4q55 117 149.5 177.5t210.5 60.5 q90 0 163 -32t116 -81t71.5 -112.5t40 -123t11.5 -116.5t-6 -84zM555 879h-2q-147 0 -220 -118t-73 -267q0 -162 83 -271.5t212 -109.5q131 0 211 106.5t80 276.5q0 158 -74 270.5t-217 112.5zM1014 594h506q0 47 -10.5 93t-35 92t-75.5 75t-121 29q-121 0 -188.5 -89 t-75.5 -200z" />
<glyph unicode="&#x154;" horiz-adv-x="1101" d="M156 0v1362q139 29 342 29q274 0 399 -113q109 -96 109 -262q0 -131 -73 -222.5t-188 -129.5v-7q152 -53 203 -278q76 -319 107 -379h-185q-31 55 -92 330q-31 143 -93 203.5t-183 64.5h-168v-598h-178zM334 1237v-504h182q141 0 226 72t85 190q0 129 -85 192.5 t-232 65.5q-119 0 -176 -16zM618 1700h218l-261 -240h-147z" />
<glyph unicode="&#x155;" horiz-adv-x="669" d="M442 1419h199l-250 -293h-129zM150 0v682q0 186 -9 309h158l6 -194h8q33 100 109 158.5t166 58.5q27 0 51 -6v-170q-29 6 -61 6q-94 0 -159 -63.5t-83 -168.5q-8 -49 -8 -84v-528h-178z" />
<glyph unicode="&#x156;" horiz-adv-x="1101" d="M156 0v1362q139 29 342 29q274 0 399 -113q109 -96 109 -262q0 -131 -73 -222.5t-188 -129.5v-7q152 -53 203 -278q76 -319 107 -379h-185q-31 55 -92 330q-31 143 -93 203.5t-183 64.5h-168v-598h-178zM334 1237v-504h182q141 0 226 72t85 190q0 129 -85 192.5 t-232 65.5q-119 0 -176 -16zM434 -440l-35 84q154 27 154 135q0 70 -70 123l133 28q82 -53 82 -149q0 -104 -77.5 -159.5t-186.5 -61.5z" />
<glyph unicode="&#x157;" horiz-adv-x="669" d="M150 0v682q0 186 -9 309h158l6 -194h8q33 100 109 158.5t166 58.5q27 0 51 -6v-170q-29 6 -61 6q-94 0 -159 -63.5t-83 -168.5q-8 -49 -8 -84v-528h-178zM123 -455l-35 84q154 25 154 135q0 70 -70 123l133 29q82 -53 82 -149q0 -104 -77.5 -160t-186.5 -62z" />
<glyph unicode="&#x158;" horiz-adv-x="1101" d="M156 0v1362q139 29 342 29q274 0 399 -113q109 -96 109 -262q0 -131 -73 -222.5t-188 -129.5v-7q152 -53 203 -278q76 -319 107 -379h-185q-31 55 -92 330q-31 143 -93 203.5t-183 64.5h-168v-598h-178zM334 1237v-504h182q141 0 226 72t85 190q0 129 -85 192.5 t-232 65.5q-119 0 -176 -16zM608 1460h-137l-215 234h152l131 -142h4l129 142h147z" />
<glyph unicode="&#x159;" horiz-adv-x="669" d="M438 1126h-131l-196 293h139l121 -194h4l121 194h135zM150 0v682q0 186 -9 309h158l6 -194h8q33 100 109 158.5t166 58.5q27 0 51 -6v-170q-29 6 -61 6q-94 0 -159 -63.5t-83 -168.5q-8 -49 -8 -84v-528h-178z" />
<glyph unicode="&#x15a;" horiz-adv-x="1009" d="M86 68l45 149q147 -90 320 -90q135 0 211.5 64.5t76.5 170.5q0 96 -59 159t-201 116q-365 129 -364 391q0 164 123.5 269.5t322.5 105.5q186 0 305 -68l-49 -145q-121 66 -262 65q-129 0 -194.5 -62.5t-65.5 -143.5q0 -94 62.5 -151.5t211.5 -115.5q182 -70 267.5 -164 t85.5 -241q0 -170 -125 -285t-359 -115q-98 0 -196.5 26t-155.5 65zM612 1700h217l-260 -240h-147z" />
<glyph unicode="&#x15b;" horiz-adv-x="811" d="M500 1419h198l-249 -293h-130zM80 47l45 137q111 -72 237 -71q94 0 143.5 41t49.5 106q0 63 -42 104.5t-142 77.5q-262 94 -262 281q0 123 93 207t249 84q139 0 243 -62l-45 -131q-90 57 -203 58q-78 0 -121.5 -39t-43.5 -97q0 -59 42 -94t146 -74q133 -51 196.5 -120.5 t63.5 -178.5q0 -133 -98.5 -216t-272.5 -83q-159 0 -278 70z" />
<glyph unicode="&#x15c;" horiz-adv-x="1009" d="M86 68l45 149q147 -90 320 -90q135 0 211.5 64.5t76.5 170.5q0 96 -59 159t-201 116q-365 129 -364 391q0 164 123.5 269.5t322.5 105.5q186 0 305 -68l-49 -145q-121 66 -262 65q-129 0 -194.5 -62.5t-65.5 -143.5q0 -94 62.5 -151.5t211.5 -115.5q182 -70 267.5 -164 t85.5 -241q0 -170 -125 -285t-359 -115q-98 0 -196.5 26t-155.5 65zM438 1694h137l213 -234h-149l-131 142h-4l-131 -142h-146z" />
<glyph unicode="&#x15d;" horiz-adv-x="811" d="M346 1419h125l197 -293h-140l-118 195h-4l-119 -195h-133zM80 47l45 137q111 -72 237 -71q94 0 143.5 41t49.5 106q0 63 -42 104.5t-142 77.5q-262 94 -262 281q0 123 93 207t249 84q139 0 243 -62l-45 -131q-90 57 -203 58q-78 0 -121.5 -39t-43.5 -97q0 -59 42 -94 t146 -74q133 -51 196.5 -120.5t63.5 -178.5q0 -133 -98.5 -216t-272.5 -83q-159 0 -278 70z" />
<glyph unicode="&#x15e;" horiz-adv-x="1009" d="M86 68l45 149q147 -90 320 -90q135 0 211.5 64.5t76.5 170.5q0 96 -59 159t-201 116q-365 129 -364 391q0 164 123.5 269.5t322.5 105.5q186 0 305 -68l-49 -145q-121 66 -262 65q-129 0 -194.5 -62.5t-65.5 -143.5q0 -94 62.5 -151.5t211.5 -115.5q182 -70 267.5 -164 t85.5 -241q0 -143 -92.5 -250t-266.5 -137l-57 -92q59 -8 101 -48t42 -96q0 -82 -60.5 -123t-150.5 -41q-84 0 -143 35l31 88q55 -31 112 -30q37 0 61.5 16t24.5 49q0 70 -159 86l81 143h-14q-90 0 -189.5 26t-156.5 65z" />
<glyph unicode="&#x15f;" horiz-adv-x="811" d="M80 47l45 137q111 -72 237 -71q94 0 143.5 41t49.5 106q0 63 -42 104.5t-142 77.5q-262 94 -262 281q0 123 93 207t249 84q139 0 243 -62l-45 -131q-90 57 -203 58q-78 0 -121.5 -39t-43.5 -97q0 -59 42 -94t146 -74q133 -51 196.5 -120.5t63.5 -178.5 q0 -111 -68.5 -187.5t-195.5 -100.5l-57 -90q59 -8 101 -47t42 -95q0 -86 -59.5 -126t-153.5 -40q-80 0 -139 35l30 88q49 -31 111 -30q88 0 88 65q-2 72 -160 86l82 146h-8q-141 -1 -262 67z" />
<glyph unicode="&#x160;" horiz-adv-x="1009" d="M86 68l45 149q147 -90 320 -90q135 0 211.5 64.5t76.5 170.5q0 96 -59 159t-201 116q-365 129 -364 391q0 164 123.5 269.5t322.5 105.5q186 0 305 -68l-49 -145q-121 66 -262 65q-129 0 -194.5 -62.5t-65.5 -143.5q0 -94 62.5 -151.5t211.5 -115.5q182 -70 267.5 -164 t85.5 -241q0 -170 -125 -285t-359 -115q-98 0 -196.5 26t-155.5 65zM598 1460h-137l-215 234h151l131 -142h4l130 142h147z" />
<glyph unicode="&#x161;" horiz-adv-x="811" d="M481 1126h-131l-196 293h139l121 -194h4l121 194h135zM80 47l45 137q111 -72 237 -71q94 0 143.5 41t49.5 106q0 63 -42 104.5t-142 77.5q-262 94 -262 281q0 123 93 207t249 84q139 0 243 -62l-45 -131q-90 57 -203 58q-78 0 -121.5 -39t-43.5 -97q0 -59 42 -94t146 -74 q133 -51 196.5 -120.5t63.5 -178.5q0 -133 -98.5 -216t-272.5 -83q-159 0 -278 70z" />
<glyph unicode="&#x162;" horiz-adv-x="1017" d="M418 0v1229h-420v151h1022v-151h-422v-1229h-180zM369 -455l-35 84q154 27 153 135q0 70 -69 123l133 29q82 -53 82 -149q0 -104 -77.5 -160t-186.5 -62z" />
<glyph unicode="&#x163;" horiz-adv-x="677" d="M190 1174l177 55v-238h258v-137h-258v-535q0 -193 135 -192q63 0 104 12l8 -135q-66 -27 -159 -27q-127 0 -195 78q-70 72 -70 258v541h-153v137h153v183zM250 -465l-35 84q154 25 154 135q0 70 -70 123l133 29q82 -53 82 -150q0 -104 -77.5 -159.5t-186.5 -61.5z" />
<glyph unicode="&#x164;" horiz-adv-x="1017" d="M418 0v1229h-420v151h1022v-151h-422v-1229h-180zM578 1454h-138l-215 234h152l131 -142h4l129 142h147z" />
<glyph unicode="&#x165;" horiz-adv-x="694" d="M190 1174l177 55v-238h258v-137h-258v-535q0 -193 135 -192q63 0 104 12l8 -135q-66 -27 -159 -27q-127 0 -195 78q-70 72 -70 258v541h-153v137h153v183zM567 1108l-53 72q78 59 78 151q0 68 -62 121l129 27q72 -47 72 -142q0 -90 -53.5 -147t-110.5 -82z" />
<glyph unicode="&#x166;" horiz-adv-x="1017" d="M1020 1229h-422v-455h254v-119h-254v-655h-180v655h-254v119h254v455h-420v151h1022v-151z" />
<glyph unicode="&#x167;" horiz-adv-x="677" d="M625 854h-258v-236h200v-110h-200v-197q0 -184 135 -184q63 0 104 12l8 -135q-66 -27 -159 -27q-127 0 -195 78q-70 72 -70 258v195h-137v110h137v236h-153v137h153v183l177 55v-238h258v-137z" />
<glyph unicode="&#x168;" horiz-adv-x="1325" d="M154 1380h180v-817q0 -221 88 -330.5t233 -109.5q160 0 248 108.5t88 331.5v817h180v-805q0 -303 -142 -450.5t-380 -147.5q-227 0 -361 142.5t-134 447.5v813zM504 1464h-96q-4 94 33.5 151.5t105.5 57.5q43 0 121 -41q66 -37 98 -37q25 0 38 16.5t17 63.5h94 q4 -199 -137 -198q-47 0 -125 39q-74 39 -96 38q-47 0 -53 -90z" />
<glyph unicode="&#x169;" horiz-adv-x="1128" d="M410 1161h-99q-2 98 35 155.5t105 57.5q47 0 127 -45q61 -35 86 -35q51 0 57 88h96q4 -207 -141 -206q-47 0 -125 41q-61 37 -88 36q-47 0 -53 -92zM979 991v-721q0 -166 8 -270h-160l-10 162h-4q-43 -74 -126 -129.5t-202 -55.5q-63 0 -119.5 19.5t-108.5 66t-83 135.5 t-31 214v579h181v-549q0 -315 221 -315q84 0 147.5 48t89.5 116q16 43 17 92v608h180z" />
<glyph unicode="&#x16a;" horiz-adv-x="1325" d="M154 1380h180v-817q0 -221 88 -330.5t233 -109.5q160 0 248 108.5t88 331.5v817h180v-805q0 -303 -142 -450.5t-380 -147.5q-227 0 -361 142.5t-134 447.5v813zM418 1614h489v-113h-489v113z" />
<glyph unicode="&#x16b;" horiz-adv-x="1128" d="M334 1317h461v-117h-461v117zM979 991v-721q0 -166 8 -270h-160l-10 162h-4q-43 -74 -126 -129.5t-202 -55.5q-63 0 -119.5 19.5t-108.5 66t-83 135.5t-31 214v579h181v-549q0 -315 221 -315q84 0 147.5 48t89.5 116q16 43 17 92v608h180z" />
<glyph unicode="&#x16c;" horiz-adv-x="1325" d="M154 1380h180v-817q0 -221 88 -330.5t233 -109.5q160 0 248 108.5t88 331.5v817h180v-805q0 -303 -142 -450.5t-380 -147.5q-227 0 -361 142.5t-134 447.5v813zM408 1694h106q23 -100 148 -101q131 0 149 101h104q-4 -96 -67.5 -156.5t-188 -60.5t-186 59.5t-65.5 157.5z " />
<glyph unicode="&#x16d;" horiz-adv-x="1128" d="M309 1397h107q10 -63 48 -102.5t99 -39.5q68 0 105 42t43 100h106q0 -115 -69.5 -184.5t-184.5 -69.5q-127 0 -190.5 74t-63.5 180zM979 991v-721q0 -166 8 -270h-160l-10 162h-4q-43 -74 -126 -129.5t-202 -55.5q-63 0 -119.5 19.5t-108.5 66t-83 135.5t-31 214v579h181 v-549q0 -315 221 -315q84 0 147.5 48t89.5 116q16 43 17 92v608h180z" />
<glyph unicode="&#x16e;" horiz-adv-x="1325" d="M154 1380h180v-817q0 -221 88 -330.5t233 -109.5q160 0 248 108.5t88 331.5v817h180v-805q0 -303 -142 -450.5t-380 -147.5q-227 0 -361 142.5t-134 447.5v813zM666 1788h2q90 0 145 -53.5t55 -132.5q0 -78 -57 -129.5t-145 -51.5q-92 0 -149.5 52.5t-57.5 128.5 q0 80 57.5 133t149.5 53zM662 1712h-3q-43 0 -68.5 -31.5t-25.5 -78.5q0 -41 28 -73t69 -32q45 0 72.5 31t27.5 76t-27.5 76.5t-72.5 31.5z" />
<glyph unicode="&#x16f;" horiz-adv-x="1128" d="M565 1100q-90 0 -148.5 53t-58.5 133q0 84 57.5 139.5t151.5 55.5q90 0 146.5 -55.5t56.5 -137.5t-58.5 -135t-146.5 -53zM563 1176q47 0 77 33.5t30 80.5t-30 80t-77 33t-73.5 -34t-26.5 -83q0 -43 28.5 -76.5t71.5 -33.5zM979 991v-721q0 -166 8 -270h-160l-10 162h-4 q-43 -74 -126 -129.5t-202 -55.5q-63 0 -119.5 19.5t-108.5 66t-83 135.5t-31 214v579h181v-549q0 -315 221 -315q84 0 147.5 48t89.5 116q16 43 17 92v608h180z" />
<glyph unicode="&#x170;" horiz-adv-x="1325" d="M154 1380h180v-817q0 -221 88 -330.5t233 -109.5q160 0 248 108.5t88 331.5v817h180v-805q0 -303 -142 -450.5t-380 -147.5q-227 0 -361 142.5t-134 447.5v813zM580 1694h194l-227 -230h-131zM881 1694h196l-229 -230h-131z" />
<glyph unicode="&#x171;" horiz-adv-x="1128" d="M504 1419h176l-225 -280h-113zM799 1419h176l-225 -280h-113zM979 991v-721q0 -166 8 -270h-160l-10 162h-4q-43 -74 -126 -129.5t-202 -55.5q-63 0 -119.5 19.5t-108.5 66t-83 135.5t-31 214v579h181v-549q0 -315 221 -315q84 0 147.5 48t89.5 116q16 43 17 92v608h180z " />
<glyph unicode="&#x172;" horiz-adv-x="1325" d="M852 -276l27 -93q-70 -49 -168 -49q-86 0 -135.5 44t-49.5 120q0 109 117 234q-2 0 -6 -1.5t-6 -1.5q-219 8 -348 149.5t-129 440.5v813h180v-817q0 -221 88 -330.5t233 -109.5q160 0 248 108.5t88 331.5v817h180v-805q0 -254 -102 -398t-278 -179q-125 -115 -125 -207 q0 -41 25.5 -64.5t66.5 -23.5q47 1 94 21z" />
<glyph unicode="&#x173;" horiz-adv-x="1128" d="M979 991v-721q0 -170 8 -270l-41 6q-86 -113 -86 -201q0 -49 30 -77.5t75 -28.5q51 0 92 18l28 -92q-61 -47 -165 -47q-86 0 -138.5 46t-52.5 130q0 104 98 252l-10 156h-4q-43 -74 -126 -129.5t-202 -55.5q-63 0 -119.5 19.5t-108.5 66t-83 135.5t-31 214v579h181v-549 q0 -315 221 -315q84 0 147.5 48t89.5 116q16 43 17 92v608h180z" />
<glyph unicode="&#x174;" horiz-adv-x="1732" d="M567 0h-186l-350 1380h188l164 -698q63 -268 102 -477h4q23 139 113 479l184 696h187l168 -700q74 -307 96 -473h4q27 143 111 477l182 696h182l-391 -1380h-186l-174 719q-66 272 -91 450h-4q-39 -213 -106 -450zM801 1688h137l213 -234h-150l-131 141h-4l-131 -141 h-145z" />
<glyph unicode="&#x175;" horiz-adv-x="1507" d="M690 1419h125l197 -293h-140l-118 195h-4l-119 -195h-133zM37 991h184l131 -504q55 -213 74 -315h6q20 92 88 315l162 504h152l153 -495q55 -180 88 -324h6q20 123 76 322l141 497h179l-320 -991h-164l-151 473q-59 186 -88 326h-4q-29 -141 -91 -328l-159 -471h-164z " />
<glyph unicode="&#x176;" horiz-adv-x="1107" d="M643 0h-180v586l-436 794h202l195 -381q82 -160 137 -284h4q33 76 140 284l198 381h203l-463 -792v-588zM485 1688h138l213 -234h-150l-131 141h-4l-131 -141h-146z" />
<glyph unicode="&#x177;" horiz-adv-x="964" d="M424 1419h125l196 -293h-139l-119 195h-4l-118 -195h-134zM18 991h197l217 -585q39 -111 64 -203h4q2 6 25.5 85t37.5 122l197 581h190l-270 -706q-100 -264 -175 -403.5t-165 -217.5q-109 -96 -221 -117l-45 152q86 27 157 88q96 76 152 201q14 33 14 43q0 14 -12 47z " />
<glyph unicode="&#x178;" horiz-adv-x="1107" d="M643 0h-180v586l-436 794h202l195 -381q82 -160 137 -284h4q33 76 140 284l198 381h203l-463 -792v-588zM383 1462h-2q-43 0 -70.5 30t-27.5 75q0 43 28.5 72.5t71.5 29.5t70.5 -29.5t27.5 -72.5q0 -45 -27.5 -75t-70.5 -30zM762 1462h-2q-43 0 -70.5 31t-27.5 74 t29.5 72.5t72.5 29.5t70.5 -29.5t27.5 -72.5q0 -45 -27.5 -75t-72.5 -30z" />
<glyph unicode="&#x179;" horiz-adv-x="1132" d="M61 0v104l766 1121v6h-700v149h932v-108l-762 -1116v-6h772v-150h-1008zM666 1694h217l-260 -240h-148z" />
<glyph unicode="&#x17a;" horiz-adv-x="876" d="M532 1419h199l-250 -293h-129zM37 0v104l448 584l129 154v4h-536v145h756l-3 -112l-442 -576q-53 -72 -127 -156v-4h580v-143h-805z" />
<glyph unicode="&#x17b;" horiz-adv-x="1132" d="M61 0v104l766 1121v6h-700v149h932v-108l-762 -1116v-6h772v-150h-1008zM575 1475h-2q-41 0 -70.5 31.5t-29.5 72.5t31 71.5t74 30.5q41 0 69.5 -30.5t28.5 -71.5t-30 -72.5t-71 -31.5z" />
<glyph unicode="&#x17c;" horiz-adv-x="876" d="M444 1167h-2q-43 0 -72.5 31t-29.5 74q0 45 29.5 75.5t74.5 30.5q43 0 72 -30.5t29 -75.5q0 -43 -29 -74t-72 -31zM37 0v104l448 584l129 154v4h-536v145h756l-3 -112l-442 -576q-53 -72 -127 -156v-4h580v-143h-805z" />
<glyph unicode="&#x17d;" horiz-adv-x="1132" d="M61 0v104l766 1121v6h-700v149h932v-108l-762 -1116v-6h772v-150h-1008zM655 1454h-137l-215 234h152l131 -142h4l129 142h147z" />
<glyph unicode="&#x17e;" horiz-adv-x="876" d="M530 1126h-131l-196 293h139l121 -194h4l121 194h135zM37 0v104l448 584l129 154v4h-536v145h756l-3 -112l-442 -576q-53 -72 -127 -156v-4h580v-143h-805z" />
<glyph unicode="&#x192;" horiz-adv-x="1050" d="M227 692v129h203l12 94q10 84 34 156t67 138.5t117.5 105.5t173.5 39q90 -2 139 -31l-33 -131q-51 20 -106 20q-98 0 -150.5 -79.5t-67.5 -204.5l-12 -107h246v-129h-262l-49 -420q-27 -217 -108 -330.5t-249 -113.5q-98 0 -159 33l32 129q47 -23 115 -23q90 0 134 78 t65 244l47 403h-189z" />
<glyph unicode="&#x1a0;" horiz-adv-x="1411" d="M705 123q205 0 323.5 164t118.5 409q0 225 -116 393t-324 168q-211 0 -328 -167.5t-115 -407.5q-2 -229 118 -394t323 -165zM1214 1516l140 26q37 -82 37 -168q0 -90 -54.5 -141t-160.5 -41q160 -184 159 -487q0 -344 -182 -536t-459 -192q-274 0 -447 195t-173 506 q0 326 180 525.5t461 199.5q113 0 213 -35q20 -6 68 -26.5t89 -34t70 -13.5q92 0 92 90q0 66 -33 132z" />
<glyph unicode="&#x1a1;" horiz-adv-x="1132" d="M565 879q-150 0 -227.5 -114t-77.5 -271q0 -164 85 -272.5t216 -108.5q129 0 215 109.5t86 275.5q0 90 -28.5 173t-98.5 145.5t-170 62.5zM963 1135l137 24q35 -74 35 -149q0 -86 -49.5 -134.5t-141.5 -44.5q102 -127 103 -327q0 -256 -146.5 -391.5t-347.5 -135.5 q-205 0 -340 139.5t-135 370.5q0 242 139 384.5t352 142.5q84 0 170 -29q16 -4 50 -19.5t65 -24.5t59 -9q82 0 82 82q1 60 -32 121z" />
<glyph unicode="&#x1af;" horiz-adv-x="1386" d="M1214 1577l138 25q35 -76 34.5 -154t-47.5 -125t-137 -49l-31 -2v-697q0 -303 -142 -450.5t-380 -147.5q-227 0 -361 142.5t-134 447.5v813h180v-817q0 -221 88 -330.5t233 -109.5q160 0 248 108.5t88 331.5v817h162q51 0 72.5 18.5t21.5 59.5q0 60 -33 119z" />
<glyph unicode="&#x1b0;" horiz-adv-x="1128" d="M1001 1190l138 22q37 -68 37 -147q0 -76 -49.5 -122t-125.5 -50l-22 -2v-621q0 -166 8 -270h-160l-10 162h-4q-43 -74 -126 -129.5t-202 -55.5q-63 0 -119.5 19.5t-108.5 66t-83 135.5t-31 214v579h181v-549q0 -315 221 -315q84 0 147.5 48t89.5 116q16 43 17 92v608h141 q96 0 96 80q0 56 -35 119z" />
<glyph unicode="&#x1fa;" horiz-adv-x="1253" d="M639 1417q-84 0 -135 45t-51 112.5t51 115t137 47.5q84 0 133 -46t49 -116q0 -68 -51 -113t-133 -45zM637 1493q41 0 65.5 22.5t24.5 61.5q0 37 -25.5 61.5t-66.5 24.5q-39 0 -62.5 -25.5t-23.5 -62.5q0 -35 24.5 -58.5t63.5 -23.5zM750 1950h233l-293 -176h-158z M868 434h-489l-143 -434h-185l469 1380h215l471 -1380h-190zM416 573h415l-135 398q-29 84 -71 252h-4q-35 -143 -70 -250z" />
<glyph unicode="&#x1fb;" horiz-adv-x="987" d="M608 1708h201l-293 -217h-127zM846 608v-370q0 -147 16 -238h-164l-14 125h-6q-45 -63 -124 -105.5t-179 -42.5q-143 0 -223 84t-80 201q0 180 154.5 275.5t441.5 93.5v20q0 229 -226 230q-143 0 -258 -74l-41 119q135 88 326 88q109 0 185.5 -35t116.5 -95.5t57.5 -127 t17.5 -148.5zM672 334v172q-420 8 -420 -223q0 -84 48 -128t122 -44q90 0 152.5 48t87.5 117q10 31 10 58zM494 1065q-90 0 -148.5 53t-58.5 133q0 84 57 139.5t152 55.5q90 0 146 -55.5t56 -137.5t-58 -135t-146 -53zM492 1141q47 0 76.5 33.5t29.5 81t-29.5 80t-77 32.5 t-74 -34t-26.5 -83q0 -43 29 -76.5t72 -33.5z" />
<glyph unicode="&#x1fc;" horiz-adv-x="1613" d="M182 0h-184l631 1380h864v-149h-588l53 -440h515v-148h-492l61 -493h506l-2 -150h-657l-62 487h-424zM463 631h344l-45 397q-23 172 -25 223h-8q-20 -57 -88 -217zM999 1694h218l-261 -240h-147z" />
<glyph unicode="&#x1fd;" horiz-adv-x="1583" d="M879 1419h198l-250 -293h-129zM1503 477h-663q-4 -172 83 -266t232 -94q152 0 270 57l33 -127q-129 -70 -325 -70q-129 0 -231.5 58.5t-145.5 161.5h-4q-47 -102 -144.5 -161t-224.5 -59q-147 0 -228 83t-81 200q0 172 155.5 266.5t442.5 91.5v41q0 25 -9.5 57t-31 71.5 t-71.5 66.5t-120 27q-143 0 -254 -76l-43 119q143 90 310 90q252 0 319 -209h4q51 98 141.5 153.5t204.5 55.5q86 0 156 -32t112 -81t70.5 -112.5t38.5 -121t10 -110.5t-6 -80zM674 352v146q-422 8 -422 -224q0 -76 49 -119.5t123 -43.5q92 0 154.5 48t85.5 122q10 28 10 71 zM838 606h497q4 57 -15.5 117.5t-75.5 111t-140 50.5q-121 0 -190.5 -89.5t-75.5 -189.5z" />
<glyph unicode="&#x1fe;" horiz-adv-x="1411" d="M229 -88l-100 80l127 180q-182 195 -182 510q0 322 181 521.5t456 199.5q195 0 344 -109l121 166l108 -74l-127 -176q178 -195 178 -508q0 -344 -181 -534.5t-445 -190.5q-199 0 -351 111zM360 324l607 839q-113 96 -258 97q-213 0 -333 -167t-120 -401q0 -193 102 -370z M1051 1055l-605 -836q104 -98 259 -98q209 0 328.5 166t119.5 409q0 201 -96 359h-6zM803 1710h217l-260 -240h-148z" />
<glyph unicode="&#x1ff;" horiz-adv-x="1124" d="M645 1419h199l-250 -293h-129zM565 1014h2q135 0 250 -70l86 121l80 -55l-86 -127q150 -143 150 -379q0 -254 -145.5 -390.5t-338.5 -136.5q-147 0 -254 70l-88 -125l-76 62l86 122q-154 143 -153.5 383t139.5 382.5t348 142.5zM330 244l405 575q-72 59 -174 60 q-154 0 -231.5 -116t-77.5 -269q0 -145 74 -248zM797 739l-406 -569q66 -57 166 -57q139 0 226 108.5t87 276.5q0 139 -69 241h-4z" />
<glyph unicode="&#x218;" horiz-adv-x="1009" d="M86 68l45 149q147 -90 320 -90q135 0 211.5 64.5t76.5 170.5q0 96 -59 159t-201 116q-365 129 -364 391q0 164 123.5 269.5t322.5 105.5q186 0 305 -68l-49 -145q-121 66 -262 65q-129 0 -194.5 -62.5t-65.5 -143.5q0 -94 62.5 -151.5t211.5 -115.5q182 -70 267.5 -164 t85.5 -241q0 -170 -125 -285t-359 -115q-98 0 -196.5 26t-155.5 65zM379 -455l-35 84q154 27 154 135q0 70 -70 123l133 29q82 -53 82 -149q0 -104 -77.5 -160t-186.5 -62z" />
<glyph unicode="&#x219;" horiz-adv-x="811" d="M80 47l45 137q111 -72 237 -71q94 0 143.5 41t49.5 106q0 63 -42 104.5t-142 77.5q-262 94 -262 281q0 123 93 207t249 84q139 0 243 -62l-45 -131q-90 57 -203 58q-78 0 -121.5 -39t-43.5 -97q0 -59 42 -94t146 -74q133 -51 196.5 -120.5t63.5 -178.5q0 -133 -98.5 -216 t-272.5 -83q-159 0 -278 70zM279 -455l-35 84q154 25 153 135q0 70 -69 123l133 29q82 -53 82 -149q0 -104 -77.5 -160t-186.5 -62z" />
<glyph unicode="&#x21a;" horiz-adv-x="1017" d="M418 0v1229h-420v151h1022v-151h-422v-1229h-180zM369 -455l-35 84q154 27 153 135q0 70 -69 123l133 29q82 -53 82 -149q0 -104 -77.5 -160t-186.5 -62z" />
<glyph unicode="&#x21b;" horiz-adv-x="677" d="M190 1174l177 55v-238h258v-137h-258v-535q0 -193 135 -192q63 0 104 12l8 -135q-66 -27 -159 -27q-127 0 -195 78q-70 72 -70 258v541h-153v137h153v183zM250 -465l-35 84q154 25 154 135q0 70 -70 123l133 29q82 -53 82 -150q0 -104 -77.5 -159.5t-186.5 -61.5z" />
<glyph unicode="&#x21c;" horiz-adv-x="983" d="M129 -236l-23 142q258 39 433.5 166t175.5 301q0 119 -81 195.5t-220 74.5q-78 0 -193 -37l-24 127q180 41 295.5 132t115.5 208q0 82 -63.5 134.5t-163.5 52.5q-139 0 -281 -74l-37 121q57 37 155.5 66.5t195.5 29.5q168 0 271 -84t103 -217q0 -111 -70.5 -198 t-180.5 -138v-6q162 -16 264 -115.5t102 -259.5q0 -238 -211 -409t-563 -212z" />
<glyph unicode="&#x21d;" horiz-adv-x="874" d="M90 -428l-18 139q39 2 90 11.5t140 36t158.5 66.5t122 110.5t52.5 160.5q0 96 -66.5 159.5t-195.5 63.5q-76 0 -180 -30l-27 129q379 88 379 282q0 80 -57.5 126t-155.5 46q-111 0 -254 -77l-37 118q156 100 334 101q156 0 250 -77t94 -206q0 -98 -58.5 -173t-158.5 -114 v-6q143 -16 230 -102t87 -219q0 -209 -192.5 -362.5t-536.5 -182.5z" />
<glyph unicode="&#x232;" horiz-adv-x="1107" d="M643 0h-180v586l-436 794h202l195 -381q82 -160 137 -284h4q33 76 140 284l198 381h203l-463 -792v-588zM309 1614h490v-113h-490v113z" />
<glyph unicode="&#x233;" horiz-adv-x="964" d="M254 1317h461v-117h-461v117zM18 991h197l217 -585q39 -111 64 -203h4q2 6 25.5 85t37.5 122l197 581h190l-270 -706q-100 -264 -175 -403.5t-165 -217.5q-109 -96 -221 -117l-45 152q86 27 157 88q96 76 152 201q14 33 14 43q0 14 -12 47z" />
<glyph unicode="&#x2c6;" d="M244 1419h125l196 -293h-139l-119 195h-4l-119 -195h-133z" />
<glyph unicode="&#x2c7;" d="M375 1126h-131l-197 293h139l121 -194h4l121 194h135z" />
<glyph unicode="&#x2c9;" d="M78 1317h461v-117h-461v117z" />
<glyph unicode="&#x2d8;" d="M53 1397h107q10 -63 48 -102.5t99 -39.5q68 0 105 42t43 100h106q0 -115 -69.5 -184.5t-184.5 -69.5q-127 0 -190.5 74t-63.5 180z" />
<glyph unicode="&#x2d9;" d="M287 1167h-2q-43 0 -73 31t-30 74q0 45 30 75.5t75 30.5q43 0 71.5 -30.5t28.5 -75.5q0 -43 -28.5 -74t-71.5 -31z" />
<glyph unicode="&#x2da;" d="M291 1100q-90 0 -148.5 53t-58.5 133q0 84 57.5 139.5t151.5 55.5q90 0 146.5 -55.5t56.5 -137.5t-58.5 -135t-146.5 -53zM289 1176q47 0 76.5 33.5t29.5 80.5t-29.5 80t-76.5 33t-74 -34t-27 -83q0 -43 29 -76.5t72 -33.5z" />
<glyph unicode="&#x2db;" d="M252 8h117q-109 -137 -109 -205q0 -47 28.5 -74.5t73.5 -27.5q49 0 95 18l28 -92q-59 -47 -163 -47q-88 0 -140.5 46t-52.5 130q0 119 123 252z" />
<glyph unicode="&#x2dc;" d="M154 1161h-99q-2 98 35 155.5t105 57.5q47 0 127 -45q61 -35 86 -35q51 0 57 88h96q4 -207 -141 -206q-47 0 -125 41q-61 37 -88 36q-47 0 -53 -92z" />
<glyph unicode="&#x2dd;" d="M252 1419h176l-225 -280h-113zM547 1419h176l-225 -280h-113z" />
<glyph unicode="&#x37e;" horiz-adv-x="444" d="M186 -240l-125 -12q72 252 93 485l200 11q-27 -115 -78 -261.5t-90 -222.5zM244 662h-2q-55 0 -90 38.5t-35 94.5q0 59 35.5 98t91.5 39q57 0 92 -38t35 -99q0 -57 -35 -95t-92 -38z" />
<glyph unicode="&#x384;" horiz-adv-x="616" d="M281 1421h182l-172 -293h-119z" />
<glyph unicode="&#x385;" horiz-adv-x="708" d="M313 1454h154l-100 -321h-99zM104 1174h-2q-41 0 -67.5 28.5t-26.5 69.5t29 68.5t69 27.5q39 0 66 -27.5t27 -68.5t-27 -69.5t-68 -28.5zM600 1174h-2q-41 0 -67.5 28.5t-26.5 69.5q0 39 28.5 67.5t67.5 28.5q41 0 67.5 -27.5t26.5 -68.5t-26.5 -69.5t-67.5 -28.5z" />
<glyph unicode="&#x386;" horiz-adv-x="1259" d="M874 434h-489l-143 -434h-185l469 1380h215l471 -1380h-190zM422 573h416l-136 398q-29 84 -71 252h-4q-35 -143 -70 -250zM143 1380h162l-72 -317h-106z" />
<glyph unicode="&#x387;" horiz-adv-x="444" d="M221 514h-2q-55 0 -92 40t-35 99q0 61 37 100.5t94.5 39.5t93 -39t35.5 -101q0 -59 -36 -99t-95 -40z" />
<glyph unicode="&#x388;" horiz-adv-x="1148" d="M1012 795v-148h-535v-497h598v-150h-778v1380h747v-149h-567v-436h535zM14 1380h164l-72 -317h-106z" />
<glyph unicode="&#x389;" horiz-adv-x="1478" d="M297 1380h180v-577h666v577h180v-1380h-180v647h-666v-647h-180v1380zM14 1380h164l-72 -317h-106z" />
<glyph unicode="&#x38a;" horiz-adv-x="632" d="M297 1380h180v-1380h-180v1380zM14 1380h164l-72 -317h-106z" />
<glyph unicode="&#x38c;" horiz-adv-x="1490" d="M778 -23h-2q-276 0 -448 194t-172 507q0 326 179 525.5t459.5 199.5t451.5 -194.5t171 -503.5q0 -344 -182.5 -536t-456.5 -192zM784 123h2q205 0 324 164t119 409q0 225 -116 393t-325 168q-211 0 -327.5 -167.5t-116.5 -407.5q0 -229 119.5 -394t320.5 -165zM14 1380 h164l-72 -317h-106z" />
<glyph unicode="&#x38e;" horiz-adv-x="1447" d="M262 1247l33 146q76 -4 172 -55.5t164 -131.5q174 -195 213 -506h8q45 287 240 502q72 76 157.5 128t155.5 63l33 -146q-135 -51 -272.5 -208.5t-202.5 -401.5q-37 -147 -37 -283v-354h-178v356q0 131 -29 279q-59 264 -185.5 421.5t-271.5 190.5zM14 1380h164l-72 -317 h-106z" />
<glyph unicode="&#x38f;" horiz-adv-x="1519" d="M1157 150v-9h299v-141h-518v113q133 90 220 247.5t87 358.5q-2 209 -119.5 373.5t-322.5 164.5q-207 0 -330 -161.5t-123 -378.5q0 -193 88 -360t217 -244v-113h-520v141h299v9q-117 94 -193.5 244.5t-76.5 336.5q0 293 183 482.5t460 189.5q281 0 452 -187.5t171 -467.5 q0 -199 -78 -352.5t-195 -245.5zM14 1380h164l-72 -317h-106z" />
<glyph unicode="&#x390;" horiz-adv-x="483" d="M330 991v-751q0 -70 19.5 -96.5t76.5 -24.5l-10 -131q-35 -10 -82 -11q-88 0 -136 53.5t-48 190.5v770h180zM219 1425h154l-103 -319h-96zM10 1149h-2q-39 0 -65.5 27.5t-26.5 66.5t27.5 66.5t68.5 27.5q39 0 64.5 -26.5t25.5 -67.5q0 -39 -25.5 -66.5t-66.5 -27.5z M506 1149h-2q-39 0 -65.5 27.5t-26.5 66.5t27.5 66.5t66.5 27.5t65.5 -26.5t26.5 -67.5q0 -39 -25.5 -66.5t-66.5 -27.5z" />
<glyph unicode="&#x391;" horiz-adv-x="1253" d="M868 434h-489l-143 -434h-185l469 1380h215l471 -1380h-190zM416 573h415l-135 398q-29 84 -71 252h-4q-35 -143 -70 -250z" />
<glyph unicode="&#x392;" horiz-adv-x="1110" d="M156 4v1358q135 29 325 29q254 0 379 -101q115 -86 115 -243q0 -100 -62.5 -182.5t-171.5 -121.5v-4q115 -29 200 -116.5t85 -229.5q0 -164 -117 -276q-141 -129 -477 -129q-157 0 -276 16zM334 1241v-444h162q139 0 219 64.5t80 166.5q0 225 -303 225q-101 0 -158 -12z M334 662v-527q47 -8 149 -8q154 0 254.5 64.5t100.5 203.5q0 133 -99.5 200t-257.5 67h-147z" />
<glyph unicode="&#x393;" horiz-adv-x="923" d="M156 1380h739v-149h-561v-1231h-178v1380z" />
<glyph unicode="&#x394;" horiz-adv-x="1269" d="M51 0v100l481 1280h203l475 -1278v-102h-1159zM242 150h770l-281 759q-74 203 -102 308h-6q-41 -137 -93 -281z" />
<glyph unicode="&#x395;" horiz-adv-x="1007" d="M870 795v-148h-536v-497h598v-150h-776v1380h745v-149h-567v-436h536z" />
<glyph unicode="&#x396;" horiz-adv-x="1132" d="M61 0v104l766 1121v6h-700v149h932v-108l-762 -1116v-6h772v-150h-1008z" />
<glyph unicode="&#x397;" horiz-adv-x="1335" d="M156 1380h178v-577h667v577h181v-1380h-181v647h-667v-647h-178v1380z" />
<glyph unicode="&#x398;" horiz-adv-x="1411" d="M698 -23h-2q-276 0 -449 194t-173 507q0 326 180 525.5t460.5 199.5t451.5 -194.5t171 -503.5q0 -344 -182.5 -536t-456.5 -192zM705 123h2q205 0 323.5 164t118.5 409q0 225 -115.5 393t-324.5 168q-213 0 -330 -167.5t-117 -407.5q0 -229 120 -394t323 -165zM428 784 h555v-147h-555v147z" />
<glyph unicode="&#x399;" horiz-adv-x="489" d="M156 1380h178v-1380h-178v1380z" />
<glyph unicode="&#x39a;" horiz-adv-x="1110" d="M156 0v1380h178v-665h6q47 68 109 147l421 518h222l-500 -585l538 -795h-210l-455 678l-131 -152v-526h-178z" />
<glyph unicode="&#x39b;" horiz-adv-x="1247" d="M1208 0h-192l-320 950q-33 102 -71 262h-7q-39 -162 -67 -260l-313 -952h-187l469 1380h213z" />
<glyph unicode="&#x39c;" horiz-adv-x="1646" d="M1354 0l-35 606q-23 424 -21 596h-6q-74 -252 -174 -524l-244 -670h-135l-223 658q-109 326 -160 536h-4q-6 -270 -26 -610l-37 -592h-170l96 1380h227l236 -667q94 -279 139 -465h6q45 182 146 465l245 667h228l86 -1380h-174z" />
<glyph unicode="&#x39d;" horiz-adv-x="1347" d="M324 0h-168v1380h194l443 -698q150 -236 247 -449l4 3q-20 231 -20 567v577h168v-1380h-180l-439 700q-170 270 -258 461l-6 -2q14 -244 15 -569v-590z" />
<glyph unicode="&#x39e;" horiz-adv-x="1105" d="M111 1380h903v-147h-903v147zM178 788h766v-147h-766v147zM88 150h946v-150h-946v150z" />
<glyph unicode="&#x39f;" horiz-adv-x="1411" d="M696 -23h-2q-274 0 -447 195t-173 506q0 326 180 525.5t460.5 199.5t450.5 -194.5t170 -503.5q0 -344 -182.5 -536t-456.5 -192zM702 123h3q205 0 323.5 164t118.5 409q0 225 -116 393t-324 168q-211 0 -328 -167.5t-115 -407.5q-2 -229 116.5 -394t321.5 -165z" />
<glyph unicode="&#x3a0;" horiz-adv-x="1298" d="M1143 1380v-1380h-180v1229h-629v-1229h-178v1380h987z" />
<glyph unicode="&#x3a1;" horiz-adv-x="1089" d="M156 0v1364q160 27 342 27q260 0 387 -115q121 -104 121 -288.5t-107 -295.5q-141 -152 -422 -151q-94 0 -143 12v-553h-178zM334 1235v-537q55 -14 147 -14q164 0 255 77t91 218q0 133 -87 201.5t-238 68.5q-115 0 -168 -14z" />
<glyph unicode="&#x3a3;" horiz-adv-x="1130" d="M287 156v-6h786v-150h-1020v106l479 580l-452 574v120h928v-147h-699v-8l422 -533z" />
<glyph unicode="&#x3a4;" horiz-adv-x="1017" d="M418 0v1229h-420v151h1022v-151h-422v-1229h-180z" />
<glyph unicode="&#x3a5;" horiz-adv-x="1204" d="M20 1247l33 146q76 -4 172.5 -55.5t163.5 -131.5q178 -199 213 -506h8q45 287 240 502q72 76 159 128t156 63l31 -146q-135 -51 -272.5 -208.5t-200.5 -401.5q-39 -156 -39 -283v-354h-178v356q0 147 -29 279q-57 264 -183.5 421.5t-273.5 190.5z" />
<glyph unicode="&#x3a6;" horiz-adv-x="1470" d="M819 53v-106h-172v106q-236 20 -404.5 181t-168.5 448q0 293 177 462t400 187v103h172v-103q236 -18 405 -185t169 -454q0 -147 -49.5 -268t-131 -196.5t-183 -120t-214.5 -54.5zM649 182v1020q-150 -10 -270.5 -147t-120.5 -369q0 -215 114.5 -349.5t276.5 -154.5z M821 1202v-1020q160 14 275.5 148.5t115.5 357.5q0 231 -115.5 365.5t-275.5 148.5z" />
<glyph unicode="&#x3a7;" horiz-adv-x="1169" d="M1118 0h-207l-176 305q-106 172 -160 273h-4q-61 -125 -149 -275l-166 -303h-205l422 698l-405 682h206l183 -323q86 -150 127 -234h6q49 102 125 234l188 323h205l-420 -671z" />
<glyph unicode="&#x3a8;" horiz-adv-x="1402" d="M1309 1380v-399q0 -260 -142.5 -403.5t-380.5 -155.5v-422h-170v422q-104 4 -194 33.5t-165 88t-118 157t-43 229.5v450h174v-419q0 -379 348 -398v817h168v-819q152 8 249.5 112.5t97.5 325.5v381h176z" />
<glyph unicode="&#x3a9;" horiz-adv-x="1443" d="M1081 150v-9h301v-141h-518v113q131 90 218 250.5t87 357.5q0 209 -118.5 372.5t-323.5 163.5q-207 0 -330 -160.5t-123 -377.5q0 -186 90.5 -356t217.5 -250v-113h-521v141h297v9q-115 94 -192.5 245.5t-77.5 337.5q0 293 183.5 481.5t459.5 188.5q281 0 452 -186.5 t171 -466.5q0 -197 -78 -349.5t-195 -250.5z" />
<glyph unicode="&#x3aa;" horiz-adv-x="489" d="M57 1456h-2q-43 0 -71.5 31t-28.5 72q0 43 29.5 73.5t72.5 30.5q41 0 70 -29.5t29 -74.5q0 -41 -29 -72t-70 -31zM432 1456h-2q-41 0 -69.5 31t-28.5 72q0 43 29.5 73.5t72.5 30.5q41 0 69.5 -29.5t28.5 -74.5q0 -41 -28.5 -72t-71.5 -31zM156 1380h178v-1380h-178v1380z " />
<glyph unicode="&#x3ab;" horiz-adv-x="1204" d="M422 1427h-2q-43 0 -70.5 30t-27.5 73t29.5 72.5t72.5 29.5q41 0 68.5 -29.5t27.5 -72.5t-27.5 -73t-70.5 -30zM799 1427h-2q-43 0 -71 30t-28 73t29 72.5t72 29.5t70.5 -29.5t27.5 -72.5t-27.5 -73t-70.5 -30zM20 1247l33 146q76 -4 172.5 -55.5t163.5 -131.5 q178 -199 213 -506h8q45 287 240 502q72 76 159 128t156 63l31 -146q-135 -51 -272.5 -208.5t-200.5 -401.5q-39 -156 -39 -283v-354h-178v356q0 147 -29 279q-57 264 -183.5 421.5t-273.5 190.5z" />
<glyph unicode="&#x3ac;" horiz-adv-x="1128" d="M586 1405h180l-170 -293h-121zM852 991h149q-27 -272 -26 -708q0 -88 23.5 -127t74.5 -41l-14 -129q-16 -8 -62 -9q-156 0 -170 209h-6q-115 -209 -338 -209q-178 0 -291.5 137.5t-113.5 360.5q0 236 132 387.5t310 151.5q106 0 185 -52.5t120 -146.5h9q4 96 18 176z M260 481v-2q0 -147 73 -252.5t195 -105.5q90 0 165 74.5t100 177.5q12 53 12 139q0 72 -8 106q-18 104 -89 179t-165 75q-125 0 -204 -110.5t-79 -280.5z" />
<glyph unicode="&#x3ad;" horiz-adv-x="901" d="M524 1405h183l-172 -293h-119zM326 526v11q-96 20 -146.5 76.5t-50.5 131.5q0 106 104.5 187.5t290.5 81.5q190 0 301 -76l-39 -119q-35 23 -106.5 42.5t-140.5 19.5q-104 0 -167 -40t-63 -108q0 -70 77 -105.5t200 -35.5h119v-129h-125q-141 0 -226.5 -41t-85.5 -127 q0 -84 77 -132t192 -48q76 0 158.5 23.5t131.5 51.5l33 -122q-57 -39 -158.5 -65t-203.5 -26q-172 0 -295 74t-123 228q0 92 68.5 161.5t177.5 85.5z" />
<glyph unicode="&#x3ae;" horiz-adv-x="1136" d="M616 1405h183l-172 -293h-119zM311 827h4q41 78 127 132.5t201 54.5q57 0 113.5 -19.5t112 -63.5t90 -131t34.5 -208v-629q0 -287 21 -369h-170q-31 78 -31 363v614q0 131 -55.5 212t-173.5 81q-86 0 -151.5 -53t-90.5 -131q-12 -33 -12 -84v-596h-180v723q0 182 -29 268 h162q28 -62 28 -164z" />
<glyph unicode="&#x3af;" horiz-adv-x="483" d="M272 1407h183l-170 -293h-121zM330 991v-751q0 -70 19.5 -96.5t76.5 -24.5l-10 -131q-35 -10 -82 -11q-88 0 -136 53.5t-48 190.5v770h180z" />
<glyph unicode="&#x3b0;" horiz-adv-x="1073" d="M737 991h168q29 -53 51.5 -162.5t22.5 -224.5q0 -119 -21.5 -222t-69.5 -198.5t-140.5 -151t-221.5 -55.5q-172 0 -280.5 102.5t-108.5 297.5v280q0 266 -22 334h172q29 -35 28 -186v-404q0 -137 67 -205.5t159 -68.5q127 0 194.5 122t67.5 339q0 123 -21.5 238.5 t-44.5 164.5zM496 1425h153l-100 -321h-96zM289 1147h-2q-41 0 -67.5 28.5t-26.5 67.5t28.5 66.5t67.5 27.5t64.5 -26.5t25.5 -67.5q0 -39 -25.5 -67.5t-64.5 -28.5zM782 1147h-2q-37 0 -63.5 28.5t-26.5 67.5t27.5 66.5t66.5 27.5t66 -26.5t27 -67.5q0 -39 -27 -67.5 t-68 -28.5z" />
<glyph unicode="&#x3b1;" horiz-adv-x="1128" d="M852 991h149q-27 -272 -26 -708q0 -88 23.5 -127t74.5 -41l-14 -129q-16 -8 -62 -9q-156 0 -170 209h-6q-115 -209 -338 -209q-178 0 -291.5 137.5t-113.5 360.5q0 236 132 387.5t310 151.5q106 0 185 -52.5t120 -146.5h9q4 96 18 176zM260 481v-2q0 -147 73 -252.5 t195 -105.5q90 0 165 74.5t100 177.5q12 53 12 139q0 72 -8 106q-18 104 -89 179t-165 75q-125 0 -204 -110.5t-79 -280.5z" />
<glyph unicode="&#x3b2;" horiz-adv-x="1146" d="M326 102h-4v-137q0 -279 22 -371h-168q-31 82 -31 349v944q0 336 154 481q115 109 291 109q154 0 256 -99.5t102 -257.5q0 -111 -53 -195.5t-129 -123.5v-8q127 -27 215 -129.5t88 -262.5q0 -197 -127 -310.5t-301 -113.5q-196 0 -315 125zM319 907v-626q41 -66 117 -115 t172 -49q123 0 202 81t79 203q0 141 -89 220t-231 84h-55v122q10 0 35 4q111 8 172 83t61 180q0 109 -58 174t-151 65q-254 0 -254 -426z" />
<glyph unicode="&#x3b3;" horiz-adv-x="950" d="M551 -406h-176q12 377 -37 582q-49 221 -152.5 445.5t-197.5 369.5h202q76 -115 167.5 -338t134.5 -434h8q233 430 233 703q0 16 -1 38.5t-1 30.5h170q6 -29 6 -67q0 -340 -350 -871q-12 -16 -12 -49q6 -117 6 -410z" />
<glyph unicode="&#x3b4;" horiz-adv-x="1118" d="M954 1378l-53 -118q-41 29 -117.5 55t-152.5 26q-80 0 -124 -26.5t-44 -65.5q0 -49 125 -147l22 -19l168 -135q262 -201 262 -465q0 -225 -138 -365.5t-343 -140.5q-201 0 -341 134.5t-140 363.5q0 178 104.5 308t272.5 210v11l-47 36q-125 102 -125 205q0 92 91 162 t253 70q100 0 189 -30t138 -69zM668 823l-109 86q-299 -158 -299 -432q0 -166 92 -265t217 -99q123 0 207 97t84 261q1 202 -192 352z" />
<glyph unicode="&#x3b5;" horiz-adv-x="901" d="M326 528v9q-96 20 -146.5 76.5t-50.5 131.5q0 106 104.5 187.5t290.5 81.5q190 0 301 -76l-39 -119q-35 23 -106.5 42.5t-140.5 19.5q-104 0 -167 -40t-63 -108q0 -70 77 -105.5t200 -35.5h119v-129h-125q-141 0 -226.5 -41t-85.5 -127q0 -84 77 -132t192 -48 q76 0 158.5 23.5t131.5 51.5l33 -122q-57 -39 -158.5 -65t-203.5 -26q-172 0 -295 74t-123 228q0 92 68.5 161.5t177.5 87.5z" />
<glyph unicode="&#x3b6;" horiz-adv-x="837" d="M698 -293l-118 35q20 35 41.5 109.5t25.5 115.5q-127 18 -241 56q-326 106 -326 454q0 217 134 445.5t366 386.5v8h-146q-170 0 -237 20l18 121q66 -8 250 -8h342l27 -127q-246 -125 -409 -356.5t-163 -456.5q0 -154 64.5 -234.5t189.5 -125.5q111 -41 287 -60 q18 -4 18 -24q0 -84 -39 -193t-84 -166z" />
<glyph unicode="&#x3b7;" horiz-adv-x="1136" d="M311 827h4q41 78 127 132.5t201 54.5q57 0 113.5 -19.5t112 -63.5t90 -131t34.5 -208v-629q0 -287 21 -369h-170q-31 78 -31 363v614q0 131 -55.5 212t-173.5 81q-86 0 -151.5 -53t-90.5 -131q-12 -33 -12 -84v-596h-180v723q0 182 -29 268h162q28 -62 28 -164z" />
<glyph unicode="&#x3b8;" horiz-adv-x="1093" d="M551 -23h-2q-223 0 -347 195t-124 567q0 324 127 531t352 207q229 0 345 -198t116 -540q0 -356 -118 -559t-349 -203zM256 817h584q-2 231 -77 378.5t-216 147.5q-131 0 -211 -153.5t-80 -372.5zM840 682h-584q0 -268 82 -419.5t217 -151.5q139 0 212 155.5t73 415.5z " />
<glyph unicode="&#x3b9;" horiz-adv-x="483" d="M330 991v-751q0 -70 19.5 -96.5t76.5 -24.5l-10 -131q-35 -10 -82 -11q-88 0 -136 53.5t-48 190.5v770h180z" />
<glyph unicode="&#x3ba;" horiz-adv-x="1009" d="M512 537v-7q68 -14 140.5 -86.5t164.5 -193.5l180 -250h-209l-155 211q-174 227 -287 229h-16v-440h-180v776q0 164 -23 215h174q29 -39 29 -168v-272h8l158 155l159 164l117 121h211v-8z" />
<glyph unicode="&#x3bb;" horiz-adv-x="966" d="M745 0l-200 567q-45 135 -66 215h-10q-12 -53 -63 -209l-203 -573h-189l359 918q12 33 12 47q0 25 -12 53q-53 147 -114.5 229t-145.5 82q-23 0 -35 -2l18 139q33 8 68 9q135 0 218 -113t175 -354l379 -1008h-191z" />
<glyph unicode="&#x3bc;" horiz-adv-x="1132" d="M825 154h-6q-37 -70 -110.5 -121t-173.5 -51q-156 0 -218 108v-123q0 -283 23 -373h-162q-29 86 -28 365v1032h178v-585q0 -123 55 -202t168 -79q84 0 147.5 49t89.5 117q16 43 17 92v608h178v-719q0 -82 20.5 -117.5t73.5 -37.5l-14 -131q-27 -8 -62 -9q-153 1 -176 177 z" />
<glyph unicode="&#x3bd;" horiz-adv-x="960" d="M8 991h191l190 -557l86 -258h6q256 500 256 723q0 63 -2 92h170q6 -61 6 -73q0 -131 -60 -302.5t-129 -299.5t-181 -316h-170z" />
<glyph unicode="&#x3be;" horiz-adv-x="886" d="M739 891v-131h-55q-205 0 -311.5 -87t-106.5 -222q0 -121 79 -196t237 -116q82 -23 272 -51q18 0 18 -22q0 -78 -38.5 -191t-81.5 -168l-119 35q20 35 41.5 110.5t23.5 114.5q-96 14 -170.5 30.5t-164 51.5t-147.5 82t-98 125t-40 178q0 145 91 253t230 147v10 q-113 35 -170 110.5t-57 178.5q0 139 112.5 241.5t315.5 102.5q156 0 250 -56l-37 -125q-86 47 -203 47q-123 0 -190.5 -65.5t-67.5 -157.5q0 -104 81 -164.5t208 -64.5h98z" />
<glyph unicode="&#x3bf;" horiz-adv-x="1124" d="M555 -23h-2q-205 0 -340 139.5t-135 370.5q0 242 139 384.5t352 142.5t345.5 -141.5t132.5 -368.5q0 -256 -146.5 -391.5t-345.5 -135.5zM559 113h2q129 0 215 109.5t86 275.5q0 90 -28.5 173t-98 145.5t-170.5 62.5q-150 0 -227.5 -114t-77.5 -271q0 -164 85 -272.5 t214 -108.5z" />
<glyph unicode="&#x3c0;" horiz-adv-x="1136" d="M1065 850h-137v-555q0 -193 28 -295h-174q-31 57 -30 276v574h-326q-6 -209 -47 -471t-92 -379h-172q53 141 93 392t46 458q-137 0 -203 -19l-24 107q78 53 284 53h774z" />
<glyph unicode="&#x3c1;" horiz-adv-x="1153" d="M324 123h-7v-160q0 -274 17 -369h-172q-23 76 -23 361v459q0 301 144 452q137 147 340 148q205 0 328.5 -139.5t123.5 -364.5q0 -250 -133 -391.5t-319 -141.5q-98 0 -177 38t-122 108zM317 473v-84q0 -41 9 -72q25 -86 99.5 -142t168.5 -56q139 0 220 108.5t81 278.5 q0 152 -77 255t-210 103q-119 0 -205 -99t-86 -292z" />
<glyph unicode="&#x3c2;" horiz-adv-x="854" d="M836 969l-41 -131q-88 37 -183 36q-156 0 -254 -110.5t-98 -267.5q0 -268 281 -353q111 -31 264 -53q20 -6 20 -31q0 -82 -37.5 -191.5t-80.5 -162.5l-121 37q20 33 41.5 108.5t25.5 114.5q-131 25 -202 43q-168 49 -270.5 166t-102.5 305q0 215 144.5 375t389.5 160 q144 0 224 -45z" />
<glyph unicode="&#x3c3;" horiz-adv-x="1134" d="M844 885v-8q86 -59 135 -161t49 -214q0 -254 -143.5 -389.5t-331.5 -135.5q-205 0 -340 139.5t-135 368.5q0 246 141 387.5t369 141.5h190h109h223l-6 -137q-65 0 -260 8zM557 113h2q123 0 207 110.5t84 278.5q0 145 -75 261t-216 116q-145 0 -222 -115t-77 -270 q0 -164 84 -272.5t213 -108.5z" />
<glyph unicode="&#x3c4;" horiz-adv-x="845" d="M657 123l-8 -129q-33 -16 -98 -17q-119 0 -174 75t-55 233v565h-109q-115 0 -201 -16l-24 104q76 53 270 53h571l-22 -141h-307v-561q0 -168 114 -168q31 0 43 2z" />
<glyph unicode="&#x3c5;" horiz-adv-x="1073" d="M737 991h168q29 -53 51.5 -162.5t22.5 -224.5q0 -119 -21.5 -222t-69.5 -198.5t-140.5 -151t-221.5 -55.5q-172 0 -280.5 102.5t-108.5 297.5v280q0 266 -22 334h172q29 -35 28 -186v-404q0 -137 67 -205.5t159 -68.5q127 0 194.5 122t67.5 339q0 123 -21.5 238.5 t-44.5 164.5z" />
<glyph unicode="&#x3c6;" horiz-adv-x="1314" d="M418 1020l69 -100q-94 -59 -162.5 -164t-68.5 -250q0 -156 83 -263.5t239 -131.5v602q0 150 71.5 224.5t181.5 72.5q156 -2 280 -138.5t124 -351.5q0 -240 -143.5 -380t-348.5 -160v-386h-165v386q-207 16 -353.5 147t-146.5 375q0 193 106.5 329t233.5 189zM743 739 v-628q147 20 233.5 127.5t86.5 279.5q0 147 -72.5 254t-161.5 107q-86 -1 -86 -140z" />
<glyph unicode="&#x3c7;" horiz-adv-x="935" d="M37 991h192l252 -534h8q47 106 105 219l147 315h177l-351 -669l361 -713l-168 -45l-295 606h-8l-95 -211l-186 -395l-153 47l354 708z" />
<glyph unicode="&#x3c8;" horiz-adv-x="1341" d="M604 -406v383q-467 31 -467 515v268q0 172 -16 231h166q25 -33 24 -186v-297q0 -203 82 -297t213 -102v1142h164v-1142q135 6 220 136t85 341q0 137 -24.5 250.5t-49.5 154.5h166q80 -127 80 -391q0 -117 -25.5 -220.5t-80 -193.5t-149.5 -146t-222 -63v-383h-166z" />
<glyph unicode="&#x3c9;" horiz-adv-x="1421" d="M795 743l-4 -389q0 -96 48 -161.5t122 -65.5q84 0 145 105.5t61 293.5q0 143 -46 273.5t-117 199.5v5h170q72 -59 120.5 -189.5t48.5 -292.5q0 -260 -110.5 -402.5t-263.5 -142.5q-90 0 -159 47.5t-99 129.5h-9q-35 -82 -103.5 -129.5t-158.5 -47.5q-145 0 -253.5 133.5 t-108.5 395.5q0 158 51 293t123 205h166v-5q-72 -80 -118 -208.5t-46 -280.5q0 -190 64.5 -286.5t146.5 -96.5q70 0 117 65.5t47 159.5l-4 391h170z" />
<glyph unicode="&#x3ca;" horiz-adv-x="483" d="M57 1141h-2q-43 0 -70.5 29.5t-27.5 72.5t29.5 74t72.5 31q41 0 70 -30t29 -75q0 -43 -29 -72.5t-72 -29.5zM434 1141h-2q-43 0 -70.5 29.5t-27.5 72.5t28.5 74t71.5 31t72 -30t29 -75q0 -43 -29 -72.5t-72 -29.5zM330 991v-751q0 -70 19.5 -96.5t76.5 -24.5l-10 -131 q-35 -10 -82 -11q-88 0 -136 53.5t-48 192.5v768h180z" />
<glyph unicode="&#x3cb;" horiz-adv-x="1073" d="M338 1141h-2q-43 0 -70.5 29.5t-27.5 72.5t29.5 74t72.5 31q41 0 68.5 -30t27.5 -75q0 -43 -27.5 -72.5t-70.5 -29.5zM715 1141h-2q-43 0 -71 29.5t-28 72.5t29 74t72 31t71.5 -30t28.5 -75q0 -43 -28.5 -72.5t-71.5 -29.5zM737 991h168q29 -53 51.5 -162.5t22.5 -224.5 q0 -119 -21.5 -222t-69.5 -198.5t-140.5 -151t-221.5 -55.5q-172 0 -280.5 102.5t-108.5 297.5v280q0 266 -22 334h172q29 -35 28 -186v-404q0 -137 67 -205.5t159 -68.5q127 0 194.5 122t67.5 339q0 123 -21.5 238.5t-44.5 164.5z" />
<glyph unicode="&#x3cc;" horiz-adv-x="1124" d="M592 1405h182l-172 -293h-119zM555 -23h-2q-205 0 -340 139.5t-135 370.5q0 242 139 384.5t352 142.5t345.5 -141.5t132.5 -368.5q0 -256 -146.5 -391.5t-345.5 -135.5zM559 113h2q129 0 215 109.5t86 275.5q0 90 -28.5 173t-98 145.5t-170.5 62.5q-150 0 -227.5 -114 t-77.5 -271q0 -164 85 -272.5t214 -108.5z" />
<glyph unicode="&#x3cd;" horiz-adv-x="1073" d="M557 1407h182l-170 -293h-120zM737 991h168q29 -53 51.5 -162.5t22.5 -224.5q0 -119 -21.5 -222t-69.5 -198.5t-140.5 -151t-221.5 -55.5q-172 0 -280.5 102.5t-108.5 297.5v280q0 266 -22 334h172q29 -35 28 -186v-404q0 -137 67 -205.5t159 -68.5q127 0 194.5 122 t67.5 339q0 123 -21.5 238.5t-44.5 164.5z" />
<glyph unicode="&#x3ce;" horiz-adv-x="1421" d="M737 1405h183l-170 -293h-121zM795 743l-4 -389q0 -96 48 -161.5t122 -65.5q84 0 145 105.5t61 293.5q0 143 -45 273.5t-118 199.5v5h170q72 -59 120.5 -189.5t48.5 -292.5q0 -260 -110.5 -402.5t-261.5 -142.5q-92 0 -161 47.5t-99 129.5h-9q-35 -82 -103.5 -129.5 t-158.5 -47.5q-145 0 -253.5 133.5t-108.5 395.5q0 158 51 293t123 205h166v-5q-72 -80 -118 -208.5t-46 -280.5q0 -190 64.5 -286.5t146.5 -96.5q70 0 117 65.5t47 159.5l-4 391h170z" />
<glyph unicode="&#x401;" horiz-adv-x="1007" d="M870 795v-148h-536v-497h598v-150h-776v1380h745v-149h-567v-436h536zM334 1477h-2q-43 0 -71 29.5t-28 74.5q0 43 29 72.5t72 29.5t70.5 -29.5t27.5 -72.5q0 -45 -27.5 -74.5t-70.5 -29.5zM713 1477h-2q-43 0 -71 30.5t-28 73.5t30 72.5t73 29.5t70.5 -29.5t27.5 -72.5 q0 -45 -27.5 -74.5t-72.5 -29.5z" />
<glyph unicode="&#x402;" horiz-adv-x="1361" d="M-2 1380h1061v-149h-500v-393h6q135 84 277 84q211 0 334 -172q104 -147 104 -385q0 -332 -190 -494q-115 -129 -285 -156l-33 140q147 37 225 143q96 127 97 350q0 190 -70 299q-84 125 -231 125q-125 0 -234 -80v-692h-178v1231h-383v149z" />
<glyph unicode="&#x403;" horiz-adv-x="886" d="M156 1380h733v-149h-555v-1231h-178v1380zM580 1694h217l-260 -240h-148z" />
<glyph unicode="&#x404;" horiz-adv-x="1179" d="M1114 1337l-43 -139q-119 57 -272 57q-227 0 -368.5 -135t-164.5 -344h709v-143h-707q6 -215 149.5 -360.5t375.5 -145.5q160 0 286 55l33 -137q-139 -68 -352 -68q-301 0 -493.5 191.5t-192.5 519.5q0 303 196.5 509t522.5 206q190 0 321 -66z" />
<glyph unicode="&#x405;" horiz-adv-x="1009" d="M86 68l45 149q147 -90 320 -90q135 0 211.5 64.5t76.5 170.5q0 96 -59 159t-201 116q-365 129 -364 391q0 164 123.5 269.5t322.5 105.5q186 0 305 -68l-49 -145q-121 66 -262 65q-129 0 -194.5 -62.5t-65.5 -143.5q0 -94 62.5 -151.5t211.5 -115.5q182 -70 267.5 -164 t85.5 -241q0 -170 -125 -285t-359 -115q-98 0 -196.5 26t-155.5 65z" />
<glyph unicode="&#x406;" horiz-adv-x="489" d="M156 1380h178v-1380h-178v1380z" />
<glyph unicode="&#x407;" horiz-adv-x="489" d="M156 1380h178v-1380h-178v1380zM57 1477h-2q-43 0 -70.5 29.5t-27.5 74.5q0 43 28.5 72.5t71.5 29.5t71 -29.5t28 -72.5q0 -45 -28 -74.5t-71 -29.5zM436 1477h-2q-43 0 -70.5 30.5t-27.5 73.5t29.5 72.5t72.5 29.5t71 -29.5t28 -72.5q0 -45 -28 -74.5t-73 -29.5z" />
<glyph unicode="&#x408;" horiz-adv-x="757" d="M438 471v909h178v-923q0 -479 -417 -480q-111 0 -191 33l27 146q68 -27 149 -27q129 0 191.5 74.5t62.5 267.5z" />
<glyph unicode="&#x409;" horiz-adv-x="1804" d="M256 1380h770v-520q72 10 168 10q227 0 378.5 -107.5t151.5 -322.5q0 -180 -114 -299q-160 -154 -486 -153q-158 0 -276 16v1227h-420v-418q0 -135 -6 -231.5t-24.5 -210t-62.5 -194.5t-114 -128q-98 -66 -207 -65l-26 143q88 16 147 76q121 117 121 596v581zM1026 723 v-588q57 -8 143 -8q158 0 263.5 80t105.5 229q0 152 -104.5 223.5t-264.5 71.5q-53 0 -143 -8z" />
<glyph unicode="&#x40a;" horiz-adv-x="1837" d="M156 1380h178v-551h547v551h178v-538q72 10 188 10q219 0 364.5 -103.5t145.5 -310.5q0 -186 -117 -299q-152 -152 -481 -151q-160 0 -278 16v674h-547v-678h-178v1380zM1059 705v-568q51 -10 145 -10q158 0 262.5 77t104.5 228q0 143 -102.5 212t-258.5 69 q-73 0 -151 -8z" />
<glyph unicode="&#x40b;" horiz-adv-x="1382" d="M-2 1380h1038v-149h-481v-395h4q156 94 313 94q162 0 256 -94q109 -111 109 -322v-514h-180v489q0 154 -66 226q-66 70 -176 69q-137 0 -260 -88v-696h-180v1231h-377v149z" />
<glyph unicode="&#x40c;" horiz-adv-x="1110" d="M156 1380h176v-612h55l473 612h215l-522 -632q158 -20 242 -108.5t145 -248.5l36 -100l37 -105q13 -37 34.5 -90t44.5 -96h-193q-41 78 -125 326q-53 154 -137 230.5t-248 76.5h-57v-633h-176v1380zM651 1683h217l-260 -239h-147z" />
<glyph unicode="&#x40e;" horiz-adv-x="1067" d="M4 1380h203l274 -589l101 -244h4l86 248l215 585h188l-289 -710q-162 -397 -258 -525q-135 -170 -313 -170q-68 0 -100 13l18 145q23 -6 66 -6q168 0 270 238q16 37 -6 81zM272 1673h138q8 -59 33.5 -94t91.5 -35q63 0 89.5 35t34.5 94h138q-16 -221 -267 -221 q-242 0 -258 221z" />
<glyph unicode="&#x40f;" horiz-adv-x="1300" d="M156 1380h178v-1230h637v1230h178v-1380h-408l-16 -356h-147l-15 356h-407v1380z" />
<glyph unicode="&#x410;" horiz-adv-x="1253" d="M868 434h-489l-143 -434h-185l469 1380h215l471 -1380h-190zM416 573h415l-135 398q-29 84 -71 252h-4q-35 -143 -70 -250z" />
<glyph unicode="&#x411;" horiz-adv-x="1118" d="M156 1380h774v-149h-596v-371q72 10 170 10q217 0 356 -92q176 -115 176 -338q0 -184 -114 -299q-156 -154 -488 -153q-160 0 -278 16v1376zM334 723v-586q51 -10 149 -10q190 0 291 106q76 80 76 203q0 147 -113 226q-102 70 -262 69q-51 0 -141 -8z" />
<glyph unicode="&#x412;" horiz-adv-x="1110" d="M156 4v1358q135 29 325 29q254 0 379 -101q115 -86 115 -243q0 -100 -62.5 -182.5t-171.5 -121.5v-4q115 -29 200 -116.5t85 -229.5q0 -164 -117 -276q-141 -129 -477 -129q-157 0 -276 16zM334 1241v-444h162q139 0 219 64.5t80 166.5q0 225 -303 225q-101 0 -158 -12z M334 662v-527q47 -8 149 -8q154 0 254.5 64.5t100.5 203.5q0 133 -99.5 200t-257.5 67h-147z" />
<glyph unicode="&#x413;" horiz-adv-x="886" d="M156 1380h733v-149h-555v-1231h-178v1380z" />
<glyph unicode="&#x414;" horiz-adv-x="1290" d="M328 1380h772v-1235l121 -4l-13 -473h-139l-12 332h-871l-12 -332h-139l-12 473l104 4q98 180 135 304q66 223 66 581v350zM494 1233v-260q0 -342 -70 -563q-39 -129 -113 -263h611v1086h-428z" />
<glyph unicode="&#x415;" horiz-adv-x="1007" d="M870 795v-148h-536v-497h598v-150h-776v1380h745v-149h-567v-436h536z" />
<glyph unicode="&#x416;" horiz-adv-x="1640" d="M43 1380h209l428 -612h53v612h174v-612h56l426 612h208l-489 -635q152 -16 233.5 -103t139.5 -251l55 -170q47 -145 82 -221h-182q-20 41 -41 97.5t-42.5 126l-31.5 100.5q-53 160 -127 234.5t-227 74.5h-60v-633h-174v633h-61q-154 0 -227.5 -74t-129.5 -235 q-10 -29 -31.5 -100.5t-40 -127t-38.5 -96.5h-182q27 57 49 121.5l47.5 145.5t40.5 122q57 162 140 250t232 106z" />
<glyph unicode="&#x417;" horiz-adv-x="1007" d="M152 1167l-50 131q160 104 365 105q182 0 293.5 -90t111.5 -248q0 -125 -79.5 -216t-204.5 -120v-4q150 -16 243 -108.5t93 -237.5q0 -201 -145.5 -301.5t-354.5 -100.5q-213 0 -361 91l48 139q143 -84 309 -84q150 0 233.5 72.5t83.5 189.5q0 141 -109.5 203.5 t-265.5 62.5h-81v135h81q137 0 230.5 74t93.5 180q0 102 -66.5 159.5t-181.5 57.5q-145 0 -286 -90z" />
<glyph unicode="&#x418;" horiz-adv-x="1347" d="M156 1380h168v-581q0 -338 -17 -584l4 -2q90 186 256 457l447 710h178v-1380h-168v588q0 362 16 561l-6 2q-78 -174 -256 -465l-432 -686h-190v1380z" />
<glyph unicode="&#x419;" horiz-adv-x="1347" d="M156 1380h168v-581q0 -338 -17 -584l4 -2q90 186 256 457l447 710h178v-1380h-168v588q0 362 16 561l-6 2q-78 -174 -256 -465l-432 -686h-190v1380zM412 1671h137q8 -59 33.5 -94t91.5 -35q63 0 90 35t35 94h137q-16 -221 -266 -221q-242 0 -258 221z" />
<glyph unicode="&#x41a;" horiz-adv-x="1110" d="M156 1380h176v-612h55l473 612h215l-522 -632q158 -20 242 -108.5t145 -248.5l36 -100l37 -105q13 -37 34.5 -90t44.5 -96h-193q-41 78 -125 326q-53 154 -137 230.5t-248 76.5h-57v-633h-176v1380z" />
<glyph unicode="&#x41b;" horiz-adv-x="1216" d="M252 1380h811v-1380h-180v1231h-457v-418q0 -137 -5 -231.5t-24.5 -209t-63.5 -195.5t-114 -128q-102 -66 -211 -65l-22 143q88 16 145 74q121 119 121 598v581z" />
<glyph unicode="&#x41c;" horiz-adv-x="1646" d="M1354 0l-35 606q-23 424 -21 596h-6q-74 -252 -174 -524l-244 -670h-135l-223 658q-109 326 -160 536h-4q-6 -270 -26 -610l-37 -592h-170l96 1380h227l236 -667q94 -279 139 -465h6q45 182 146 465l245 667h228l86 -1380h-174z" />
<glyph unicode="&#x41d;" horiz-adv-x="1335" d="M156 1380h178v-577h667v577h181v-1380h-181v647h-667v-647h-178v1380z" />
<glyph unicode="&#x41e;" horiz-adv-x="1411" d="M714.5 1403q280.5 0 450.5 -194.5t170 -503.5q0 -344 -182 -536t-459 -192q-274 0 -447 195t-173 506q0 326 180 525.5t460.5 199.5zM707 1257q-211 0 -327 -166.5t-116 -408.5q0 -231 119 -395t322 -164q205 0 323.5 164t118.5 409q0 225 -115.5 393t-324.5 168z" />
<glyph unicode="&#x41f;" horiz-adv-x="1308" d="M156 1380h997v-1380h-178v1231h-641v-1231h-178v1380z" />
<glyph unicode="&#x420;" horiz-adv-x="1089" d="M156 0v1364q160 27 342 27q260 0 387 -115q121 -104 121 -288.5t-107 -295.5q-141 -152 -422 -151q-94 0 -143 12v-553h-178zM334 1235v-537q55 -14 147 -14q164 0 255 77t91 218q0 133 -87 201.5t-238 68.5q-115 0 -168 -14z" />
<glyph unicode="&#x421;" horiz-adv-x="1187" d="M1083 186l37 -141q-135 -68 -364 -68q-301 0 -491.5 185.5t-190.5 515.5q0 324 199.5 524.5t521.5 200.5q209 0 327 -62l-43 -145q-119 57 -278 57q-246 0 -392.5 -150.5t-146.5 -418.5q0 -256 140.5 -405.5t390.5 -149.5q171 0 290 57z" />
<glyph unicode="&#x422;" horiz-adv-x="1017" d="M418 0v1229h-420v151h1022v-151h-422v-1229h-180z" />
<glyph unicode="&#x423;" horiz-adv-x="1067" d="M4 1380h203l274 -589l101 -244h4l86 248l215 585h188l-289 -710q-162 -397 -258 -525q-135 -170 -313 -170q-68 0 -100 13l18 145q23 -6 66 -6q168 0 270 238q16 37 -6 81z" />
<glyph unicode="&#x424;" horiz-adv-x="1484" d="M659 1436h170v-123q115 -4 215.5 -42t184.5 -109.5t133 -193.5t49 -277.5t-49 -275.5t-134 -190.5t-185.5 -107.5t-215.5 -43v-129h-172v129q-115 8 -214 43t-184 103.5t-134 186t-49 275.5q0 162 53 286t141 194.5t186.5 107.5t204.5 43v123zM657 201v983 q-72 -4 -139 -32t-127.5 -83t-96.5 -152.5t-36 -226.5q0 -229 114.5 -351t284.5 -138zM827 1184v-983q168 14 284 134t116 357q0 246 -115 365t-285 127z" />
<glyph unicode="&#x425;" horiz-adv-x="1169" d="M1118 0h-207l-176 305q-106 172 -160 273h-4q-61 -125 -149 -275l-166 -303h-205l422 698l-405 682h206l183 -323q86 -150 127 -234h6q49 102 125 234l188 323h205l-420 -671z" />
<glyph unicode="&#x426;" horiz-adv-x="1335" d="M156 1380h178v-1230h633v1230h180v-1235l121 -4l-13 -473h-141l-12 332h-946v1380z" />
<glyph unicode="&#x427;" horiz-adv-x="1222" d="M145 1380h179v-442q0 -143 74.5 -220t217.5 -77q145 0 273 80v659h180v-1388h-180v590h-4q-150 -86 -332 -86q-76 0 -142.5 18t-129 61t-99.5 129.5t-37 206.5v469z" />
<glyph unicode="&#x428;" horiz-adv-x="1734" d="M156 1380h176v-1230h448v1230h176v-1230h447v1230h178v-1380h-1425v1380z" />
<glyph unicode="&#x429;" horiz-adv-x="1769" d="M156 1380h176v-1230h448v1230h176v-1230h447v1230h178v-1235l121 -4l-12 -473h-142l-10 332h-1382v1380z" />
<glyph unicode="&#x42a;" horiz-adv-x="1292" d="M-4 1380h532v-516q68 10 166 10q139 0 253 -43t189.5 -143t75.5 -244q0 -182 -106 -294q-154 -162 -481 -162q-156 0 -275 16v1229h-354v147zM528 723v-586q49 -10 142 -10q156 0 255 80t99 229q0 152 -101.5 224.5t-250.5 72.5q-72 0 -144 -10z" />
<glyph unicode="&#x42b;" horiz-adv-x="1527" d="M156 1380h178v-516q68 10 164 10q231 0 381.5 -107.5t150.5 -324.5q0 -176 -106 -292q-154 -162 -492 -162q-158 0 -276 16v1376zM334 723v-586q47 -10 143 -10q158 0 262.5 80t104.5 229.5t-107.5 223t-261.5 73.5q-86 0 -141 -10zM1184 1380h180v-1380h-180v1380z" />
<glyph unicode="&#x42c;" horiz-adv-x="1116" d="M156 1380h178v-516q68 10 170 10q231 0 381.5 -107.5t150.5 -322.5q0 -178 -106 -294q-154 -162 -496 -162q-160 0 -278 16v1376zM334 723v-586q51 -10 147 -10q160 0 264.5 79t104.5 228q0 154 -104.5 226.5t-266.5 72.5q-69 0 -145 -10z" />
<glyph unicode="&#x42d;" horiz-adv-x="1163" d="M252 635v143h643q-18 209 -142 343t-331 134q-137 0 -295 -69l-43 137q182 80 348 80q313 0 484 -199.5t171 -515.5q0 -330 -190 -520.5t-475 -190.5q-205 0 -361 72l39 141q137 -63 297 -63q223 0 356.5 143.5t143.5 364.5h-645z" />
<glyph unicode="&#x42e;" horiz-adv-x="1775" d="M156 1380h178v-596h205q27 289 184.5 454t402.5 165q264 0 420 -193.5t156 -504.5q0 -346 -168 -537t-426 -191q-252 0 -407.5 178.5t-165.5 479.5h-201v-635h-178v1380zM1114 121h2q188 0 296 165t108 410q0 143 -42 268.5t-136.5 210.5t-223.5 85q-195 0 -301 -168 t-106 -410q0 -231 109.5 -396t293.5 -165z" />
<glyph unicode="&#x42f;" horiz-adv-x="1112" d="M221 0h-190q29 51 55 125l41 120l44 131q17 50 51 111.5t73 100.5q51 51 115 69v7q-133 23 -219.5 112.5t-86.5 227.5q0 176 127 280q131 106 396 107q190 0 329 -29v-1362h-178v598h-131q-131 0 -198 -68q-43 -43 -75 -113.5t-65 -178l-43 -138.5q-31 -73 -45 -100z M778 735v500q-70 18 -168 18q-145 0 -235 -62.5t-90 -195.5q0 -121 96 -191.5t246 -70.5q116 0 151 2z" />
<glyph unicode="&#x430;" horiz-adv-x="987" d="M846 608v-370q0 -147 16 -238h-164l-14 125h-6q-45 -63 -124 -105.5t-179 -42.5q-143 0 -223 84t-80 201q0 180 154.5 275.5t441.5 93.5v20q0 229 -226 230q-143 0 -258 -74l-41 119q135 88 326 88q109 0 185.5 -35t116.5 -95.5t57.5 -127t17.5 -148.5zM672 334v172 q-420 8 -420 -223q0 -84 48 -128t122 -44q90 0 152.5 48t87.5 117q10 31 10 58z" />
<glyph unicode="&#x431;" horiz-adv-x="1081" d="M907 1477l-8 -150q-63 -23 -207 -45q-250 -39 -352 -186q-94 -133 -109 -328h7q47 104 141 163.5t203 59.5q188 0 305 -129t117 -360q0 -244 -121 -384.5t-338 -140.5q-125 0 -218.5 56.5t-144.5 154t-75.5 210t-24.5 243.5q0 348 154 549q70 100 172 153.5t254 79.5 q171 27 245 54zM821 487v2q0 88 -22.5 167t-88 140.5t-165.5 61.5q-154 0 -223 -135q-49 -88 -50 -211q0 -90 27 -177t92.5 -155.5t157.5 -68.5q137 0 204.5 110t67.5 266z" />
<glyph unicode="&#x432;" horiz-adv-x="1024" d="M145 0v979q127 23 316 22q440 0 440 -247q0 -88 -58.5 -145.5t-148.5 -78.5v-4q115 -16 183.5 -78.5t68.5 -166.5q0 -293 -522 -293q-119 0 -279 12zM317 868v-293h136q115 0 192.5 37t77.5 119q0 145 -266 146q-54 -1 -140 -9zM315 457v-338q68 -8 146 -8q51 0 98 7 t96.5 24.5t78 53t28.5 87.5q0 98 -84 136t-232 38h-131z" />
<glyph unicode="&#x433;" horiz-adv-x="788" d="M145 991h609v-145h-430v-846h-179v991z" />
<glyph unicode="&#x434;" horiz-adv-x="1085" d="M256 991h662v-856l102 -2l-10 -448h-142l-8 315h-686l-8 -315h-141l-9 448l84 2q63 94 99 203q57 180 57 395v258zM416 854v-164q0 -197 -51 -368q-27 -90 -80 -185h456v717h-325z" />
<glyph unicode="&#x435;" horiz-adv-x="1026" d="M946 463h-696q2 -172 98 -258t242 -86q154 0 274 51l31 -129q-141 -63 -330 -64q-225 0 -356 137.5t-131 364.5q0 229 127 382t338 153q115 0 199.5 -46t127.5 -121t62.5 -149.5t19.5 -150.5q0 -29 -6 -84zM252 592h526q2 111 -56 202t-194 91q-125 0 -194.5 -90 t-81.5 -203z" />
<glyph unicode="&#x436;" horiz-adv-x="1366" d="M27 991h206l328 -432h37v432h172v-432h35l328 432h206l-391 -450q207 -23 297 -262q84 -231 109 -279h-180q-37 66 -91 227q-45 117 -112.5 164t-169.5 47h-31v-438h-172v438h-33q-109 0 -174 -47t-110 -166q-70 -180 -95 -225h-174q16 31 109 276q92 242 299 265z" />
<glyph unicode="&#x437;" horiz-adv-x="882" d="M231 453v122h86q113 0 183.5 46.5t70.5 115.5q0 66 -53 105t-139 39q-127 0 -240 -70l-45 111q147 90 330 90q82 0 154.5 -23.5t127 -85t54.5 -151.5q0 -86 -66.5 -146.5t-156.5 -79.5v-4q115 -10 192.5 -76.5t77.5 -171.5q0 -150 -126 -222t-302 -72q-178 0 -322 79 l47 121q125 -68 263 -67q111 0 177 47t66 123q0 170 -288 170h-91z" />
<glyph unicode="&#x438;" horiz-adv-x="1134" d="M145 991h170v-418q0 -221 -10 -397h6q94 188 160 303l309 512h211v-991h-172v420q0 166 12 405h-6q-82 -164 -163 -307l-310 -518h-207v991z" />
<glyph unicode="&#x439;" horiz-adv-x="1134" d="M145 991h170v-418q0 -221 -10 -397h6q94 188 160 303l309 512h211v-991h-172v420q0 166 12 405h-6q-82 -164 -163 -307l-310 -518h-207v991zM301 1395h131q4 -70 37 -113t94 -43q123 0 137 156h131q-8 -123 -79.5 -188.5t-192.5 -65.5q-127 0 -189.5 69.5t-68.5 184.5z " />
<glyph unicode="&#x43a;" horiz-adv-x="980" d="M150 991h178v-430h43l372 430h220l-433 -448q115 -12 194 -87t140 -214q76 -188 107 -242h-189q-41 66 -92 203q-51 123 -128 178t-200 55h-34v-436h-178v991z" />
<glyph unicode="&#x43b;" horiz-adv-x="1038" d="M205 991h688v-991h-178v848h-340v-252q0 -227 -33 -357t-123 -190q-76 -63 -196 -63l-19 143q57 6 98 41q63 45 83 141.5t20 284.5v395z" />
<glyph unicode="&#x43c;" horiz-adv-x="1308" d="M86 0l74 991h221l180 -499q86 -256 90 -273h4q29 96 117 340l160 432h223l70 -991h-172l-23 473q-16 270 -18 354h-6q-37 -127 -109 -321l-190 -500h-132l-176 490q-57 174 -98 329h-8q-6 -176 -17 -356l-24 -469h-166z" />
<glyph unicode="&#x43d;" horiz-adv-x="1118" d="M145 991h179v-399h471v399h178v-991h-178v449h-471v-449h-179v991z" />
<glyph unicode="&#x43e;" horiz-adv-x="1124" d="M569 1014q213 0 345.5 -141.5t132.5 -368.5q0 -256 -146.5 -391.5t-347.5 -135.5q-205 0 -340 139.5t-135 370.5q0 242 139 384.5t352 142.5zM565 879q-150 0 -227.5 -114t-77.5 -271q0 -164 85 -272.5t216 -108.5q129 0 215 109.5t86 275.5q0 90 -28.5 173t-98.5 145.5 t-170 62.5z" />
<glyph unicode="&#x43f;" horiz-adv-x="1107" d="M145 991h820v-991h-181v848h-460v-848h-179v991z" />
<glyph unicode="&#x440;" horiz-adv-x="1165" d="M150 -406v1074q0 135 -9 323h162l8 -170h4q117 193 353 193q182 0 300.5 -140.5t118.5 -363.5q0 -254 -131 -393.5t-319 -139.5q-98 0 -179 41t-126 115h-4v-539h-178zM328 573v-170q0 -29 8 -73q25 -94 99.5 -152.5t170.5 -58.5q141 0 221 104.5t80 278.5 q0 156 -78.5 262t-216.5 106q-94 0 -169.5 -61t-102.5 -162q-12 -45 -12 -74z" />
<glyph unicode="&#x441;" horiz-adv-x="917" d="M825 172l31 -135q-115 -59 -285 -60q-223 0 -358 140.5t-135 367.5q0 231 146.5 379t385.5 148q147 0 250 -51l-41 -140q-82 47 -209 47q-164 0 -257 -106.5t-93 -267.5q0 -170 97.5 -270.5t246.5 -100.5q108 0 221 49z" />
<glyph unicode="&#x442;" horiz-adv-x="841" d="M23 991h796v-143h-309v-848h-178v848h-309v143z" />
<glyph unicode="&#x443;" horiz-adv-x="964" d="M18 991h197l217 -585q39 -111 64 -203h4q2 6 25.5 85t37.5 122l197 581h190l-270 -706q-100 -264 -175 -403.5t-165 -217.5q-109 -96 -221 -117l-45 152q86 27 157 88q96 76 152 201q14 33 14 43q0 14 -12 47z" />
<glyph unicode="&#x444;" horiz-adv-x="1312" d="M573 1450h168l-2 -440q223 -16 360.5 -151.5t137.5 -360.5q0 -233 -139.5 -367.5t-358.5 -148.5l2 -388h-168l2 386q-221 14 -359 148t-138 359q0 236 138 370t359 153zM575 104v783q-147 -20 -233 -129t-86 -264.5t87 -263.5t232 -126zM739 887v-783q147 20 233.5 129 t86.5 264.5t-86.5 262.5t-233.5 127z" />
<glyph unicode="&#x445;" horiz-adv-x="948" d="M33 991h200l142 -213q41 -61 100 -162h6l99 164l139 211h194l-338 -479l349 -512h-205l-146 223q-41 61 -106 172h-4q-14 -27 -105 -172l-143 -223h-199l353 506z" />
<glyph unicode="&#x446;" horiz-adv-x="1126" d="M145 991h179v-850h456v850h178v-856l103 -2l-10 -448h-140l-8 315h-758v991z" />
<glyph unicode="&#x447;" horiz-adv-x="1054" d="M133 991h180v-334q0 -211 205 -211q117 0 213 68v477h178v-1003h-178v401h-4q-113 -76 -268 -76q-150 0 -238 80t-88 242v356z" />
<glyph unicode="&#x448;" horiz-adv-x="1511" d="M145 991h177v-850h346v850h176v-850h346v850h178v-991h-1223v991z" />
<glyph unicode="&#x449;" horiz-adv-x="1533" d="M145 991h177v-850h346v850h176v-850h346v850h178v-856l100 -2l-10 -448h-139l-8 315h-1166v991z" />
<glyph unicode="&#x44a;" horiz-adv-x="1185" d="M29 991h473v-334q63 8 170 9q113 0 207 -29t163.5 -106.5t69.5 -198.5q0 -141 -104 -230q-133 -113 -420 -112q-133 0 -266 14v846h-293v141zM500 526v-399q61 -10 135 -10q127 0 212 50t85 159q0 61 -26.5 104t-73 65.5t-96.5 32t-109 9.5q-55 -1 -127 -11z" />
<glyph unicode="&#x44b;" horiz-adv-x="1361" d="M145 991h179v-338q57 12 161 13q180 0 304 -81t124 -251q0 -143 -102 -230q-135 -115 -399 -114q-137 0 -267 14v987zM324 526v-401q70 -8 125 -8q117 0 201.5 52t84.5 159q0 111 -81 160t-197 49q-72 -1 -133 -11zM1038 991h179v-991h-179v991z" />
<glyph unicode="&#x44c;" horiz-adv-x="1019" d="M145 991h179v-336q53 10 163 11q90 0 167 -15.5t145.5 -51.5t107.5 -104.5t39 -162.5q0 -139 -104 -228q-135 -115 -430 -114q-137 0 -267 14v987zM324 526v-401q70 -8 133 -8q123 0 216 49t93 162q0 61 -29.5 104t-79 64.5t-99.5 31t-105 9.5q-61 -1 -129 -11z" />
<glyph unicode="&#x44d;" horiz-adv-x="950" d="M190 442v123h500q-12 137 -98 223t-244 86q-119 0 -237 -55l-39 117q137 78 305 78q225 0 360 -141.5t135 -380.5q0 -223 -140 -369t-386 -146q-158 0 -289 68l35 129q123 -53 248 -53q150 0 243 87t105 234h-498z" />
<glyph unicode="&#x44e;" horiz-adv-x="1443" d="M145 991h177v-418h170q23 199 143.5 320t296.5 121q195 0 314.5 -140.5t119.5 -369.5q0 -236 -127 -381.5t-319 -145.5q-180 0 -299 124t-134 335h-165v-436h-177v991zM922 111h2q127 0 194.5 116.5t67.5 272.5q0 154 -67.5 266.5t-192.5 112.5t-196 -115t-71 -275 q0 -156 70 -267t193 -111z" />
<glyph unicode="&#x44f;" horiz-adv-x="1015" d="M872 983v-983h-178v416h-133q-104 0 -166 -56q-27 -20 -48 -57t-33.5 -66.5t-30.5 -80.5l-27 -74q-14 -37 -41 -82h-192q35 51 61 113q10 20 36.5 95t53.5 123t66 81q53 47 112 57v6q-106 12 -184 75.5t-78 170.5q0 141 131 215q117 68 332 68q147 -1 319 -21zM694 539 v333q-76 10 -149 11q-111 0 -190 -39t-79 -133q0 -86 83 -129t182 -43h153z" />
<glyph unicode="&#x451;" horiz-adv-x="1026" d="M360 1167h-2q-43 0 -72.5 31t-29.5 74t30.5 73.5t73.5 30.5t72 -29.5t29 -74.5q0 -43 -29 -74t-72 -31zM739 1167h-2q-43 0 -71.5 31t-28.5 74t29.5 73.5t72.5 30.5t72 -29.5t29 -74.5q0 -43 -29 -74t-72 -31zM946 463h-696q2 -172 98 -258t242 -86q154 0 274 51l31 -129 q-141 -63 -330 -64q-225 0 -356 137.5t-131 364.5q0 229 127 382t338 153q115 0 199.5 -46t127.5 -121t62.5 -149.5t19.5 -150.5q0 -29 -6 -84zM252 592h526q2 111 -56 202t-194 91q-125 0 -194.5 -90t-81.5 -203z" />
<glyph unicode="&#x452;" horiz-adv-x="1140" d="M14 1280h168v174h180v-174h463v-129h-463v-291h5q127 141 301 141q182 0 282 -159q109 -156 109 -434q0 -418 -203 -588q-117 -100 -256 -115l-35 141q123 27 193 103q121 137 121 448q0 219 -78 348q-70 111 -189 111q-121 0 -219 -119q-31 -43 -31 -112v-625h-180v1151 h-168v129z" />
<glyph unicode="&#x453;" horiz-adv-x="788" d="M145 991h609v-145h-430v-846h-179v991zM512 1419h199l-250 -293h-129z" />
<glyph unicode="&#x454;" horiz-adv-x="942" d="M885 948l-43 -129q-115 55 -226 55q-156 0 -246.5 -87t-107.5 -222h502v-123h-500q10 -147 105.5 -235t242.5 -88q117 0 236 51l37 -127q-121 -66 -301 -66q-233 0 -369.5 143.5t-136.5 364.5q0 236 151.5 382.5t388.5 146.5q150 0 267 -66z" />
<glyph unicode="&#x455;" horiz-adv-x="811" d="M80 47l45 137q111 -72 237 -71q94 0 143.5 41t49.5 106q0 63 -42 104.5t-142 77.5q-262 94 -262 281q0 123 93 207t249 84q139 0 243 -62l-45 -131q-90 57 -203 58q-78 0 -121.5 -39t-43.5 -97q0 -59 42 -94t146 -74q133 -51 196.5 -120.5t63.5 -178.5q0 -133 -98.5 -216 t-272.5 -83q-159 0 -278 70z" />
<glyph unicode="&#x456;" horiz-adv-x="479" d="M330 0h-180v991h180v-991zM239.5 1382q49.5 0 80 -31.5t30.5 -80.5q2 -47 -29.5 -79t-84.5 -32q-47 0 -78 32t-31 79t31.5 79.5t81 32.5z" />
<glyph unicode="&#x457;" horiz-adv-x="479" d="M51 1167h-2q-43 0 -72.5 31t-29.5 74t30.5 73.5t73.5 30.5t72 -29.5t29 -74.5q0 -43 -29 -74t-72 -31zM430 1167h-2q-43 0 -71.5 31t-28.5 74t29.5 73.5t72.5 30.5t71.5 -29.5t28.5 -74.5q0 -43 -28.5 -74t-71.5 -31zM330 0h-180v991h180v-991z" />
<glyph unicode="&#x458;" horiz-adv-x="497" d="M-74 -432l-18 141q137 10 196 76q39 43 53.5 121t14.5 252v833h180v-903q0 -287 -119 -407q-55 -55 -141 -84t-166 -29zM264 1382q49 0 79 -31.5t30 -80.5q2 -47 -30 -79t-83 -32q-49 0 -79.5 33t-30.5 78q0 49 31.5 80.5t82.5 31.5z" />
<glyph unicode="&#x459;" horiz-adv-x="1587" d="M215 991h680v-336q57 8 162 9q88 0 164.5 -16.5t145.5 -53.5t107.5 -104.5t38.5 -159.5q0 -139 -100 -226q-133 -115 -430 -114q-135 0 -268 14v844h-332v-252q0 -221 -37 -354t-129 -195q-78 -61 -194 -61l-19 143q59 6 98 39q66 47 89.5 148.5t23.5 279.5v395zM893 524 v-399q74 -8 133 -8q123 0 215 49t92 160q0 115 -89 163t-208 48q-57 -1 -143 -13z" />
<glyph unicode="&#x45a;" horiz-adv-x="1601" d="M145 991h179v-368h417v368h181v-346q82 12 168 12q111 0 205 -28.5t163.5 -106.5t69.5 -194q0 -141 -101 -228q-127 -111 -417 -110q-121 0 -269 12v481h-417v-483h-179v991zM920 518v-393q70 -8 135 -8q117 0 206 48t89 157q0 113 -86 159.5t-209 46.5q-67 0 -135 -10z " />
<glyph unicode="&#x45b;" horiz-adv-x="1169" d="M14 1280h168v174h180v-174h414v-129h-414v-320h5q47 72 122 121q84 49 191 49q160 0 253 -109.5t93 -311.5v-580h-180v559q0 131 -55.5 213t-174.5 82q-86 0 -150.5 -52t-90.5 -128q-12 -37 -13 -94v-580h-180v1151h-168v129z" />
<glyph unicode="&#x45c;" horiz-adv-x="980" d="M150 991h178v-430h43l372 430h220l-433 -448q115 -12 194 -87t140 -214q76 -188 107 -242h-189q-41 66 -92 203q-51 123 -128 178t-200 55h-34v-436h-178v991zM573 1419h199l-250 -293h-129z" />
<glyph unicode="&#x45e;" horiz-adv-x="964" d="M217 1395h131q4 -70 37 -113t94 -43q123 0 137 156h132q-8 -123 -80 -188.5t-193 -65.5q-127 0 -189.5 69.5t-68.5 184.5zM18 991h197l217 -585q39 -111 64 -203h4q2 6 25.5 85t37.5 122l197 581h190l-270 -706q-100 -264 -175 -403.5t-165 -217.5q-109 -96 -221 -117 l-45 152q86 27 157 88q96 76 152 201q14 33 14 43q0 14 -12 47z" />
<glyph unicode="&#x45f;" horiz-adv-x="1101" d="M145 991h179v-850h454v850h180v-991h-321l-12 -322h-144l-14 322h-322v991z" />
<glyph unicode="&#x490;" horiz-adv-x="915" d="M156 1380h598l32 250h132l-23 -399h-561v-1231h-178v1380z" />
<glyph unicode="&#x491;" horiz-adv-x="802" d="M145 991h469l25 223h129l-12 -366h-432v-848h-179v991z" />
<glyph unicode="&#x4d9;" horiz-adv-x="671" d="M160 819l-31 127q139 68 332 68q225 0 355 -138.5t130 -363.5q0 -229 -127 -382t-338 -153q-115 0 -198.5 46.5t-126.5 120t-62.5 148.5t-19.5 150q0 57 6 84h694q-2 176 -95 261t-241 85q-153 0 -278 -53zM772 397h-526q0 -47 11 -93t36.5 -92t78 -74.5t124.5 -28.5 q127 0 195.5 87.5t80.5 200.5z" />
<glyph unicode="&#x1e80;" horiz-adv-x="1732" d="M567 0h-186l-350 1380h188l164 -698q63 -268 102 -477h4q23 139 113 479l184 696h187l168 -700q74 -307 96 -473h4q27 143 111 477l182 696h182l-391 -1380h-186l-174 719q-66 272 -91 450h-4q-39 -213 -106 -450zM559 1694h217l191 -238h-148z" />
<glyph unicode="&#x1e81;" horiz-adv-x="1507" d="M485 1419h199l178 -293h-127zM37 991h184l131 -504q55 -213 74 -315h6q20 92 88 315l162 504h152l153 -495q55 -180 88 -324h6q20 123 76 322l141 497h179l-320 -991h-164l-151 473q-59 186 -88 326h-4q-29 -141 -91 -328l-159 -471h-164z" />
<glyph unicode="&#x1e82;" horiz-adv-x="1732" d="M567 0h-186l-350 1380h188l164 -698q63 -268 102 -477h4q23 139 113 479l184 696h187l168 -700q74 -307 96 -473h4q27 143 111 477l182 696h182l-391 -1380h-186l-174 719q-66 272 -91 450h-4q-39 -213 -106 -450zM977 1694h217l-260 -240h-148z" />
<glyph unicode="&#x1e83;" horiz-adv-x="1507" d="M842 1419h198l-249 -293h-129zM37 991h184l131 -504q55 -213 74 -315h6q20 92 88 315l162 504h152l153 -495q55 -180 88 -324h6q20 123 76 322l141 497h179l-320 -991h-164l-151 473q-59 186 -88 326h-4q-29 -141 -91 -328l-159 -471h-164z" />
<glyph unicode="&#x1e84;" horiz-adv-x="1732" d="M567 0h-186l-350 1380h188l164 -698q63 -268 102 -477h4q23 139 113 479l184 696h187l168 -700q74 -307 96 -473h4q27 143 111 477l182 696h182l-391 -1380h-186l-174 719q-66 272 -91 450h-4q-39 -213 -106 -450zM684 1477h-2q-43 0 -70.5 29.5t-27.5 74.5 q0 43 28.5 72.5t71.5 29.5t70.5 -29.5t27.5 -72.5q0 -45 -27.5 -74.5t-70.5 -29.5zM1063 1477h-2q-43 0 -70.5 30.5t-27.5 73.5t29.5 72.5t72.5 29.5t70.5 -29.5t27.5 -72.5q0 -45 -27.5 -74.5t-72.5 -29.5z" />
<glyph unicode="&#x1e85;" horiz-adv-x="1507" d="M565 1167h-2q-43 0 -72.5 31t-29.5 74t30.5 73.5t73.5 30.5t72 -29.5t29 -74.5q0 -43 -29 -74t-72 -31zM944 1167h-2q-43 0 -71.5 31t-28.5 74t29.5 73.5t72.5 30.5t71.5 -29.5t28.5 -74.5q0 -43 -28.5 -74t-71.5 -31zM37 991h184l131 -504q55 -213 74 -315h6 q20 92 88 315l162 504h152l153 -495q55 -180 88 -324h6q20 123 76 322l141 497h179l-320 -991h-164l-151 473q-59 186 -88 326h-4q-29 -141 -91 -328l-159 -471h-164z" />
<glyph unicode="&#x1ea0;" horiz-adv-x="1253" d="M868 434h-489l-143 -434h-185l469 1380h215l471 -1380h-190zM416 573h415l-135 398q-29 84 -71 252h-4q-35 -143 -70 -250zM623 -164q41 0 70.5 -30.5t29.5 -73.5t-29.5 -75t-75.5 -32q-43 0 -72.5 32t-29.5 75t31 73.5t76 30.5z" />
<glyph unicode="&#x1ea1;" horiz-adv-x="987" d="M846 608v-370q0 -147 16 -238h-164l-14 125h-6q-45 -63 -124 -105.5t-179 -42.5q-143 0 -223 84t-80 201q0 180 154.5 275.5t441.5 93.5v20q0 229 -226 230q-143 0 -258 -74l-41 119q135 88 326 88q109 0 185.5 -35t116.5 -95.5t57.5 -127t17.5 -148.5zM672 334v172 q-420 8 -420 -223q0 -84 48 -128t122 -44q90 0 152.5 48t87.5 117q10 31 10 58zM494 -164q41 0 70.5 -30.5t29.5 -73.5t-29.5 -75t-75.5 -32q-43 0 -72.5 32t-29.5 75t31 73.5t76 30.5z" />
<glyph unicode="&#x1ea2;" horiz-adv-x="1253" d="M868 434h-489l-143 -434h-185l469 1380h215l471 -1380h-190zM416 573h415l-135 398q-29 84 -71 252h-4q-35 -143 -70 -250zM678 1452l-96 27q14 41 60 89t46 83q0 29 -18.5 46t-48.5 17q-53 0 -101 -72l-69 41q70 137 202 138q72 0 121 -42t49 -106q0 -45 -23.5 -78.5 t-62.5 -70.5t-59 -72z" />
<glyph unicode="&#x1ea3;" horiz-adv-x="987" d="M846 608v-370q0 -147 16 -238h-164l-14 125h-6q-45 -63 -124 -105.5t-179 -42.5q-143 0 -223 84t-80 201q0 180 154.5 275.5t441.5 93.5v20q0 229 -226 230q-143 0 -258 -74l-41 119q135 88 326 88q109 0 185.5 -35t116.5 -95.5t57.5 -127t17.5 -148.5zM672 334v172 q-420 8 -420 -223q0 -84 48 -128t122 -44q90 0 152.5 48t87.5 117q10 31 10 58zM522 1085l-96 25q12 43 63.5 98.5t51.5 94.5q0 31 -19.5 50t-48.5 19q-53 0 -100 -72l-70 41q70 137 201 138q74 0 123 -43t49 -111q0 -66 -70 -138.5t-84 -101.5z" />
<glyph unicode="&#x1ea4;" horiz-adv-x="1253" d="M868 434h-489l-143 -434h-185l469 1380h215l471 -1380h-190zM416 573h415l-135 398q-29 84 -71 252h-4q-35 -143 -70 -250zM573 1688h129l195 -234h-143l-113 143h-4l-115 -143h-137zM971 1843h182l-248 -215h-106z" />
<glyph unicode="&#x1ea5;" horiz-adv-x="987" d="M846 608v-370q0 -147 16 -238h-164l-14 125h-6q-45 -63 -124 -105.5t-179 -42.5q-143 0 -223 84t-80 201q0 180 154.5 275.5t441.5 93.5v20q0 229 -226 230q-143 0 -258 -74l-41 119q135 88 326 88q109 0 185.5 -35t116.5 -95.5t57.5 -127t17.5 -148.5zM672 334v172 q-420 8 -420 -223q0 -84 48 -128t122 -44q90 0 152.5 48t87.5 117q10 31 10 58zM412 1419h133l176 -293h-137l-105 193h-4l-104 -193h-131zM805 1587h166l-203 -270h-104z" />
<glyph unicode="&#x1ea6;" horiz-adv-x="1253" d="M868 434h-489l-143 -434h-185l469 1380h215l471 -1380h-190zM416 573h415l-135 398q-29 84 -71 252h-4q-35 -143 -70 -250zM688 1804h186l148 -215h-111zM559 1688h131l193 -234h-144l-112 143h-4l-113 -143h-139z" />
<glyph unicode="&#x1ea7;" horiz-adv-x="987" d="M846 608v-370q0 -147 16 -238h-164l-14 125h-6q-45 -63 -124 -105.5t-179 -42.5q-143 0 -223 84t-80 201q0 180 154.5 275.5t441.5 93.5v20q0 229 -226 230q-143 0 -258 -74l-41 119q135 88 326 88q109 0 185.5 -35t116.5 -95.5t57.5 -127t17.5 -148.5zM672 334v172 q-420 8 -420 -223q0 -84 48 -128t122 -44q90 0 152.5 48t87.5 117q10 31 10 58zM557 1587h164l131 -270h-104zM410 1419h133l176 -293h-137l-105 193h-4l-104 -193h-131z" />
<glyph unicode="&#x1ea8;" horiz-adv-x="1253" d="M868 434h-489l-143 -434h-185l469 1380h215l471 -1380h-190zM416 573h415l-135 398q-29 84 -71 252h-4q-35 -143 -70 -250zM567 1688h129l195 -234h-143l-115 143h-4l-113 -143h-139zM940 1544l-86 25q14 39 60.5 87t46.5 83q0 29 -20.5 48t-49.5 19q-51 0 -100 -75 l-66 38q63 131 195 132q70 0 115.5 -41t45.5 -103q0 -57 -62.5 -119.5t-78.5 -93.5z" />
<glyph unicode="&#x1ea9;" horiz-adv-x="987" d="M846 608v-370q0 -147 16 -238h-164l-14 125h-6q-45 -63 -124 -105.5t-179 -42.5q-143 0 -223 84t-80 201q0 180 154.5 275.5t441.5 93.5v20q0 229 -226 230q-143 0 -258 -74l-41 119q135 88 326 88q109 0 185.5 -35t116.5 -95.5t57.5 -127t17.5 -148.5zM672 334v172 q-420 8 -420 -223q0 -84 48 -128t122 -44q90 0 152.5 48t87.5 117q10 31 10 58zM406 1419h133l176 -293h-137l-105 193h-4l-104 -193h-132zM774 1300l-90 23q16 41 60 88t44 80q0 29 -19 48.5t-48 19.5q-51 0 -98 -74l-66 41q66 131 195 131q70 0 116.5 -43t46.5 -103 q0 -45 -22.5 -75.5t-60.5 -65.5t-58 -70z" />
<glyph unicode="&#x1eaa;" horiz-adv-x="1253" d="M868 434h-489l-143 -434h-185l469 1380h215l471 -1380h-190zM416 573h415l-135 398q-29 84 -71 252h-4q-35 -143 -70 -250zM561 1688h137l213 -234h-149l-131 141h-4l-129 -141h-148zM483 1714h-100q-2 88 37 141.5t102 53.5q47 0 127 -45q66 -33 88 -33q49 0 56 84h96 q4 -197 -139 -197q-43 0 -125 43q-63 35 -90 35q-48 0 -52 -82z" />
<glyph unicode="&#x1eab;" horiz-adv-x="987" d="M846 608v-370q0 -147 16 -238h-164l-14 125h-6q-45 -63 -124 -105.5t-179 -42.5q-143 0 -223 84t-80 201q0 180 154.5 275.5t441.5 93.5v20q0 229 -226 230q-143 0 -258 -74l-41 119q135 88 326 88q109 0 185.5 -35t116.5 -95.5t57.5 -127t17.5 -148.5zM672 334v172 q-420 8 -420 -223q0 -84 48 -128t122 -44q90 0 152.5 48t87.5 117q10 31 10 58zM426 1368h131l188 -242h-141l-110 150h-5l-108 -150h-137zM346 1393h-100q-2 88 37 141t102 53q41 0 127 -45q57 -33 88 -33q51 0 55 82h97q4 -197 -140 -196q-43 0 -125 43q-63 35 -90 35 q-47 0 -51 -80z" />
<glyph unicode="&#x1eac;" horiz-adv-x="1253" d="M868 434h-489l-143 -434h-185l469 1380h215l471 -1380h-190zM416 573h415l-135 398q-29 84 -71 252h-4q-35 -143 -70 -250zM563 1688h137l213 -234h-149l-131 141h-4l-131 -141h-146zM618 -371h-2q-41 0 -70.5 32t-29.5 73t31 71.5t74 30.5q41 0 69.5 -30.5t28.5 -71.5 t-30 -73t-71 -32z" />
<glyph unicode="&#x1ead;" horiz-adv-x="987" d="M846 608v-370q0 -147 16 -238h-164l-14 125h-6q-45 -63 -124 -105.5t-179 -42.5q-143 0 -223 84t-80 201q0 180 154.5 275.5t441.5 93.5v20q0 229 -226 230q-143 0 -258 -74l-41 119q135 88 326 88q109 0 185.5 -35t116.5 -95.5t57.5 -127t17.5 -148.5zM672 334v172 q-420 8 -420 -223q0 -84 48 -128t122 -44q90 0 152.5 48t87.5 117q10 31 10 58zM430 1419h125l197 -293h-140l-118 195h-5l-118 -195h-133zM494 -164q41 0 70.5 -30.5t29.5 -73.5t-29.5 -75t-75.5 -32q-43 0 -72.5 32t-29.5 75t31 73.5t76 30.5z" />
<glyph unicode="&#x1eae;" horiz-adv-x="1253" d="M868 434h-489l-143 -434h-185l469 1380h215l471 -1380h-190zM416 573h415l-135 398q-29 84 -71 252h-4q-35 -143 -70 -250zM379 1642h98q25 -100 156 -100t162 100h94q-10 -88 -77 -149t-181 -61q-113 0 -176.5 59t-75.5 151zM711 1835h188l-229 -215h-111z" />
<glyph unicode="&#x1eaf;" horiz-adv-x="987" d="M846 608v-370q0 -147 16 -238h-164l-14 125h-6q-45 -63 -124 -105.5t-179 -42.5q-143 0 -223 84t-80 201q0 180 154.5 275.5t441.5 93.5v20q0 229 -226 230q-143 0 -258 -74l-41 119q135 88 326 88q109 0 185.5 -35t116.5 -95.5t57.5 -127t17.5 -148.5zM672 334v172 q-420 8 -420 -223q0 -84 48 -128t122 -44q90 0 152.5 48t87.5 117q10 31 10 58zM571 1583h174l-227 -268h-108zM221 1346h103q10 -61 53 -101.5t108 -40.5q74 0 116 42t46 100h103q-2 -115 -75 -184.5t-190 -69.5q-127 0 -194.5 74t-69.5 180z" />
<glyph unicode="&#x1eb0;" horiz-adv-x="1253" d="M868 434h-489l-143 -434h-185l469 1380h215l471 -1380h-190zM416 573h415l-135 398q-29 84 -71 252h-4q-35 -143 -70 -250zM379 1835h188l152 -215h-111zM381 1642h98q25 -100 156 -100t162 100h94q-10 -88 -76.5 -149t-181.5 -61q-113 0 -176.5 59t-75.5 151z" />
<glyph unicode="&#x1eb1;" horiz-adv-x="987" d="M846 608v-370q0 -147 16 -238h-164l-14 125h-6q-45 -63 -124 -105.5t-179 -42.5q-143 0 -223 84t-80 201q0 180 154.5 275.5t441.5 93.5v20q0 229 -226 230q-143 0 -258 -74l-41 119q135 88 326 88q109 0 185.5 -35t116.5 -95.5t57.5 -127t17.5 -148.5zM672 334v172 q-420 8 -420 -223q0 -84 48 -128t122 -44q90 0 152.5 48t87.5 117q10 31 10 58zM231 1583h172l164 -268h-110zM221 1346h103q10 -61 53 -101.5t108 -40.5q74 0 117 42t47 100h101q-2 -115 -75 -184.5t-190 -69.5q-127 0 -194.5 74t-69.5 180z" />
<glyph unicode="&#x1eb2;" horiz-adv-x="1253" d="M868 434h-489l-143 -434h-185l469 1380h215l471 -1380h-190zM416 573h415l-135 398q-29 84 -71 252h-4q-35 -143 -70 -250zM664 1593l-89 25q14 39 59.5 87t45.5 81q0 29 -19.5 47t-48.5 18q-51 0 -98 -71l-65 39q63 131 194 131q70 0 116 -42t46 -102q0 -45 -22.5 -75.5 t-60.5 -66.5t-58 -71zM381 1642h98q25 -100 158 -100q129 0 160 100h96q-12 -88 -78.5 -149t-181.5 -61q-113 0 -176.5 59t-75.5 151z" />
<glyph unicode="&#x1eb3;" horiz-adv-x="987" d="M846 608v-370q0 -147 16 -238h-164l-14 125h-6q-45 -63 -124 -105.5t-179 -42.5q-143 0 -223 84t-80 201q0 180 154.5 275.5t441.5 93.5v20q0 229 -226 230q-143 0 -258 -74l-41 119q135 88 326 88q109 0 185.5 -35t116.5 -95.5t57.5 -127t17.5 -148.5zM672 334v172 q-420 8 -420 -223q0 -84 48 -128t122 -44q90 0 152.5 48t87.5 117q10 31 10 58zM510 1298l-90 23q16 41 60 88t44 80q0 29 -19.5 48t-49.5 19q-49 0 -97 -73l-65 41q66 131 194 131q70 0 117 -43t47 -103q0 -45 -22.5 -75.5t-60.5 -65.5t-58 -70zM219 1346h103 q10 -61 53 -101.5t108 -40.5q74 0 116 42t46 100h103q-2 -115 -75 -184.5t-190 -69.5q-127 0 -194.5 74t-69.5 180z" />
<glyph unicode="&#x1eb4;" horiz-adv-x="1253" d="M868 434h-489l-143 -434h-185l469 1380h215l471 -1380h-190zM416 573h415l-135 398q-29 84 -71 252h-4q-35 -143 -70 -250zM475 1712h-100q4 80 40 128t99 48q41 0 127 -43q57 -33 86 -33q27 0 40 17.5t17 64.5h95q4 -197 -140 -196q-43 0 -125 43q-63 35 -88 35 q-39 -1 -51 -64zM369 1642h96q29 -100 158 -100t159 100h97q-10 -88 -77 -149t-181 -61q-113 0 -177.5 60t-74.5 150z" />
<glyph unicode="&#x1eb5;" horiz-adv-x="987" d="M846 608v-370q0 -147 16 -238h-164l-14 125h-6q-45 -63 -124 -105.5t-179 -42.5q-143 0 -223 84t-80 201q0 180 154.5 275.5t441.5 93.5v20q0 229 -226 230q-143 0 -258 -74l-41 119q135 88 326 88q109 0 185.5 -35t116.5 -95.5t57.5 -127t17.5 -148.5zM672 334v172 q-420 8 -420 -223q0 -84 48 -128t122 -44q90 0 152.5 48t87.5 117q10 31 10 58zM344 1430h-102q4 78 39.5 127t99.5 49q41 0 127 -45q66 -33 86 -33q51 0 57 84h97q4 -197 -142 -197q-51 0 -123 43q-66 33 -90 33q-41 0 -49 -61zM231 1346h101q10 -61 53 -102.5t107 -41.5 q72 0 113.5 43t45.5 101h101q-2 -115 -74 -184.5t-186 -69.5q-127 0 -193 74t-68 180z" />
<glyph unicode="&#x1eb6;" horiz-adv-x="1253" d="M868 434h-489l-143 -434h-185l469 1380h215l471 -1380h-190zM416 573h415l-135 398q-29 84 -71 252h-4q-35 -143 -70 -250zM373 1704h106q23 -100 148 -100q131 0 149 100h105q-4 -96 -67.5 -156.5t-188.5 -60.5t-186.5 59.5t-65.5 157.5zM625 -371h-2q-41 0 -71 32 t-30 73t31 71.5t74 30.5q41 0 69.5 -30.5t28.5 -71.5t-29.5 -73t-70.5 -32z" />
<glyph unicode="&#x1eb7;" horiz-adv-x="987" d="M846 608v-370q0 -147 16 -238h-164l-14 125h-6q-45 -63 -124 -105.5t-179 -42.5q-143 0 -223 84t-80 201q0 180 154.5 275.5t441.5 93.5v20q0 229 -226 230q-143 0 -258 -74l-41 119q135 88 326 88q109 0 185.5 -35t116.5 -95.5t57.5 -127t17.5 -148.5zM672 334v172 q-420 8 -420 -223q0 -84 48 -128t122 -44q90 0 152.5 48t87.5 117q10 31 10 58zM240 1397h106q10 -63 48 -102.5t100 -39.5q68 0 104.5 42t42.5 100h107q0 -115 -70 -184.5t-184 -69.5q-127 0 -190.5 74t-63.5 180zM494 -164q41 0 70.5 -30.5t29.5 -73.5t-29.5 -75 t-75.5 -32q-43 0 -72.5 32t-29.5 75t31 73.5t76 30.5z" />
<glyph unicode="&#x1eb8;" horiz-adv-x="1007" d="M870 795v-148h-536v-497h598v-150h-776v1380h745v-149h-567v-436h536zM504 -371h-2q-41 0 -71 32t-30 73t31 71.5t74 30.5q41 0 69.5 -30.5t28.5 -71.5t-29.5 -73t-70.5 -32z" />
<glyph unicode="&#x1eb9;" horiz-adv-x="1026" d="M946 463h-696q2 -172 98 -258t242 -86q154 0 274 51l31 -129q-141 -63 -330 -64q-225 0 -356 137.5t-131 364.5q0 229 127 382t338 153q115 0 199.5 -46t127.5 -121t62.5 -149.5t19.5 -150.5q0 -29 -6 -84zM252 592h526q2 111 -56 202t-194 91q-125 0 -194.5 -90 t-81.5 -203zM514 -164q41 0 70.5 -30.5t29.5 -73.5t-29.5 -75t-74.5 -32q-43 0 -72.5 32t-29.5 75t30.5 73.5t75.5 30.5z" />
<glyph unicode="&#x1eba;" horiz-adv-x="1007" d="M870 795v-148h-536v-497h598v-150h-776v1380h745v-149h-567v-436h536zM596 1452l-96 27q14 41 60 89t46 83q0 29 -18.5 46t-48.5 17q-53 0 -101 -72l-69 41q70 137 202 138q72 0 121 -42t49 -106q0 -45 -23.5 -78.5t-62.5 -70.5t-59 -72z" />
<glyph unicode="&#x1ebb;" horiz-adv-x="1026" d="M946 463h-696q2 -172 98 -258t242 -86q154 0 274 51l31 -129q-141 -63 -330 -64q-225 0 -356 137.5t-131 364.5q0 229 127 382t338 153q115 0 199.5 -46t127.5 -121t62.5 -149.5t19.5 -150.5q0 -29 -6 -84zM252 592h526q2 111 -56 202t-194 91q-125 0 -194.5 -90 t-81.5 -203zM541 1085l-97 25q12 43 63.5 98.5t51.5 94.5q0 31 -19.5 50t-47.5 19q-53 0 -101 -72l-69 41q68 137 200 138q74 0 123 -43t49 -111q0 -66 -69.5 -138.5t-83.5 -101.5z" />
<glyph unicode="&#x1ebc;" horiz-adv-x="1007" d="M870 795v-148h-536v-497h598v-150h-776v1380h745v-149h-567v-436h536zM387 1464h-96q-4 94 33.5 151.5t105.5 57.5q43 0 121 -41q66 -37 98 -37q25 0 38 16.5t18 63.5h94q4 -199 -137 -198q-47 0 -125 39q-74 39 -97 38q-47 0 -53 -90z" />
<glyph unicode="&#x1ebd;" horiz-adv-x="1026" d="M358 1161h-98q-2 98 35 155.5t104 57.5q47 0 127 -45q61 -35 86 -35q51 0 58 88h96q4 -207 -141 -206q-47 0 -125 41q-61 37 -88 36q-48 0 -54 -92zM946 463h-696q2 -172 98 -258t242 -86q154 0 274 51l31 -129q-141 -63 -330 -64q-225 0 -356 137.5t-131 364.5 q0 229 127 382t338 153q115 0 199.5 -46t127.5 -121t62.5 -149.5t19.5 -150.5q0 -29 -6 -84zM252 592h526q2 111 -56 202t-194 91q-125 0 -194.5 -90t-81.5 -203z" />
<glyph unicode="&#x1ebe;" horiz-adv-x="1007" d="M870 795v-148h-536v-497h598v-150h-776v1380h745v-149h-567v-436h536zM471 1688h129l195 -234h-144l-112 143h-4l-115 -143h-137zM868 1843h183l-248 -215h-107z" />
<glyph unicode="&#x1ebf;" horiz-adv-x="1026" d="M946 463h-696q2 -172 98 -258t242 -86q154 0 274 51l31 -129q-141 -63 -330 -64q-225 0 -356 137.5t-131 364.5q0 229 127 382t338 153q115 0 199.5 -46t127.5 -121t62.5 -149.5t19.5 -150.5q0 -29 -6 -84zM252 592h526q2 111 -56 202t-194 91q-125 0 -194.5 -90 t-81.5 -203zM479 1419h133l176 -293h-137l-104 193h-4l-105 -193h-131zM872 1587h166l-202 -270h-105z" />
<glyph unicode="&#x1ec0;" horiz-adv-x="1007" d="M870 795v-148h-536v-497h598v-150h-776v1380h745v-149h-567v-436h536zM592 1804h186l148 -215h-111zM463 1688h131l192 -234h-143l-113 143h-4l-112 -143h-140z" />
<glyph unicode="&#x1ec1;" horiz-adv-x="1026" d="M946 463h-696q2 -172 98 -258t242 -86q154 0 274 51l31 -129q-141 -63 -330 -64q-225 0 -356 137.5t-131 364.5q0 229 127 382t338 153q115 0 199.5 -46t127.5 -121t62.5 -149.5t19.5 -150.5q0 -29 -6 -84zM252 592h526q2 111 -56 202t-194 91q-125 0 -194.5 -90 t-81.5 -203zM621 1587h163l131 -270h-104zM473 1419h133l176 -293h-137l-104 193h-4l-105 -193h-131z" />
<glyph unicode="&#x1ec2;" horiz-adv-x="1007" d="M870 795v-148h-536v-497h598v-150h-776v1380h745v-149h-567v-436h536zM463 1688h129l194 -234h-143l-115 143h-4l-112 -143h-140zM836 1544l-86 25q14 39 60 87t46 83q0 29 -20.5 48t-49.5 19q-51 0 -100 -75l-65 38q63 131 194 132q70 0 116 -41t46 -103 q0 -57 -62.5 -119.5t-78.5 -93.5z" />
<glyph unicode="&#x1ec3;" horiz-adv-x="1026" d="M946 463h-696q2 -172 98 -258t242 -86q154 0 274 51l31 -129q-141 -63 -330 -64q-225 0 -356 137.5t-131 364.5q0 229 127 382t338 153q115 0 199.5 -46t127.5 -121t62.5 -149.5t19.5 -150.5q0 -29 -6 -84zM252 592h526q2 111 -56 202t-194 91q-125 0 -194.5 -90 t-81.5 -203zM463 1419h133l176 -293h-137l-105 193h-4l-104 -193h-131zM831 1300l-90 23q16 41 60.5 88t44.5 80q0 29 -19.5 48.5t-48.5 19.5q-51 0 -98 -74l-66 41q66 131 195 131q70 0 117 -43t47 -103q0 -45 -22.5 -75.5t-61 -65.5t-58.5 -70z" />
<glyph unicode="&#x1ec4;" horiz-adv-x="1007" d="M870 795v-148h-536v-497h598v-150h-776v1380h745v-149h-567v-436h536zM481 1688h137l213 -234h-149l-131 141h-4l-129 -141h-148zM403 1714h-100q-2 88 37 141.5t102 53.5q47 0 127 -45q66 -33 88 -33q49 0 56 84h96q4 -197 -139 -197q-43 0 -125 43q-63 35 -90 35 q-48 0 -52 -82z" />
<glyph unicode="&#x1ec5;" horiz-adv-x="1026" d="M946 463h-696q2 -172 98 -258t242 -86q154 0 274 51l31 -129q-141 -63 -330 -64q-225 0 -356 137.5t-131 364.5q0 229 127 382t338 153q115 0 199.5 -46t127.5 -121t62.5 -149.5t19.5 -150.5q0 -29 -6 -84zM252 592h526q2 111 -56 202t-194 91q-125 0 -194.5 -90 t-81.5 -203zM467 1368h131l188 -242h-141l-110 150h-5l-108 -150h-137zM387 1393h-100q-2 88 36.5 141t102.5 53q41 0 127 -45q57 -33 88 -33q51 0 55 82h97q4 -197 -140 -196q-43 0 -125 43q-63 35 -90 35q-47 0 -51 -80z" />
<glyph unicode="&#x1ec6;" horiz-adv-x="1007" d="M870 795v-148h-536v-497h598v-150h-776v1380h745v-149h-567v-436h536zM467 1688h137l213 -234h-149l-131 141h-5l-131 -141h-145zM535 -371h-3q-41 0 -70.5 32t-29.5 73t31 71.5t74 30.5q41 0 69.5 -30.5t28.5 -71.5t-29.5 -73t-70.5 -32z" />
<glyph unicode="&#x1ec7;" horiz-adv-x="1026" d="M946 463h-696q2 -172 98 -258t242 -86q154 0 274 51l31 -129q-141 -63 -330 -64q-225 0 -356 137.5t-131 364.5q0 229 127 382t338 153q115 0 199.5 -46t127.5 -121t62.5 -149.5t19.5 -150.5q0 -29 -6 -84zM252 592h526q2 111 -56 202t-194 91q-125 0 -194.5 -90 t-81.5 -203zM449 1419h124l197 -293h-139l-119 195h-4l-119 -195h-133zM514 -164q41 0 70.5 -30.5t29.5 -73.5t-29.5 -75t-74.5 -32q-43 0 -72.5 32t-29.5 75t30.5 73.5t75.5 30.5z" />
<glyph unicode="&#x1ec8;" horiz-adv-x="489" d="M156 1380h178v-1380h-178v1380zM295 1452l-96 27q14 41 60 89t46 83q0 29 -18.5 46t-48.5 17q-53 0 -101 -72l-69 41q68 137 202 138q72 0 121 -42t49 -106q0 -45 -23.5 -78.5t-62.5 -70.5t-59 -72z" />
<glyph unicode="&#x1ec9;" horiz-adv-x="479" d="M330 0h-180v991h180v-991zM268 1085l-96 25q12 43 63.5 98.5t51.5 94.5q0 31 -19.5 50t-48.5 19q-53 0 -100 -72l-70 41q70 137 201 138q74 0 123 -43t49 -111q0 -66 -70 -138.5t-84 -101.5z" />
<glyph unicode="&#x1eca;" horiz-adv-x="489" d="M156 1380h178v-1380h-178v1380zM246 -371h-2q-41 0 -71 32t-30 73t31 71.5t74 30.5q41 0 69.5 -30.5t28.5 -71.5t-29.5 -73t-70.5 -32z" />
<glyph unicode="&#x1ecb;" horiz-adv-x="479" d="M330 0h-180v991h180v-991zM239.5 1382q49.5 0 80 -31.5t30.5 -80.5q2 -47 -29.5 -79t-84.5 -32q-47 0 -78 32t-31 79t31.5 79.5t81 32.5zM240 -164q41 0 70.5 -30.5t29.5 -73.5t-29.5 -75t-74.5 -32q-43 0 -73 32t-30 75t31 73.5t76 30.5z" />
<glyph unicode="&#x1ecc;" horiz-adv-x="1411" d="M714.5 1403q280.5 0 450.5 -194.5t170 -503.5q0 -344 -182 -536t-459 -192q-274 0 -447 195t-173 506q0 326 180 525.5t460.5 199.5zM707 1257q-211 0 -327 -166.5t-116 -408.5q0 -231 119 -395t322 -164q205 0 323.5 164t118.5 409q0 225 -115.5 393t-324.5 168z M707 -371h-2q-41 0 -71 32t-30 73t31 71.5t74 30.5q41 0 69.5 -30.5t28.5 -71.5t-29.5 -73t-70.5 -32z" />
<glyph unicode="&#x1ecd;" horiz-adv-x="1124" d="M569 1014q213 0 345.5 -141.5t132.5 -368.5q0 -256 -146.5 -391.5t-347.5 -135.5q-205 0 -340 139.5t-135 370.5q0 242 139 384.5t352 142.5zM565 879q-150 0 -227.5 -114t-77.5 -271q0 -164 85 -272.5t216 -108.5q129 0 215 109.5t86 275.5q0 90 -28.5 173t-98.5 145.5 t-170 62.5zM563 -164q41 0 71 -30.5t30 -73.5t-30 -75t-75 -32q-43 0 -72.5 32t-29.5 75t30.5 73.5t75.5 30.5z" />
<glyph unicode="&#x1ece;" horiz-adv-x="1411" d="M714.5 1403q280.5 0 450.5 -194.5t170 -503.5q0 -344 -182 -536t-459 -192q-274 0 -447 195t-173 506q0 326 180 525.5t460.5 199.5zM707 1257q-211 0 -327 -166.5t-116 -408.5q0 -231 119 -395t322 -164q205 0 323.5 164t118.5 409q0 225 -115.5 393t-324.5 168z M754 1452l-97 27q14 41 60.5 89t46.5 83q0 29 -18.5 46t-49.5 17q-53 0 -100 -72l-70 41q68 137 203 138q72 0 121 -42t49 -106q0 -45 -23.5 -78.5t-62.5 -70.5t-59 -72z" />
<glyph unicode="&#x1ecf;" horiz-adv-x="1124" d="M569 1014q213 0 345.5 -141.5t132.5 -368.5q0 -256 -146.5 -391.5t-347.5 -135.5q-205 0 -340 139.5t-135 370.5q0 242 139 384.5t352 142.5zM565 879q-150 0 -227.5 -114t-77.5 -271q0 -164 85 -272.5t216 -108.5q129 0 215 109.5t86 275.5q0 90 -28.5 173t-98.5 145.5 t-170 62.5zM590 1085l-96 25q12 43 63 98.5t51 94.5q0 31 -19.5 50t-47.5 19q-53 0 -101 -72l-69 41q68 137 200 138q74 0 123 -43t49 -111q0 -66 -69.5 -138.5t-83.5 -101.5z" />
<glyph unicode="&#x1ed0;" horiz-adv-x="1411" d="M714.5 1403q280.5 0 450.5 -194.5t170 -503.5q0 -344 -182 -536t-459 -192q-274 0 -447 195t-173 506q0 326 180 525.5t460.5 199.5zM707 1257q-211 0 -327 -166.5t-116 -408.5q0 -231 119 -395t322 -164q205 0 323.5 164t118.5 409q0 225 -115.5 393t-324.5 168z M657 1688h129l195 -234h-143l-113 143h-4l-115 -143h-137zM1055 1843h182l-248 -215h-106z" />
<glyph unicode="&#x1ed1;" horiz-adv-x="1124" d="M569 1014q213 0 345.5 -141.5t132.5 -368.5q0 -256 -146.5 -391.5t-347.5 -135.5q-205 0 -340 139.5t-135 370.5q0 242 139 384.5t352 142.5zM565 879q-150 0 -227.5 -114t-77.5 -271q0 -164 85 -272.5t216 -108.5q129 0 215 109.5t86 275.5q0 90 -28.5 173t-98.5 145.5 t-170 62.5zM504 1419h133l176 -293h-137l-105 193h-4l-104 -193h-131zM897 1587h166l-203 -270h-104z" />
<glyph unicode="&#x1ed2;" horiz-adv-x="1411" d="M714.5 1403q280.5 0 450.5 -194.5t170 -503.5q0 -344 -182 -536t-459 -192q-274 0 -447 195t-173 506q0 326 180 525.5t460.5 199.5zM707 1257q-211 0 -327 -166.5t-116 -408.5q0 -231 119 -395t322 -164q205 0 323.5 164t118.5 409q0 225 -115.5 393t-324.5 168z M776 1804h187l147 -215h-111zM647 1688h131l193 -234h-144l-112 143h-4l-113 -143h-139z" />
<glyph unicode="&#x1ed3;" horiz-adv-x="1124" d="M569 1014q213 0 345.5 -141.5t132.5 -368.5q0 -256 -146.5 -391.5t-347.5 -135.5q-205 0 -340 139.5t-135 370.5q0 242 139 384.5t352 142.5zM565 879q-150 0 -227.5 -114t-77.5 -271q0 -164 85 -272.5t216 -108.5q129 0 215 109.5t86 275.5q0 90 -28.5 173t-98.5 145.5 t-170 62.5zM651 1587h164l131 -270h-104zM504 1419h133l176 -293h-137l-105 193h-4l-104 -193h-131z" />
<glyph unicode="&#x1ed4;" horiz-adv-x="1411" d="M714.5 1403q280.5 0 450.5 -194.5t170 -503.5q0 -344 -182 -536t-459 -192q-274 0 -447 195t-173 506q0 326 180 525.5t460.5 199.5zM707 1257q-211 0 -327 -166.5t-116 -408.5q0 -231 119 -395t322 -164q205 0 323.5 164t118.5 409q0 225 -115.5 393t-324.5 168z M651 1688h129l195 -234h-144l-114 143h-4l-113 -143h-139zM1024 1544l-86 25q14 39 60 87t46 83q0 29 -20 48t-49 19q-51 0 -101 -75l-65 38q63 131 195 132q70 0 115.5 -41t45.5 -103q0 -57 -62.5 -119.5t-78.5 -93.5z" />
<glyph unicode="&#x1ed5;" horiz-adv-x="1124" d="M569 1014q213 0 345.5 -141.5t132.5 -368.5q0 -256 -146.5 -391.5t-347.5 -135.5q-205 0 -340 139.5t-135 370.5q0 242 139 384.5t352 142.5zM565 879q-150 0 -227.5 -114t-77.5 -271q0 -164 85 -272.5t216 -108.5q129 0 215 109.5t86 275.5q0 90 -28.5 173t-98.5 145.5 t-170 62.5zM494 1419h133l176 -293h-137l-105 193h-4l-104 -193h-131zM862 1300l-90 23q16 41 60.5 88t44.5 80q0 29 -19.5 48.5t-48.5 19.5q-51 0 -98 -74l-66 41q66 131 195 131q70 0 117 -43t47 -103q0 -45 -23 -75.5t-61 -65.5t-58 -70z" />
<glyph unicode="&#x1ed6;" horiz-adv-x="1411" d="M714.5 1403q280.5 0 450.5 -194.5t170 -503.5q0 -344 -182 -536t-459 -192q-274 0 -447 195t-173 506q0 326 180 525.5t460.5 199.5zM707 1257q-211 0 -327 -166.5t-116 -408.5q0 -231 119 -395t322 -164q205 0 323.5 164t118.5 409q0 225 -115.5 393t-324.5 168z M637 1688h137l213 -234h-149l-131 141h-5l-129 -141h-147zM559 1714h-100q-2 88 37 141.5t102 53.5q47 0 127 -45q66 -33 88 -33q49 0 55 84h97q4 -197 -140 -197q-43 0 -125 43q-63 35 -90 35q-47 0 -51 -82z" />
<glyph unicode="&#x1ed7;" horiz-adv-x="1124" d="M569 1014q213 0 345.5 -141.5t132.5 -368.5q0 -256 -146.5 -391.5t-347.5 -135.5q-205 0 -340 139.5t-135 370.5q0 242 139 384.5t352 142.5zM565 879q-150 0 -227.5 -114t-77.5 -271q0 -164 85 -272.5t216 -108.5q129 0 215 109.5t86 275.5q0 90 -28.5 173t-98.5 145.5 t-170 62.5zM494 1368h131l188 -242h-141l-111 150h-4l-108 -150h-138zM414 1393h-101q-2 88 37 141t103 53q41 0 127 -45q57 -33 88 -33q49 0 55 82h96q4 -197 -139 -196q-43 0 -125 43q-63 35 -90 35q-47 0 -51 -80z" />
<glyph unicode="&#x1ed8;" horiz-adv-x="1411" d="M714.5 1403q280.5 0 450.5 -194.5t170 -503.5q0 -344 -182 -536t-459 -192q-274 0 -447 195t-173 506q0 326 180 525.5t460.5 199.5zM707 1257q-211 0 -327 -166.5t-116 -408.5q0 -231 119 -395t322 -164q205 0 323.5 164t118.5 409q0 225 -115.5 393t-324.5 168z M635 1688h137l213 -234h-149l-131 141h-5l-131 -141h-145zM707 -371h-2q-41 0 -71 32t-30 73t31 71.5t74 30.5q41 0 69.5 -30.5t28.5 -71.5t-29.5 -73t-70.5 -32z" />
<glyph unicode="&#x1ed9;" horiz-adv-x="1124" d="M569 1014q213 0 345.5 -141.5t132.5 -368.5q0 -256 -146.5 -391.5t-347.5 -135.5q-205 0 -340 139.5t-135 370.5q0 242 139 384.5t352 142.5zM565 879q-150 0 -227.5 -114t-77.5 -271q0 -164 85 -272.5t216 -108.5q129 0 215 109.5t86 275.5q0 90 -28.5 173t-98.5 145.5 t-170 62.5zM498 1419h125l196 -293h-139l-119 195h-4l-119 -195h-133zM563 -164q41 0 71 -30.5t30 -73.5t-30 -75t-75 -32q-43 0 -72.5 32t-29.5 75t30.5 73.5t75.5 30.5z" />
<glyph unicode="&#x1eda;" horiz-adv-x="1411" d="M705 123q205 0 323.5 164t118.5 409q0 225 -116 393t-324 168q-211 0 -328 -167.5t-115 -407.5q-2 -229 118 -394t323 -165zM1214 1516l140 26q37 -82 37 -168q0 -90 -54.5 -141t-160.5 -41q160 -184 159 -487q0 -344 -182 -536t-459 -192q-274 0 -447 195t-173 506 q0 326 180 525.5t461 199.5q113 0 213 -35q20 -6 68 -26.5t89 -34t70 -13.5q92 0 92 90q0 66 -33 132zM805 1694h217l-260 -240h-148z" />
<glyph unicode="&#x1edb;" horiz-adv-x="1132" d="M565 879q-150 0 -227.5 -114t-77.5 -271q0 -164 85 -272.5t216 -108.5q129 0 215 109.5t86 275.5q0 90 -28.5 173t-98.5 145.5t-170 62.5zM963 1135l137 24q35 -74 35 -149q0 -86 -49.5 -134.5t-141.5 -44.5q102 -127 103 -327q0 -256 -146.5 -391.5t-347.5 -135.5 q-205 0 -340 139.5t-135 370.5q0 242 139 384.5t352 142.5q84 0 170 -29q16 -4 50 -19.5t65 -24.5t59 -9q82 0 82 82q1 60 -32 121zM653 1419h199l-250 -293h-129z" />
<glyph unicode="&#x1edc;" horiz-adv-x="1411" d="M705 123q205 0 323.5 164t118.5 409q0 225 -116 393t-324 168q-211 0 -328 -167.5t-115 -407.5q-2 -229 118 -394t323 -165zM1214 1516l140 26q37 -82 37 -168q0 -90 -54.5 -141t-160.5 -41q160 -184 159 -487q0 -344 -182 -536t-459 -192q-274 0 -447 195t-173 506 q0 326 180 525.5t461 199.5q113 0 213 -35q20 -6 68 -26.5t89 -34t70 -13.5q92 0 92 90q0 66 -33 132zM422 1694h217l190 -238h-147z" />
<glyph unicode="&#x1edd;" horiz-adv-x="1132" d="M565 879q-150 0 -227.5 -114t-77.5 -271q0 -164 85 -272.5t216 -108.5q129 0 215 109.5t86 275.5q0 90 -28.5 173t-98.5 145.5t-170 62.5zM963 1135l137 24q35 -74 35 -149q0 -86 -49.5 -134.5t-141.5 -44.5q102 -127 103 -327q0 -256 -146.5 -391.5t-347.5 -135.5 q-205 0 -340 139.5t-135 370.5q0 242 139 384.5t352 142.5q84 0 170 -29q16 -4 50 -19.5t65 -24.5t59 -9q82 0 82 82q1 60 -32 121zM299 1419h199l178 -293h-127z" />
<glyph unicode="&#x1ede;" horiz-adv-x="1411" d="M705 123q205 0 323.5 164t118.5 409q0 225 -116 393t-324 168q-211 0 -328 -167.5t-115 -407.5q-2 -229 118 -394t323 -165zM1214 1516l140 26q37 -82 37 -168q0 -90 -54.5 -141t-160.5 -41q160 -184 159 -487q0 -344 -182 -536t-459 -192q-274 0 -447 195t-173 506 q0 326 180 525.5t461 199.5q113 0 213 -35q20 -6 68 -26.5t89 -34t70 -13.5q92 0 92 90q0 66 -33 132zM754 1452l-97 27q14 41 60.5 89t46.5 83q0 29 -18.5 46t-49.5 17q-53 0 -100 -72l-70 41q68 137 203 138q72 0 121 -42t49 -106q0 -45 -23.5 -78.5t-62.5 -70.5t-59 -72z " />
<glyph unicode="&#x1edf;" horiz-adv-x="1132" d="M565 879q-150 0 -227.5 -114t-77.5 -271q0 -164 85 -272.5t216 -108.5q129 0 215 109.5t86 275.5q0 90 -28.5 173t-98.5 145.5t-170 62.5zM963 1135l137 24q35 -74 35 -149q0 -86 -49.5 -134.5t-141.5 -44.5q102 -127 103 -327q0 -256 -146.5 -391.5t-347.5 -135.5 q-205 0 -340 139.5t-135 370.5q0 242 139 384.5t352 142.5q84 0 170 -29q16 -4 50 -19.5t65 -24.5t59 -9q82 0 82 82q1 60 -32 121zM590 1085l-96 25q12 43 63 98.5t51 94.5q0 31 -19.5 50t-47.5 19q-53 0 -101 -72l-69 41q68 137 200 138q74 0 123 -43t49 -111 q0 -66 -69.5 -138.5t-83.5 -101.5z" />
<glyph unicode="&#x1ee0;" horiz-adv-x="1411" d="M705 123q205 0 323.5 164t118.5 409q0 225 -116 393t-324 168q-211 0 -328 -167.5t-115 -407.5q-2 -229 118 -394t323 -165zM1214 1516l140 26q37 -82 37 -168q0 -90 -54.5 -141t-160.5 -41q160 -184 159 -487q0 -344 -182 -536t-459 -192q-274 0 -447 195t-173 506 q0 326 180 525.5t461 199.5q113 0 213 -35q20 -6 68 -26.5t89 -34t70 -13.5q92 0 92 90q0 66 -33 132zM561 1464h-96q-4 94 34 151.5t105 57.5q43 0 121 -41q66 -37 98 -37q25 0 38 16.5t18 63.5h94q4 -199 -137 -198q-47 0 -125 39q-74 39 -97 38q-47 0 -53 -90z" />
<glyph unicode="&#x1ee1;" horiz-adv-x="1132" d="M565 879q-150 0 -227.5 -114t-77.5 -271q0 -164 85 -272.5t216 -108.5q129 0 215 109.5t86 275.5q0 90 -28.5 173t-98.5 145.5t-170 62.5zM963 1135l137 24q35 -74 35 -149q0 -86 -49.5 -134.5t-141.5 -44.5q102 -127 103 -327q0 -256 -146.5 -391.5t-347.5 -135.5 q-205 0 -340 139.5t-135 370.5q0 242 139 384.5t352 142.5q84 0 170 -29q16 -4 50 -19.5t65 -24.5t59 -9q82 0 82 82q1 60 -32 121zM408 1161h-99q-2 98 35 155.5t105 57.5q47 0 126 -45q61 -35 87 -35q51 0 57 88h96q4 -207 -141 -206q-47 0 -125 41q-61 37 -88 36 q-47 0 -53 -92z" />
<glyph unicode="&#x1ee2;" horiz-adv-x="1411" d="M705 123q205 0 323.5 164t118.5 409q0 225 -116 393t-324 168q-211 0 -328 -167.5t-115 -407.5q-2 -229 118 -394t323 -165zM1214 1516l140 26q37 -82 37 -168q0 -90 -54.5 -141t-160.5 -41q160 -184 159 -487q0 -344 -182 -536t-459 -192q-274 0 -447 195t-173 506 q0 326 180 525.5t461 199.5q113 0 213 -35q20 -6 68 -26.5t89 -34t70 -13.5q92 0 92 90q0 66 -33 132zM707 -371h-2q-41 0 -71 32t-30 73t31 71.5t74 30.5q41 0 69.5 -30.5t28.5 -71.5t-29.5 -73t-70.5 -32z" />
<glyph unicode="&#x1ee3;" horiz-adv-x="1132" d="M565 879q-150 0 -227.5 -114t-77.5 -271q0 -164 85 -272.5t216 -108.5q129 0 215 109.5t86 275.5q0 90 -28.5 173t-98.5 145.5t-170 62.5zM963 1135l137 24q35 -74 35 -149q0 -86 -49.5 -134.5t-141.5 -44.5q102 -127 103 -327q0 -256 -146.5 -391.5t-347.5 -135.5 q-205 0 -340 139.5t-135 370.5q0 242 139 384.5t352 142.5q84 0 170 -29q16 -4 50 -19.5t65 -24.5t59 -9q82 0 82 82q1 60 -32 121zM565 -164q41 0 71 -30.5t30 -73.5t-30 -75t-75 -32q-43 0 -72.5 32t-29.5 75t30.5 73.5t75.5 30.5z" />
<glyph unicode="&#x1ee4;" horiz-adv-x="1325" d="M154 1380h180v-817q0 -221 88 -330.5t233 -109.5q160 0 248 108.5t88 331.5v817h180v-805q0 -303 -142 -450.5t-380 -147.5q-227 0 -361 142.5t-134 447.5v813zM664 -371h-2q-41 0 -71 32t-30 73t31 71.5t74 30.5q41 0 69.5 -30.5t28.5 -71.5t-29.5 -73t-70.5 -32z" />
<glyph unicode="&#x1ee5;" horiz-adv-x="1128" d="M979 991v-721q0 -166 8 -270h-160l-10 162h-4q-43 -74 -126 -129.5t-202 -55.5q-63 0 -119.5 19.5t-108.5 66t-83 135.5t-31 214v579h181v-549q0 -315 221 -315q84 0 147.5 48t89.5 116q16 43 17 92v608h180zM565 -164q41 0 71 -30.5t30 -73.5t-30 -75t-75 -32 q-43 0 -72.5 32t-29.5 75t30.5 73.5t75.5 30.5z" />
<glyph unicode="&#x1ee6;" horiz-adv-x="1325" d="M154 1380h180v-817q0 -221 88 -330.5t233 -109.5q160 0 248 108.5t88 331.5v817h180v-805q0 -303 -142 -450.5t-380 -147.5q-227 0 -361 142.5t-134 447.5v813zM713 1452l-97 27q14 41 60.5 89t46.5 83q0 29 -18.5 46t-49.5 17q-53 0 -100 -72l-70 41q68 137 203 138 q72 0 121 -42t49 -106q0 -45 -23.5 -78.5t-62.5 -70.5t-59 -72z" />
<glyph unicode="&#x1ee7;" horiz-adv-x="1128" d="M979 991v-721q0 -166 8 -270h-160l-10 162h-4q-43 -74 -126 -129.5t-202 -55.5q-63 0 -119.5 19.5t-108.5 66t-83 135.5t-31 214v579h181v-549q0 -315 221 -315q84 0 147.5 48t89.5 116q16 43 17 92v608h180zM594 1085l-96 25q12 43 63 98.5t51 94.5q0 31 -19.5 50 t-47.5 19q-53 0 -101 -72l-69 41q68 137 200 138q74 0 123.5 -43t49.5 -111q0 -66 -70 -138.5t-84 -101.5z" />
<glyph unicode="&#x1ee8;" horiz-adv-x="1386" d="M1214 1577l138 25q35 -76 34.5 -154t-47.5 -125t-137 -49l-31 -2v-697q0 -303 -142 -450.5t-380 -147.5q-227 0 -361 142.5t-134 447.5v813h180v-817q0 -221 88 -330.5t233 -109.5q160 0 248 108.5t88 331.5v817h162q51 0 72.5 18.5t21.5 59.5q0 60 -33 119zM752 1694 h217l-260 -240h-148z" />
<glyph unicode="&#x1ee9;" horiz-adv-x="1128" d="M1001 1190l138 22q37 -68 37 -147q0 -76 -49.5 -122t-125.5 -50l-22 -2v-621q0 -166 8 -270h-160l-10 162h-4q-43 -74 -126 -129.5t-202 -55.5q-63 0 -119.5 19.5t-108.5 66t-83 135.5t-31 214v579h181v-549q0 -315 221 -315q84 0 147.5 48t89.5 116q16 43 17 92v608h141 q96 0 96 80q0 56 -35 119zM678 1419h199l-250 -293h-129z" />
<glyph unicode="&#x1eea;" horiz-adv-x="1386" d="M1214 1577l138 25q35 -76 34.5 -154t-47.5 -125t-137 -49l-31 -2v-697q0 -303 -142 -450.5t-380 -147.5q-227 0 -361 142.5t-134 447.5v813h180v-817q0 -221 88 -330.5t233 -109.5q160 0 248 108.5t88 331.5v817h162q51 0 72.5 18.5t21.5 59.5q0 60 -33 119zM375 1694 h217l190 -238h-147z" />
<glyph unicode="&#x1eeb;" horiz-adv-x="1128" d="M1001 1190l138 22q37 -68 37 -147q0 -76 -49.5 -122t-125.5 -50l-22 -2v-621q0 -166 8 -270h-160l-10 162h-4q-43 -74 -126 -129.5t-202 -55.5q-63 0 -119.5 19.5t-108.5 66t-83 135.5t-31 214v579h181v-549q0 -315 221 -315q84 0 147.5 48t89.5 116q16 43 17 92v608h141 q96 0 96 80q0 56 -35 119zM297 1419h199l178 -293h-127z" />
<glyph unicode="&#x1eec;" horiz-adv-x="1386" d="M1214 1577l138 25q35 -76 34.5 -154t-47.5 -125t-137 -49l-31 -2v-697q0 -303 -142 -450.5t-380 -147.5q-227 0 -361 142.5t-134 447.5v813h180v-817q0 -221 88 -330.5t233 -109.5q160 0 248 108.5t88 331.5v817h162q51 0 72.5 18.5t21.5 59.5q0 60 -33 119zM743 1452 l-96 27q14 41 60.5 89t46.5 83q0 29 -18.5 46t-49.5 17q-53 0 -100 -72l-70 41q70 137 203 138q72 0 121 -42t49 -106q0 -45 -23.5 -78.5t-63 -70.5t-59.5 -72z" />
<glyph unicode="&#x1eed;" horiz-adv-x="1128" d="M1001 1190l138 22q37 -68 37 -147q0 -76 -49.5 -122t-125.5 -50l-22 -2v-621q0 -166 8 -270h-160l-10 162h-4q-43 -74 -126 -129.5t-202 -55.5q-63 0 -119.5 19.5t-108.5 66t-83 135.5t-31 214v579h181v-549q0 -315 221 -315q84 0 147.5 48t89.5 116q16 43 17 92v608h141 q96 0 96 80q0 56 -35 119zM610 1085l-96 25q12 43 63.5 98.5t51.5 94.5q0 31 -19.5 50t-48.5 19q-53 0 -100 -72l-70 41q68 137 201 138q74 0 123 -43t49 -111q0 -66 -70 -138.5t-84 -101.5z" />
<glyph unicode="&#x1eee;" horiz-adv-x="1386" d="M1214 1577l138 25q35 -76 34.5 -154t-47.5 -125t-137 -49l-31 -2v-697q0 -303 -142 -450.5t-380 -147.5q-227 0 -361 142.5t-134 447.5v813h180v-817q0 -221 88 -330.5t233 -109.5q160 0 248 108.5t88 331.5v817h162q51 0 72.5 18.5t21.5 59.5q0 60 -33 119zM535 1464 h-97q-4 94 34 151.5t106 57.5q43 0 120 -41q66 -37 99 -37q25 0 38 16.5t17 63.5h94q4 -199 -137 -198q-47 0 -125 39q-74 39 -96 38q-47 0 -53 -90z" />
<glyph unicode="&#x1eef;" horiz-adv-x="1128" d="M1001 1190l138 22q37 -68 37 -147q0 -76 -49.5 -122t-125.5 -50l-22 -2v-621q0 -166 8 -270h-160l-10 162h-4q-43 -74 -126 -129.5t-202 -55.5q-63 0 -119.5 19.5t-108.5 66t-83 135.5t-31 214v579h181v-549q0 -315 221 -315q84 0 147.5 48t89.5 116q16 43 17 92v608h141 q96 0 96 80q0 56 -35 119zM412 1161h-99q-2 98 35 155.5t105 57.5q47 0 127 -45q61 -35 86 -35q51 0 57 88h96q4 -207 -141 -206q-47 0 -125 41q-61 37 -88 36q-47 0 -53 -92z" />
<glyph unicode="&#x1ef0;" horiz-adv-x="1386" d="M1214 1577l138 25q35 -76 34.5 -154t-47.5 -125t-137 -49l-31 -2v-697q0 -303 -142 -450.5t-380 -147.5q-227 0 -361 142.5t-134 447.5v813h180v-817q0 -221 88 -330.5t233 -109.5q160 0 248 108.5t88 331.5v817h162q51 0 72.5 18.5t21.5 59.5q0 60 -33 119zM694 -164 q41 0 71 -30.5t30 -73.5t-30 -75t-75 -32q-43 0 -72.5 32t-29.5 75t30.5 73.5t75.5 30.5z" />
<glyph unicode="&#x1ef1;" horiz-adv-x="1128" d="M1001 1190l138 22q37 -68 37 -147q0 -76 -49.5 -122t-125.5 -50l-22 -2v-621q0 -166 8 -270h-160l-10 162h-4q-43 -74 -126 -129.5t-202 -55.5q-63 0 -119.5 19.5t-108.5 66t-83 135.5t-31 214v579h181v-549q0 -315 221 -315q84 0 147.5 48t89.5 116q16 43 17 92v608h141 q96 0 96 80q0 56 -35 119zM559 -164q41 0 70.5 -30.5t29.5 -73.5t-29.5 -75t-74.5 -32q-43 0 -72.5 32t-29.5 75t30.5 73.5t75.5 30.5z" />
<glyph unicode="&#x1ef2;" horiz-adv-x="1107" d="M643 0h-180v586l-436 794h202l195 -381q82 -160 137 -284h4q33 76 140 284l198 381h203l-463 -792v-588zM268 1679h217l191 -237h-148z" />
<glyph unicode="&#x1ef3;" horiz-adv-x="964" d="M221 1419h199l178 -293h-127zM18 991h197l217 -585q39 -111 64 -203h4q2 6 25.5 85t37.5 122l197 581h190l-270 -706q-100 -264 -175 -403.5t-165 -217.5q-109 -96 -221 -117l-45 152q86 27 157 88q96 76 152 201q14 33 14 43q0 14 -12 47z" />
<glyph unicode="&#x1ef4;" horiz-adv-x="1107" d="M643 0h-180v586l-436 794h202l195 -381q82 -160 137 -284h4q33 76 140 284l198 381h203l-463 -792v-588zM555 -371h-2q-41 0 -70.5 32t-29.5 73t30.5 71.5t73.5 30.5q41 0 69.5 -30.5t28.5 -71.5t-29.5 -73t-70.5 -32z" />
<glyph unicode="&#x1ef5;" horiz-adv-x="964" d="M18 991h197l217 -585q39 -111 64 -203h4q2 6 25.5 85t37.5 122l197 581h190l-270 -706q-100 -264 -175 -403.5t-165 -217.5q-109 -96 -221 -117l-45 152q86 27 157 88q96 76 152 201q14 33 14 43q0 14 -12 47zM670 -164q41 0 70.5 -30.5t29.5 -73.5t-29.5 -75t-74.5 -32 q-43 0 -73 32t-30 75t31 73.5t76 30.5z" />
<glyph unicode="&#x1ef6;" horiz-adv-x="1107" d="M643 0h-180v586l-436 794h202l195 -381q82 -160 137 -284h4q33 76 140 284l198 381h203l-463 -792v-588zM604 1452l-96 27q14 41 60 89t46 83q0 29 -18 46t-49 17q-53 0 -101 -72l-69 41q70 137 203 138q72 0 121 -42t49 -106q0 -45 -24 -78.5t-63 -70.5t-59 -72z" />
<glyph unicode="&#x1ef7;" horiz-adv-x="964" d="M18 991h197l217 -585q39 -111 64 -203h4q2 6 25.5 85t37.5 122l197 581h190l-270 -706q-100 -264 -175 -403.5t-165 -217.5q-109 -96 -221 -117l-45 152q86 27 157 88q96 76 152 201q14 33 14 43q0 14 -12 47zM530 1085l-96 25q12 43 63.5 98.5t51.5 94.5q0 31 -19.5 50 t-48.5 19q-53 0 -100 -72l-70 41q70 137 201 138q74 0 123 -43t49 -111q0 -66 -70 -138.5t-84 -101.5z" />
<glyph unicode="&#x1ef8;" horiz-adv-x="1107" d="M643 0h-180v586l-436 794h202l195 -381q82 -160 137 -284h4q33 76 140 284l198 381h203l-463 -792v-588zM397 1464h-96q-4 94 34 151.5t105 57.5q43 0 121 -41q66 -37 98 -37q25 0 38.5 16.5t17.5 63.5h94q4 -199 -137 -198q-47 0 -125 39q-74 39 -96 38q-48 0 -54 -90z " />
<glyph unicode="&#x1ef9;" horiz-adv-x="964" d="M340 1161h-98q-2 98 34.5 155.5t104.5 57.5q47 0 127 -45q61 -35 86 -35q51 0 57 88h97q4 -207 -142 -206q-47 0 -125 41q-61 37 -88 36q-47 0 -53 -92zM18 991h197l217 -585q39 -111 64 -203h4q2 6 25.5 85t37.5 122l197 581h190l-270 -706q-100 -264 -175 -403.5 t-165 -217.5q-109 -96 -221 -117l-45 152q86 27 157 88q96 76 152 201q14 33 14 43q0 14 -12 47z" />
<glyph unicode="&#x2000;" horiz-adv-x="974" />
<glyph unicode="&#x2001;" horiz-adv-x="1949" />
<glyph unicode="&#x2002;" horiz-adv-x="974" />
<glyph unicode="&#x2003;" horiz-adv-x="1949" />
<glyph unicode="&#x2004;" horiz-adv-x="649" />
<glyph unicode="&#x2005;" horiz-adv-x="487" />
<glyph unicode="&#x2006;" horiz-adv-x="323" />
<glyph unicode="&#x2007;" horiz-adv-x="323" />
<glyph unicode="&#x2008;" horiz-adv-x="243" />
<glyph unicode="&#x2009;" horiz-adv-x="389" />
<glyph unicode="&#x200a;" horiz-adv-x="106" />
<glyph unicode="&#x2010;" horiz-adv-x="628" d="M61 621h506v-134h-506v134z" />
<glyph unicode="&#x2011;" horiz-adv-x="628" d="M61 621h506v-134h-506v134z" />
<glyph unicode="&#x2012;" horiz-adv-x="628" d="M61 621h506v-134h-506v134z" />
<glyph unicode="&#x2013;" horiz-adv-x="1024" d="M61 582h902v-123h-902v123z" />
<glyph unicode="&#x2014;" horiz-adv-x="2048" d="M61 582h1926v-123h-1926v123z" />
<glyph unicode="&#x2018;" horiz-adv-x="423" d="M256 938l-184 -20q35 127 91 271t99 216l115 12q-82 -227 -121 -479z" />
<glyph unicode="&#x2019;" horiz-adv-x="423" d="M190 1397l187 20q-35 -127 -92.5 -270t-100.5 -215l-114 -12q79 209 120 477z" />
<glyph unicode="&#x201a;" horiz-adv-x="423" d="M156 -227l-113 -15q84 238 119 480l186 20q-35 -127 -92 -270t-100 -215z" />
<glyph unicode="&#x201c;" horiz-adv-x="724" d="M256 938l-186 -20q35 129 92 272t100 215l115 12q-80 -211 -121 -479zM559 938l-184 -20q33 125 90 269t100 218l115 12q-80 -211 -121 -479z" />
<glyph unicode="&#x201d;" horiz-adv-x="724" d="M190 1397l185 20q-35 -125 -91.5 -269t-99.5 -216l-114 -12q81 227 120 477zM494 1397l184 20q-35 -125 -91.5 -269t-99.5 -216l-114 -12q80 209 121 477z" />
<glyph unicode="&#x201e;" horiz-adv-x="729" d="M156 -227l-115 -15q80 213 121 480l184 20q-33 -123 -90 -267t-100 -218zM459 -227l-115 -15q80 213 121 480l186 20q-35 -127 -92 -270t-100 -215z" />
<glyph unicode="&#x2020;" horiz-adv-x="1024" d="M428 1380h168l-16 -432l356 15v-148l-356 16l16 -933h-168l16 933l-356 -16v148l356 -15z" />
<glyph unicode="&#x2021;" horiz-adv-x="1024" d="M430 1380h166l-14 -411l354 16v-147l-354 14v-418l354 17v-148l-354 14l14 -419h-166l10 419l-352 -14v148l354 -17v418l-354 -14v147l354 -16z" />
<glyph unicode="&#x2022;" horiz-adv-x="577" d="M289 322h-2q-88 0 -150.5 61t-62.5 152q-2 90 61.5 153.5t153.5 63.5q88 0 151.5 -62.5t63.5 -153t-62.5 -152.5t-152.5 -62z" />
<glyph unicode="&#x2026;" horiz-adv-x="2048" d="M342 -23h-2q-53 0 -87 37t-32 92q0 57 34 93.5t87 36.5q55 0 88 -36t33 -94q0 -55 -33 -92t-88 -37zM1024 -23h-2q-53 0 -87 37t-32 92q0 57 35 93.5t88 36.5t86 -36t35 -94q0 -55 -34 -92t-89 -37zM1706 -23h-2q-51 0 -85 37t-34 92q0 57 35 93.5t88 36.5t87 -36 t34 -93.5t-34 -93.5t-89 -36z" />
<glyph unicode="&#x202f;" horiz-adv-x="389" />
<glyph unicode="&#x2030;" horiz-adv-x="2367" d="M383 1354h2q141 0 224 -104.5t83 -293.5q0 -201 -91 -310t-228 -109q-131 0 -220.5 105.5t-91.5 295.5q0 193 92.5 304.5t229.5 111.5zM377 1245h-2q-80 0 -125 -85t-45 -216q-4 -129 43 -214t129 -85q86 0 129 82t43 221q0 131 -42 214t-130 83zM473 -25h-115l785 1381 h114zM1251 803h2q139 0 222.5 -104.5t83.5 -292.5q0 -201 -91.5 -310.5t-226.5 -109.5q-131 0 -220 104.5t-91 294.5q0 195 92 306.5t229 111.5zM1245 694h-2q-80 0 -126 -85t-46 -216q-2 -131 45 -215t129 -84q86 0 129 82t43 221q0 131 -42 214t-130 83zM1997 803h2 q141 0 224 -104.5t83 -292.5q0 -201 -91 -310.5t-228 -109.5q-131 0 -220.5 104.5t-91.5 294.5q0 195 92.5 306.5t229.5 111.5zM1993 694h-2q-80 0 -126 -85t-46 -216q-4 -131 43 -215t129 -84q86 0 129 82t43 221q0 133 -41 215t-129 82z" />
<glyph unicode="&#x2039;" horiz-adv-x="522" d="M475 893l-274 -377l274 -377h-145l-271 377l271 377h145z" />
<glyph unicode="&#x203a;" horiz-adv-x="522" d="M322 516l-275 377h143l275 -377l-272 -377h-146z" />
<glyph unicode="&#x2044;" horiz-adv-x="247" d="M-207 -23h-115l777 1377h116z" />
<glyph unicode="&#x205f;" horiz-adv-x="487" />
<glyph unicode="&#x2070;" horiz-adv-x="688" d="M340 897h-2q-135 0 -213 108.5t-78 299t81 301t220 110.5t216 -107.5t77 -295.5q0 -193 -77 -304.5t-224 -111.5zM342 1001h2q74 0 114 81t40 229q0 301 -154 301q-70 0 -112 -80t-42 -221q0 -147 41 -228.5t111 -81.5z" />
<glyph unicode="&#x2074;" horiz-adv-x="710" d="M557 907h-137v211h-387v82l362 506h162v-487h115v-101h-115v-211zM420 1219v237q0 10 6 127l-4 2q-39 -76 -70 -121l-178 -241l2 -4h244z" />
<glyph unicode="&#x2075;" horiz-adv-x="630" d="M549 1702v-113h-318l-26 -174q33 4 63 4q115 0 189 -45q115 -63 114 -205q0 -119 -89 -196.5t-230 -77.5q-131 0 -213 49l29 103q76 -45 182 -46q74 0 127 43t53 113q0 162 -231 162q-39 0 -117 -10l53 393h414z" />
<glyph unicode="&#x2076;" horiz-adv-x="679" d="M547 1714v-108q-41 4 -82 -2q-119 -16 -189.5 -85t-87.5 -165h2q72 84 193 84q111 0 180.5 -71t69.5 -185q0 -119 -81 -202t-202 -83q-141 0 -222 95t-81 247q0 225 139 354q104 100 279 117q55 6 82 4zM348 1001h2q63 0 103.5 49.5t40.5 123.5q0 76 -42 120.5t-114 44.5 q-47 0 -86 -25.5t-59 -66.5q-10 -20 -11 -43q0 -88 44 -145.5t122 -57.5z" />
<glyph unicode="&#x2077;" horiz-adv-x="602" d="M39 1702h539v-88l-351 -707h-145l350 680v2h-393v113z" />
<glyph unicode="&#x2078;" horiz-adv-x="671" d="M342 1716h2q117 0 182.5 -58.5t65.5 -139.5q0 -123 -129 -181v-4q160 -59 160 -200q0 -104 -81 -170t-210 -66q-131 0 -207 63.5t-76 153.5q0 139 156 205v4q-127 61 -127 178q0 94 75.5 154.5t188.5 60.5zM336 993h2q66 0 105.5 37t39.5 92q0 111 -161 156 q-135 -39 -136 -148q0 -57 41 -97t109 -40zM338 1622h-2q-61 0 -95 -33t-34 -82q0 -96 143 -133q113 33 113 129q0 47 -32 83t-93 36z" />
<glyph unicode="&#x2079;" horiz-adv-x="669" d="M119 899v107q23 -2 86 2q104 14 172 69q84 68 104 189h-2q-68 -78 -184 -78q-109 0 -178.5 68.5t-69.5 177.5q0 117 82 199.5t207 82.5q135 0 211 -93t76 -245q0 -238 -142 -368q-98 -94 -268 -107q-47 -8 -94 -4zM330 1614h-2q-61 0 -102.5 -50.5t-41.5 -123.5 q0 -66 40 -110t106 -44q98 0 145 74q8 14 8 41q0 94 -37.5 153.5t-115.5 59.5z" />
<glyph unicode="&#x207d;" horiz-adv-x="368" d="M240 1778h104q-147 -211 -147 -498q0 -272 147 -492h-104q-158 211 -158 492q0 287 158 498z" />
<glyph unicode="&#x207e;" horiz-adv-x="368" d="M131 788h-104q147 219 147 496q0 274 -147 494h104q158 -211 158 -494q0 -281 -158 -496z" />
<glyph unicode="&#x2080;" horiz-adv-x="688" d="M340 -311h-2q-135 0 -213 108.5t-78 299t81 301t220 110.5t216 -107.5t77 -296.5q0 -193 -77 -304t-224 -111zM342 -207h2q74 0 114 81t40 228q0 301 -154 301q-70 0 -112 -79.5t-42 -221.5q0 -147 41 -228t111 -81z" />
<glyph unicode="&#x2081;" horiz-adv-x="499" d="M362 -301h-143v674h-4l-147 -72l-23 107l193 90h124v-799z" />
<glyph unicode="&#x2082;" horiz-adv-x="636" d="M25 -301v76l129 121q139 125 198.5 202.5t59.5 151.5q0 61 -40 102t-116 41q-80 0 -172 -63l-43 92q100 86 250 86q135 0 203.5 -69.5t68.5 -162.5q0 -104 -65.5 -192t-206.5 -211l-64 -57v-4h351v-113h-553z" />
<glyph unicode="&#x2083;" horiz-adv-x="624" d="M92 348l-35 96q98 63 236 64q125 0 187.5 -55.5t62.5 -137.5q0 -61 -42 -110t-116 -74v-4q86 -12 138 -66.5t52 -132.5q0 -100 -87 -169.5t-236.5 -69.5t-233.5 57l37 102q78 -53 191 -53q88 0 134 42t44 95q0 72 -63.5 108t-153.5 36h-55v94h57q68 0 126 33t60 98 q0 41 -32.5 70.5t-96.5 29.5q-96 0 -174 -53z" />
<glyph unicode="&#x2084;" horiz-adv-x="710" d="M557 -301h-137v211h-387v82l362 506h162v-488h115v-100h-115v-211zM420 10v238q0 10 6 127l-4 2q-39 -76 -70 -121l-178 -242l2 -4h244z" />
<glyph unicode="&#x2085;" horiz-adv-x="630" d="M549 494v-113h-318l-26 -174q33 4 63 4q115 0 189 -45q115 -63 114 -205q0 -119 -89 -196.5t-230 -77.5q-131 0 -213 49l29 102q76 -45 182 -45q74 0 127 43t53 113q0 162 -231 162q-39 0 -117 -11l53 394h414z" />
<glyph unicode="&#x2086;" horiz-adv-x="679" d="M547 506v-109q-41 4 -82 -2q-119 -16 -189.5 -84.5t-87.5 -165.5h2q72 84 193 84q111 0 180.5 -70.5t69.5 -185.5q0 -119 -81 -201.5t-202 -82.5q-141 0 -222 95t-81 247q0 225 139 354q104 100 279 117q55 6 82 4zM348 -207h2q63 0 103.5 49t40.5 123q0 76 -42 121 t-114 45q-47 0 -86 -25.5t-59 -66.5q-10 -20 -11 -43q0 -88 44 -145.5t122 -57.5z" />
<glyph unicode="&#x2087;" horiz-adv-x="602" d="M39 494h539v-88l-351 -707h-145l350 680v2h-393v113z" />
<glyph unicode="&#x2088;" horiz-adv-x="671" d="M342 508h2q117 0 182.5 -58.5t65.5 -140.5q0 -123 -129 -180v-4q160 -59 160 -201q0 -104 -81 -169.5t-210 -65.5q-131 0 -207 63.5t-76 153.5q0 139 156 205v4q-127 61 -127 178q0 94 75.5 154.5t188.5 60.5zM336 -215h2q66 0 105.5 37t39.5 92q0 111 -161 156 q-135 -39 -136 -148q0 -57 41 -97t109 -40zM338 414h-2q-61 0 -95 -33t-34 -82q0 -96 143 -133q113 33 113 129q0 47 -32 83t-93 36z" />
<glyph unicode="&#x2089;" horiz-adv-x="669" d="M119 -309v106q23 -2 86 2q104 14 172 70q84 68 104 188h-2q-68 -78 -184 -77q-109 0 -178.5 68.5t-69.5 176.5q0 117 82 200t207 83q135 0 211 -93t76 -245q0 -238 -142 -369q-98 -94 -268 -106q-47 -8 -94 -4zM330 406h-2q-61 0 -102.5 -50.5t-41.5 -124.5 q0 -66 40 -109.5t106 -43.5q98 0 145 74q8 14 8 41q0 94 -37.5 153.5t-115.5 59.5z" />
<glyph unicode="&#x208d;" horiz-adv-x="368" d="M240 569h104q-147 -211 -147 -497q0 -272 147 -492h-104q-158 211 -158 492q0 286 158 497z" />
<glyph unicode="&#x208e;" horiz-adv-x="368" d="M131 -420h-104q147 219 147 496q0 274 -147 493h104q158 -211 158 -493q0 -281 -158 -496z" />
<glyph unicode="&#x20ab;" horiz-adv-x="1050" d="M182 201h690v-121h-690v121zM709 1360h155v-139h127v-101h-127v-608q0 -111 6 -182h-141l-6 116h-4q-78 -133 -256 -133q-139 0 -231.5 99.5t-92.5 257.5q-2 172 97.5 275.5t246.5 103.5q150 0 222 -105h4v176h-260v101h260v139zM709 637v96q0 33 -7 53q-16 59 -68 100.5 t-122 41.5q-98 0 -154.5 -70t-56.5 -180q0 -104 53.5 -173t149.5 -69q70 0 125 40t71 106q9 32 9 55z" />
<glyph unicode="&#x20ac;" horiz-adv-x="1050" d="M981 193l35 -130q-127 -86 -305 -86q-258 0 -416 183q-121 133 -148 352h-127v100h117v31q0 35 4 92h-121v103h136q37 211 168 346q164 170 405 170q150 0 272 -66l-40 -135q-102 57 -230 57q-164 0 -270 -112q-90 -88 -123 -260h571v-103h-590q-4 -53 -4 -86v-37h594 v-100h-579q23 -170 112 -268q113 -119 289 -119q131 0 250 68z" />
<glyph unicode="&#x2113;" horiz-adv-x="1032" d="M397 1047v-441q268 274 269 539q0 190 -127 190q-61 0 -101.5 -71.5t-40.5 -216.5zM885 309l88 -82q-141 -248 -410 -247q-152 0 -234.5 90t-99.5 241v17l-112 -76l-54 100q111 78 162 121v541q0 227 89 337.5t235 110.5q123 0 194.5 -86t71.5 -229q0 -182 -104.5 -354 t-313.5 -359v-28q6 -274 209 -275q156 0 279 178z" />
<glyph unicode="&#x2116;" horiz-adv-x="1875" d="M1491 1311h2q147 0 233 -96.5t86 -256.5q0 -180 -94 -270t-229 -90q-141 0 -232.5 93t-91.5 257q0 168 94.5 265.5t231.5 97.5zM1489 1208h-2q-84 0 -129 -77.5t-45 -180.5q0 -109 51 -180.5t125 -71.5q80 0 128 72t48 184q0 102 -44 178t-132 76zM1759 403h-538v107h538 v-107zM311 0h-159v1339h196l348 -665q125 -240 209 -445l2 2q-18 240 -18 564v544h160v-1339h-183l-352 672q-125 242 -209 450l-6 -2q12 -258 12 -569v-551z" />
<glyph unicode="&#x2122;" horiz-adv-x="1267" d="M61 1380h467v-92h-178v-465h-110v465h-179v92zM1241 823h-111l-20 328q-2 23 -3 76t-1 80h-6q-4 -14 -20.5 -76t-26.5 -90l-101 -310h-114l-101 318l-39 158h-6q0 -53 -4 -156l-20 -328h-107l41 557h166l96 -272q12 -43 37 -141h2q4 18 12 47l15 51q6 23 12 41l96 274 h160z" />
<glyph unicode="&#x2126;" horiz-adv-x="1443" d="M1081 150v-9h301v-141h-518v113q131 90 218 250.5t87 357.5q0 209 -118.5 372.5t-323.5 163.5q-207 0 -330 -160.5t-123 -377.5q0 -186 90.5 -356t217.5 -250v-113h-521v141h297v9q-115 94 -192.5 245.5t-77.5 337.5q0 293 183.5 481.5t459.5 188.5q281 0 452 -186.5 t171 -466.5q0 -197 -78 -349.5t-195 -250.5z" />
<glyph unicode="&#x212e;" horiz-adv-x="1673" d="M1602 647h-1240q-10 0 -10 -8v-375q0 -20 19 -43q190 -203 469 -203q297 0 491 228h113q-106 -125 -266 -197t-340 -72q-317 0 -541.5 202t-224.5 486.5t224 486.5t541.5 202t541 -202t223.5 -486v-19zM1323 696v377q0 25 -20 45q-195 195 -463 195q-272 0 -467 -201 q-20 -20 -21 -47v-369q0 -10 10 -10h951q10 0 10 10z" />
<glyph unicode="&#x2202;" horiz-adv-x="768" d="M176 1257l-57 121q150 109 354 109q225 0 382 -193.5t157 -531.5q0 -371 -160 -578t-391 -207q-195 0 -301.5 127t-106.5 304q0 209 130 354t319 145q117 0 207 -54t127 -124h2q2 20 2 68q0 256 -114 399t-269 143q-164 0 -281 -82zM475 125h2q131 0 225.5 129t116.5 313 q-31 82 -109.5 139.5t-179.5 57.5q-123 0 -210 -101.5t-87 -250.5q0 -133 66.5 -210t175.5 -77z" />
<glyph unicode="&#x2206;" horiz-adv-x="1165" d="M1114 0h-1061v100l432 1243h201l428 -1241v-102zM924 147l-244 711q-70 211 -100 324h-7q-39 -147 -88 -295l-252 -740h691z" />
<glyph unicode="&#x220f;" horiz-adv-x="1259" d="M1239 1182h-190v-1366h-170v1366h-500v-1366h-170v1366h-191v149h1221v-149z" />
<glyph unicode="&#x2211;" horiz-adv-x="1038" d="M1053 -184h-1035v106l514 647l-487 641v121h944v-147h-715v-8l455 -601l-479 -604v-6h803v-149z" />
<glyph unicode="&#x2212;" horiz-adv-x="1220" d="M82 608h1057v-123h-1057v123z" />
<glyph unicode="&#x2215;" horiz-adv-x="247" d="M-207 -23h-115l777 1377h116z" />
<glyph unicode="&#x2219;" horiz-adv-x="423" d="M211 410h-2q-53 0 -87 36.5t-32 92.5q0 55 35 92t88 37t86 -36t35 -93q0 -55 -34 -92t-89 -37z" />
<glyph unicode="&#x221a;" horiz-adv-x="1150" d="M1186 1694l-471 -1889h-131l-326 877l-154 -66l-38 97l282 118l252 -708q25 -66 39 -131h4q12 72 27 133l381 1569h135z" />
<glyph unicode="&#x221e;" horiz-adv-x="1490" d="M1108 238h-2q-53 0 -101.5 16t-102.5 59t-76 64l-81 80l-82.5 -81t-80 -65t-105.5 -57t-110 -16q-129 0 -212 85t-83 218q0 123 89 213t222 90q53 0 102.5 -16.5t103.5 -59.5t76 -63l80 -80q57 57 83 80.5t80.5 64.5t105.5 57.5t110 16.5q131 0 213 -85t82 -218 q0 -123 -89 -213t-222 -90zM1110 360h2q74 0 126 53.5t52 127.5q0 78 -49 129t-125 51q-53 0 -112.5 -33t-89.5 -61l-87 -86l47 -46q35 -34 54.5 -50.5t51.5 -40t63.5 -34t66.5 -10.5zM375 360h2q53 0 111.5 33t88 60.5t87.5 87.5l-48 46q-35 34 -54 50t-51 39.5t-63.5 34 t-66.5 10.5q-76 0 -128 -53.5t-52 -126.5q0 -78 49 -129.5t125 -51.5z" />
<glyph unicode="&#x222b;" horiz-adv-x="647" d="M627 1614l-23 -115q-37 8 -61 8q-61 0 -94 -45q-61 -78 -62 -323q0 -147 12.5 -477t12.5 -486q0 -270 -86 -385q-68 -98 -195 -98q-78 0 -111 18l25 119q33 -12 72 -12q55 0 90 43q63 78 63 315q0 158 -12 491.5t-12 483.5q0 287 106 401q70 76 183 76q55 0 92 -14z" />
<glyph unicode="&#x2248;" horiz-adv-x="1220" d="M1092 852l75 -84q-53 -68 -137 -114t-174 -46q-35 0 -65.5 4t-60.5 14.5t-48 17.5t-49 21.5t-39 18.5q-12 4 -46 20.5t-56.5 24.5t-59.5 16.5t-72 8.5q-125 0 -241 -121l-72 86q55 66 139 112t174 46q43 0 84 -8.5t64.5 -17.5t62.5 -26.5t52 -21.5q6 -4 45 -21.5 t57 -24.5t55 -15.5t74 -8.5q123 0 238 119zM1102 446l74 -81q-53 -68 -138.5 -115t-175.5 -47q-41 0 -82 8t-64.5 17.5l-62.5 26.5t-51 21.5t-47 20.5t-56.5 24.5t-58.5 16.5t-73 8q-127 0 -240 -121l-70 88q51 63 136.5 109.5t175.5 46.5q43 0 86 -9t61.5 -15.5t65.5 -28 t49 -21.5q12 -6 46 -21.5t56.5 -23.5t58 -16t70.5 -8q68 0 132.5 35.5t107.5 84.5z" />
<glyph unicode="&#x2260;" horiz-adv-x="1220" d="M1139 287h-635l-156 -250h-133l162 250h-295v123h373l182 282h-555v123h633l155 250h134l-162 -250h297v-123h-375l-180 -282h555v-123z" />
<glyph unicode="&#x2264;" horiz-adv-x="1220" d="M1085 203l-950 395v121l950 393v-135l-782 -318v-4l782 -315v-137zM1085 0h-946v119h946v-119z" />
<glyph unicode="&#x2265;" horiz-adv-x="1220" d="M1085 598l-950 -395v137l783 315v4l-783 318v135l950 -393v-121zM1081 0h-946v119h946v-119z" />
<glyph unicode="&#x25ca;" horiz-adv-x="1069" d="M977 666l-373 -729h-141l-371 729l371 727h141zM821 662l-266 546q-10 16 -23 47h-4q-6 -27 -20 -47l-262 -540l268 -545l10 -21q8 -18 11 -26h4l20 47z" />
<glyph unicode="&#xe000;" horiz-adv-x="990" d="M0 990h990v-990h-990v990z" />
<glyph unicode="&#xe001;" horiz-adv-x="1646" d="M1354 0l-35 606q-23 424 -21 596h-6q-74 -252 -174 -524l-244 -670h-135l-223 658q-109 326 -160 536h-4q-6 -270 -26 -610l-37 -592h-170l96 1380h227l236 -667q94 -279 139 -465h6q45 182 146 465l245 667h228l86 -1380h-174zM754 1688h137l213 -234h-150l-131 141h-4 l-131 -141h-145z" />
<glyph unicode="&#xe002;" horiz-adv-x="1347" d="M324 0h-168v1380h194l443 -698q150 -236 247 -449l4 3q-20 231 -20 567v577h168v-1380h-180l-439 700q-170 270 -258 461l-6 -2q14 -244 15 -569v-590zM604 1688h137l213 -234h-149l-131 141h-4l-131 -141h-146z" />
<glyph unicode="&#xe005;" horiz-adv-x="1144" d="M971 719v-576q0 -326 -142 -452q-127 -119 -360 -119q-207 0 -330 82l45 137q125 -78 291 -78q147 0 233.5 84t86.5 262v111h-4q-100 -166 -316 -166q-182 0 -302 138.5t-120 344.5q0 240 133 383.5t314 143.5q219 0 309 -172h4l8 149h158q-8 -143 -8 -272zM793 422v178 q0 51 -11 82q-27 84 -92 137t-160 53q-131 0 -212.5 -102t-81.5 -272q0 -154 76.5 -255.5t215.5 -101.5q84 0 153 50.5t97 134.5q15 43 15 96zM420 1161h-98q-2 98 34.5 155.5t104.5 57.5q47 0 127 -45q61 -35 86 -35q51 0 57 88h96q4 -207 -141 -206q-47 0 -125 41 q-61 37 -88 36q-47 0 -53 -92z" />
<glyph unicode="&#xe006;" horiz-adv-x="1708" d="M791 1419h124l197 -293h-139l-119 195h-4l-119 -195h-133zM150 0v723q0 160 -9 268h158l8 -160h6q106 182 312 183q98 0 172.5 -54.5t107.5 -144.5h4q43 80 111 129q92 70 219 70q55 0 107.5 -20.5t103.5 -64.5t83 -133t32 -212v-584h-176v561q0 305 -215 305 q-74 0 -131.5 -47t-81.5 -117q-14 -43 -15 -90v-612h-176v594q0 123 -53 197.5t-154 74.5q-80 0 -140.5 -53t-82.5 -127q-14 -37 -14 -88v-598h-176z" />
<glyph unicode="&#xe007;" horiz-adv-x="1136" d="M504 1419h125l196 -293h-139l-119 195h-4l-119 -195h-133zM150 0v723q0 160 -9 268h160l10 -164h4q41 78 127 132.5t201 54.5q57 0 113.5 -19.5t112 -63.5t90 -131t34.5 -208v-592h-180v571q0 131 -55.5 212t-173.5 81q-86 0 -151.5 -53t-90.5 -131q-12 -33 -12 -84v-596 h-180z" />
<glyph unicode="&#xe008;" horiz-adv-x="1050" d="M299 344l412 766q-66 104 -185 104q-125 0 -200.5 -148t-77.5 -394q0 -199 51 -328zM760 985l-414 -768q70 -100 176 -100q137 0 209 147.5t72 407.5q0 180 -43 313zM971 1329l-103 -162q109 -176 109 -487q0 -338 -120 -520.5t-341 -182.5q-152 0 -256 103l-76 -129 l-90 63l96 152q-117 182 -116 496q-2 328 126 510t337 182q160 0 260 -101l82 136z" />
<glyph unicode="&#xe016;" horiz-adv-x="1071" d="M346 0h-178v854h-139v137h139v53q0 199 112.5 316t319.5 117q70 0 141.5 -18.5t110.5 -47.5l-51 -137q-80 57 -209 57q-246 0 -246 -291v-49h576v-991h-179v854h-397v-854z" />
<glyph unicode="&#xe017;" horiz-adv-x="1071" d="M346 0h-178v854h-139v137h139v43q0 219 139 342q119 100 318 101q178 0 297 -66v-1411h-179v1311q-49 27 -147 26q-131 0 -190.5 -81.5t-59.5 -215.5v-49h232v-137h-232v-854z" />
<glyph unicode="&#xe018;" horiz-adv-x="499" d="M362 907h-143v674h-4l-147 -72l-23 107l193 90h124v-799z" />
<glyph unicode="&#xe019;" horiz-adv-x="636" d="M25 907v76l129 121q139 125 198.5 202.5t59.5 151.5q0 61 -40 102.5t-116 41.5q-80 0 -172 -64l-43 92q100 86 250 86q135 0 203.5 -69.5t68.5 -161.5q0 -104 -65.5 -192.5t-206.5 -211.5l-64 -57v-4h351v-113h-553z" />
<glyph unicode="&#xe020;" horiz-adv-x="624" d="M92 1556l-35 97q98 63 236 63q125 0 187.5 -55t62.5 -137q0 -61 -42 -110.5t-116 -74.5v-4q86 -12 138 -66.5t52 -131.5q0 -100 -87 -170t-236.5 -70t-233.5 57l37 103q78 -53 191 -53q88 0 134 41.5t44 95.5q0 72 -63.5 107.5t-153.5 35.5h-55v94h57q68 0 126 33t60 98 q0 41 -32.5 71t-96.5 30q-96 -1 -174 -54z" />
<glyph unicode="&#xe184;" horiz-adv-x="1050" d="M709 1360h155v-139h127v-101h-127v-608q0 -111 6 -182h-141l-6 116h-4q-78 -133 -256 -133q-139 0 -231.5 99.5t-92.5 257.5q-2 172 97.5 275.5t246.5 103.5q150 0 222 -105h4v176h-260v101h260v139zM709 637v96q0 33 -7 53q-16 59 -68 100.5t-122 41.5q-98 0 -154.5 -70 t-56.5 -180q0 -104 53.5 -173t149.5 -69q70 0 125 40t71 106q9 32 9 55z" />
<glyph unicode="&#xe300;" d="M393 1583h174l-227 -268h-109zM43 1346h102q10 -61 53.5 -101.5t108.5 -40.5q74 0 116 42t46 100h102q-2 -115 -74.5 -184.5t-189.5 -69.5q-127 0 -194.5 74t-69.5 180z" />
<glyph unicode="&#xe301;" d="M45 1583h172l164 -268h-111zM35 1346h102q10 -61 53 -101.5t109 -40.5q74 0 117 42t47 100h100q-2 -115 -74.5 -184.5t-189.5 -69.5q-127 0 -194.5 74t-69.5 180z" />
<glyph unicode="&#xe302;" d="M334 1298l-90 23q16 41 60 88t44 80q0 29 -19.5 48t-49.5 19q-49 0 -97 -73l-65 41q66 131 194 131q70 0 117 -43t47 -103q0 -45 -22.5 -75.5t-60.5 -65.5t-58 -70zM43 1346h102q10 -61 53.5 -101.5t108.5 -40.5q74 0 116 42t46 100h102q-2 -115 -74.5 -184.5 t-189.5 -69.5q-127 0 -194.5 74t-69.5 180z" />
<glyph unicode="&#xe303;" d="M160 1430h-103q4 78 40 127t100 49q41 0 127 -45q66 -33 86 -33q51 0 57 84h96q4 -197 -141 -197q-51 0 -123 43q-66 33 -90 33q-41 0 -49 -61zM47 1346h100q10 -61 53.5 -102.5t106.5 -41.5q72 0 114 43t46 101h100q-2 -115 -73.5 -184.5t-186.5 -69.5q-127 0 -192.5 74 t-67.5 180z" />
</font>
</defs>
</svg>
